<svg width="64" height="62" viewBox="0 0 64 62" fill="none" xmlns="http://www.w3.org/2000/svg">
<path d="M64 27.7769H0V26.4296C0 14.3032 13.6758 0.694824 32 0.694824C50.3242 0.694824 64 14.3032 64 26.4296V27.7769ZM2.76211 25.0822H61.3053C60.2947 14.5727 48.1011 3.32219 32 3.32219C15.8989 3.32219 3.70526 14.5727 2.76211 25.0822Z" fill="white"/>
<path d="M60.0926 62H3.90737C1.75158 62 0 60.2484 0 58.0926V48.1895H64V58.16C64 60.2484 62.2484 62 60.0926 62ZM2.69474 50.8168V58.0926C2.69474 58.7663 3.23368 59.3052 3.90737 59.3052H60.16C60.8337 59.3052 61.3726 58.7663 61.3726 58.0926V50.8168H2.69474Z" fill="white"/>
<path d="M56.859 43.1758H7.1411C4.18733 43.1758 1.84741 40.776 1.84741 37.8821C1.84741 34.9283 4.24713 32.5884 7.1411 32.5884H56.859C59.8128 32.5884 62.1527 34.9881 62.1527 37.8821C62.1527 40.8396 59.8165 43.1758 56.859 43.1758Z" stroke="white"/>
<path d="M56.859 45.0231H7.14105C3.16632 45.0231 0 41.7894 0 37.882C0 33.9747 3.23368 30.741 7.14105 30.741H56.859C60.8337 30.741 64 33.9747 64 37.882C64 41.7894 60.7663 45.0231 56.859 45.0231ZM7.14105 33.3683C4.64842 33.3683 2.62737 35.3894 2.62737 37.882C2.62737 40.3747 4.64842 42.3957 7.14105 42.3957H56.859C59.3516 42.3957 61.3726 40.3747 61.3726 37.882C61.3726 35.3894 59.3516 33.3683 56.859 33.3683H7.14105Z" fill="white"/>
<path d="M35.2337 40.3748C33.9537 40.3748 32.8084 39.9032 31.7305 39.499C30.8547 39.1621 30.0463 38.8253 29.3052 38.8253C28.4295 38.7579 27.4189 39.0947 26.4084 39.3642C24.8589 39.8358 23.1073 40.3747 21.3558 39.7684C20.8168 39.5663 20.3452 39.2969 19.941 39.0947C19.6716 38.96 19.4021 38.7579 19.1326 38.6905C17.8526 38.1516 16.3031 38.4884 14.6189 38.8926L14.1473 39.0274C12.1937 39.4316 9.36419 39.8358 7.34314 38.0842L9.09472 36.0632C9.97051 36.8042 11.3852 36.939 13.6084 36.4674L14.08 36.3326C15.9663 35.9284 18.1221 35.4569 20.2105 36.2653C20.6147 36.4674 20.9516 36.6695 21.3558 36.8042C21.6926 37.0063 22.0295 37.2084 22.2989 37.2758C23.2421 37.6126 24.3873 37.2758 25.7347 36.8716C26.9473 36.5347 28.16 36.1305 29.5747 36.1979C30.7873 36.2653 31.7979 36.6695 32.8084 37.0737C33.8863 37.4779 34.8968 37.8821 35.7726 37.7474C36.1094 37.68 36.5137 37.5453 36.9852 37.3432C37.1873 37.2758 37.3221 37.2084 37.5242 37.1411C39.5452 36.3326 41.9031 36.1305 44.0589 36.6021C44.3958 36.6695 44.8 36.7369 45.1368 36.8716C45.8105 37.0737 46.4842 37.2084 47.0905 37.2084C47.9663 37.2084 48.9095 36.8042 49.8526 36.4674C50.2568 36.3326 50.661 36.1305 51.0652 35.9958C53.3558 35.1874 55.3768 35.3895 56.7242 36.5347L54.9726 38.5558C54.0968 37.8147 52.5473 38.2863 51.8737 38.4884C51.5368 38.6232 51.1326 38.7579 50.7958 38.8926C49.6505 39.3642 48.4379 39.8358 47.0231 39.8358C47.0231 39.8358 47.0231 39.8358 46.9558 39.8358C46.0126 39.8358 45.1368 39.6337 44.3284 39.4316C43.9916 39.3642 43.7221 39.2969 43.3852 39.2295C41.701 38.8926 39.9495 39.0274 38.4 39.6337C38.2652 39.7011 38.0631 39.7684 37.9284 39.8358C37.3895 40.0379 36.8505 40.3074 36.1768 40.3748C35.84 40.3074 35.5705 40.3748 35.2337 40.3748Z" fill="white"/>
<path d="M10.1931 20.4466L8.63013 18.2515L6.5996 19.6972L8.16257 21.8924L10.1931 20.4466Z" fill="white"/>
<path d="M45.9678 12.1537L44.4045 9.95874L42.3742 11.4048L43.9375 13.5997L45.9678 12.1537Z" fill="white"/>
<path d="M39.5107 9.44858L37.9478 7.25342L35.9172 8.69916L37.4802 10.8943L39.5107 9.44858Z" fill="white"/>
<path d="M15.2342 15.3669L13.4369 13.3591L12.2322 14.4375L14.0295 16.4453L15.2342 15.3669Z" fill="white"/>
<path d="M23.9405 11.0302L22.9036 8.54297L20.9759 9.34658L22.0129 11.8338L23.9405 11.0302Z" fill="white"/>
<path d="M17.5145 21.6225L16.3711 19.1824L14.968 19.8398L16.1114 22.28L17.5145 21.6225Z" fill="white"/>
<path d="M30.4505 9.65503L28.7663 7.56661C29.5748 6.89292 30.5853 6.42134 31.5958 6.21924L32.2021 8.77924C31.5284 8.98134 30.9221 9.25082 30.4505 9.65503ZM20.2105 17.5371L19.5369 14.9771C20.1432 14.8424 20.7495 14.5729 21.2884 14.3034L22.5011 16.6613C21.76 16.9982 21.019 17.2677 20.2105 17.5371Z" fill="white"/>
<path d="M35.3102 21.1642L34.4537 18.6091L32.2181 19.3585L33.0745 21.9135L35.3102 21.1642Z" fill="white"/>
<path d="M48.8754 22.0028L48.0189 19.4478L45.7833 20.1971L46.6397 22.7522L48.8754 22.0028Z" fill="white"/>
<path d="M40.8252 22.5222L39.7473 20.0969C40.421 19.8274 41.0947 19.5579 41.7684 19.4232L42.3073 22.0506C41.7684 22.1853 41.2294 22.32 40.8252 22.5222ZM37.3894 17.3348L36.3115 14.9095C36.9852 14.6401 37.6589 14.4379 38.3326 14.2358L38.8715 16.8632C38.3326 16.9306 37.861 17.1327 37.3894 17.3348Z" fill="white"/>
<path d="M30.7655 15.6317L29.9061 13.0776L28.3737 13.5932L29.233 16.1473L30.7655 15.6317Z" fill="white"/>
<path d="M18.1698 12.3381L17.3093 9.78442L15.7771 10.3007L16.6376 12.8544L18.1698 12.3381Z" fill="white"/>
<path d="M27.3971 22.1176L26.5366 19.564L25.0044 20.0803L25.8649 22.6339L27.3971 22.1176Z" fill="white"/>
<path d="M55.2419 20.0943L54.3826 17.5403L52.8501 18.0559L53.7095 20.6099L55.2419 20.0943Z" fill="white"/>
<path d="M50.3969 17.1602L49.5376 14.6062L48.0052 15.1218L48.8645 17.6758L50.3969 17.1602Z" fill="white"/>
</svg>
