<svg width="64" height="64" viewBox="0 0 64 64" fill="none" xmlns="http://www.w3.org/2000/svg">
<path d="M60.2 37.7998H4V59.2398H60.2V37.7998Z" stroke="white" stroke-width="3" stroke-linecap="round" stroke-linejoin="round"/>
<path d="M52.8 29.3999H11.4V37.8199H52.8V29.3999Z" stroke="white" stroke-width="3" stroke-linecap="round" stroke-linejoin="round"/>
<path d="M22.8 41.7998C22.6454 44.152 21.5741 46.3498 19.8164 47.9205C18.0586 49.4913 15.7548 50.3096 13.4 50.1998C11.0452 50.3096 8.74139 49.4913 6.98365 47.9205C5.2259 46.3498 4.15459 44.152 4 41.7998" stroke="white" stroke-width="3" stroke-linecap="round" stroke-linejoin="round"/>
<path d="M41.6 41.7998C41.4455 44.152 40.3741 46.3498 38.6164 47.9205C36.8587 49.4913 34.5548 50.3096 32.2001 50.1998C29.8453 50.3096 27.5414 49.4913 25.7837 47.9205C24.026 46.3498 22.9546 44.152 22.8 41.7998" stroke="white" stroke-width="3" stroke-linecap="round" stroke-linejoin="round"/>
<path d="M60.2 41.7998C60.0454 44.152 58.9741 46.3498 57.2163 47.9205C55.4586 49.4913 53.1547 50.3096 50.8 50.1998C48.4791 50.2565 46.2261 49.4142 44.5117 47.8489C42.7973 46.2835 41.7541 44.1162 41.6 41.7998" stroke="white" stroke-width="3" stroke-linecap="round" stroke-linejoin="round"/>
<path d="M32.2001 22.3999V27.3999" stroke="white" stroke-width="3" stroke-linecap="round" stroke-linejoin="round"/>
<path d="M35.4 19.8C41 15 32.2 4 32.2 4C32.2 4 23.4 15 28.8 19.8C29.7302 20.5638 30.8965 20.9813 32.1 20.9813C33.3036 20.9813 34.4699 20.5638 35.4 19.8Z" stroke="white" stroke-width="3" stroke-linecap="round" stroke-linejoin="round"/>
</svg>
