<svg width="72" height="53" viewBox="0 0 72 53" fill="none" xmlns="http://www.w3.org/2000/svg">
<path d="M70 20.8582V51H2V20.8582H18.8794V37.0142C18.8794 38.3572 19.4129 39.6452 20.3626 40.5949C21.3122 41.5445 22.6003 42.078 23.9433 42.078H24.1844C24.8694 42.1107 25.5539 42.0039 26.1964 41.7641C26.8389 41.5242 27.4259 41.1564 27.922 40.6829C28.4181 40.2094 28.8128 39.6401 29.0822 39.0094C29.3516 38.3788 29.4901 37.7 29.4894 37.0142V20.8582H70Z" stroke="white" stroke-width="3" stroke-linecap="round" stroke-linejoin="round"/>
<path d="M70 20.8582L35.2766 4.46107C30.4503 2.00868 24.9338 1.26952 19.6321 2.3649C14.3304 3.46028 9.55852 6.32516 6.09929 10.4894C3.67496 13.4277 2.24032 17.0565 2 20.8582" stroke="white" stroke-width="3" stroke-linecap="round" stroke-linejoin="round"/>
<path d="M2 36.0496H8.99291" stroke="white" stroke-width="3" stroke-linecap="round" stroke-linejoin="round"/>
<path d="M38.8936 36.0496H69.9999" stroke="white" stroke-width="3" stroke-linecap="round" stroke-linejoin="round"/>
</svg>
