<svg width="67" height="69" viewBox="0 0 67 69" fill="none" xmlns="http://www.w3.org/2000/svg">
<path d="M14.7851 18.8094H8.62081C7.79262 18.8714 6.9605 18.7654 6.1743 18.4978C5.38809 18.2302 4.66414 17.8064 4.04577 17.252C3.42741 16.6976 2.92734 16.024 2.5758 15.2716C2.22426 14.5191 2.02846 13.7034 2.00002 12.8734C1.99589 11.2542 2.60635 9.6938 3.70813 8.50726C4.80992 7.32073 6.32086 6.59653 7.93592 6.48088L44.4649 2.14308C45.7599 1.91683 47.0877 1.95927 48.3656 2.2678C49.6435 2.57633 50.8443 3.14434 51.8934 3.93655C52.9426 4.72875 53.8176 5.72821 54.4641 6.87286C55.1107 8.01751 55.515 9.28287 55.6519 10.5904C55.7204 12.3033 55.2799 13.9982 54.3859 15.461C53.492 16.9238 52.1847 18.0889 50.6291 18.8094" stroke="white" stroke-width="3.42459" stroke-linecap="round" stroke-linejoin="round"/>
<path d="M55.652 10.3621C57.1309 9.39925 58.9009 8.98607 60.6533 9.19469C62.4057 9.4033 64.0293 10.2205 65.2409 11.5037" stroke="white" stroke-width="3.42459" stroke-linecap="round" stroke-linejoin="round"/>
<path d="M31.908 66.5254C31.2887 66.5262 30.6757 66.401 30.1063 66.1574C29.5368 65.9138 29.023 65.5569 28.5959 65.1084C28.1687 64.6599 27.8373 64.1293 27.6217 63.5487C27.4061 62.968 27.3109 62.3496 27.3419 61.7311L29.3967 36.6174H34.6477L36.7025 61.7311C36.7025 63.0026 36.1973 64.2221 35.2982 65.1212C34.3991 66.0204 33.1796 66.5254 31.908 66.5254Z" stroke="white" stroke-width="3.42459" stroke-linecap="round" stroke-linejoin="round"/>
<path d="M41.0403 27.4851C40.6931 29.6879 39.5709 31.6943 37.8758 33.1432C36.1806 34.5921 34.0239 35.3882 31.794 35.3882C29.564 35.3882 27.4073 34.5921 25.7122 33.1432C24.017 31.6943 22.8948 29.6879 22.5476 27.4851" stroke="white" stroke-width="3.42459" stroke-linecap="round" stroke-linejoin="round"/>
<path d="M22.5476 15.1565V27.4851" stroke="white" stroke-width="3.42459" stroke-linecap="round" stroke-linejoin="round"/>
<path d="M31.9081 15.1565V27.0284" stroke="white" stroke-width="3.42459" stroke-linecap="round" stroke-linejoin="round"/>
<path d="M41.0403 15.1565V27.4851" stroke="white" stroke-width="3.42459" stroke-linecap="round" stroke-linejoin="round"/>
</svg>
