<svg width="72" height="66" viewBox="0 0 72 66" fill="none" xmlns="http://www.w3.org/2000/svg">
<path d="M53.05 14.9501C50.5978 17.4022 50.5978 21.378 53.05 23.8302C55.5022 26.2824 59.4779 26.2824 61.9301 23.8302C64.3823 21.378 64.3823 17.4022 61.9301 14.9501C59.4779 12.4979 55.5022 12.4979 53.05 14.9501Z" stroke="white" stroke-width="3" stroke-linecap="round" stroke-linejoin="round"/>
<path d="M44.9297 33.1509H69.872V25.7205H44.9297V33.1509Z" stroke="white" stroke-width="3" stroke-linecap="round" stroke-linejoin="round"/>
<path d="M50.9306 40.4802H64.1867V33.0499H50.9306V40.4802Z" stroke="white" stroke-width="3" stroke-linecap="round" stroke-linejoin="round"/>
<path d="M57.6134 1.99997L57.49 13.2235" stroke="white" stroke-width="3" stroke-linecap="round" stroke-linejoin="round"/>
<path d="M57.4902 40.3571V49.2372" stroke="white" stroke-width="3" stroke-linecap="round" stroke-linejoin="round"/>
<path d="M57.4901 49.2371C58.2583 49.1935 59.0219 49.3819 59.6817 49.7778C60.3415 50.1737 60.867 50.7588 61.1901 51.4571L64.0268 58.4872C64.0414 58.8205 63.9823 59.1529 63.8537 59.4607C63.725 59.7685 63.5302 60.0441 63.2828 60.2679C63.0354 60.4917 62.7417 60.6582 62.4226 60.7554C62.1035 60.8527 61.7669 60.8784 61.4368 60.8306L53.5433 60.8306C53.2117 60.8613 52.8774 60.8185 52.5642 60.7054C52.251 60.5923 51.9666 60.4116 51.7311 60.1761C51.4956 59.9406 51.3149 59.6562 51.2018 59.343C51.0887 59.0298 51.0459 58.6955 51.0766 58.3639L53.79 51.4571C54.1131 50.7588 54.6386 50.1737 55.2984 49.7778C55.9582 49.3819 56.7218 49.1935 57.4901 49.2371Z" stroke="white" stroke-width="3" stroke-linecap="round" stroke-linejoin="round"/>
<path d="M25.4145 39.5134V50.1202C26.6603 50.1142 27.8577 50.602 28.7445 51.4769C29.6199 52.4137 30.1068 53.6481 30.1068 54.9302C30.1068 56.2124 29.6199 57.4468 28.7445 58.3836C27.8182 59.246 26.5933 59.7151 25.3279 59.6921C24.0625 59.6691 22.8555 59.1558 21.9611 58.2603C21.4123 58.8725 20.7179 59.3363 19.9421 59.6087C19.1663 59.881 18.3343 59.9531 17.5233 59.8182C16.7122 59.6834 15.9483 59.3459 15.3024 58.8372C14.6566 58.3284 14.1496 57.6648 13.8284 56.9079C13.5073 56.151 13.3825 55.3253 13.4655 54.5073C13.5486 53.6893 13.8368 52.9055 14.3034 52.2286C14.7701 51.5517 15.4001 51.0035 16.135 50.635C16.87 50.2664 17.6861 50.0893 18.5077 50.1202L18.3844 39.39" stroke="white" stroke-width="3" stroke-linecap="round" stroke-linejoin="round"/>
<path d="M12.8343 30.3866C10.5994 28.3203 9.15491 25.5394 8.74969 22.5227C8.34447 19.5061 9.00384 16.4425 10.6143 13.8597C11.7285 12.0589 13.2579 10.5512 15.0745 9.46285C16.8911 8.37453 18.9421 7.73727 21.0556 7.60442C23.169 7.47157 25.2836 7.84699 27.2222 8.69927C29.1608 9.55154 30.867 10.8559 32.1979 12.503C34.2639 14.9962 35.3318 18.167 35.1951 21.4021C35.0584 24.6371 33.7268 27.7065 31.4579 30.0166C29.7533 31.9013 28.8662 34.3852 28.9912 36.9233L28.8679 39.5134L15.7943 39.5134L15.671 37.6634C15.7242 36.3205 15.4997 34.9812 15.0116 33.7291C14.5235 32.477 13.7823 31.3391 12.8343 30.3866Z" stroke="white" stroke-width="3" stroke-linecap="round" stroke-linejoin="round"/>
</svg>
