<svg width="68" height="64" viewBox="0 0 68 64" fill="none" xmlns="http://www.w3.org/2000/svg">
<g id="Group 1">
<g id="bottle 2">
<path id="Vector" d="M23.7473 2.26392V19.091H23.9576C26.858 19.4035 29.5392 20.7811 31.4821 22.9572C33.425 25.1332 34.4913 27.9528 34.4745 30.8699V61.9999H1.87215V30.6595C1.85508 27.798 2.8992 25.0317 4.80275 22.895C6.7063 20.7584 9.33418 19.4031 12.1787 19.091V2.26392H23.7473Z" stroke="white" stroke-width="3" stroke-linecap="round" stroke-linejoin="round"/>
<path id="Vector_2" d="M12.1787 10.0464H23.7473" stroke="white" stroke-width="3" stroke-linecap="round" stroke-linejoin="round"/>
<path id="Vector_3" d="M1.87213 36.7595H34.4745" stroke="white" stroke-width="3" stroke-linecap="round" stroke-linejoin="round"/>
<path id="Vector_4" d="M1.87213 47.9072H34.4745" stroke="white" stroke-width="3" stroke-linecap="round" stroke-linejoin="round"/>
</g>
<g id="cup juice">
<g id="Group">
<path id="Vector_5" d="M62.1362 61.4851H49.9058C48.9717 61.4857 48.0738 61.1236 47.4013 60.4752C46.7289 59.8268 46.3344 58.9426 46.3011 58.0091L45.7861 41.4015C45.7691 40.0489 46.0187 38.7062 46.5206 37.4501C47.0226 36.1941 47.767 35.0492 48.7114 34.0808C49.6559 33.1125 50.7818 32.3396 52.025 31.8064C53.2681 31.2733 54.6041 30.9902 55.9567 30.9734C57.3032 30.9733 58.6363 31.2406 59.8787 31.7597C61.1211 32.2789 62.2482 33.0396 63.1943 33.9977C64.1404 34.9558 64.8868 36.0922 65.3903 37.3411C65.8938 38.5899 66.1443 39.9263 66.1273 41.2727L65.741 58.0091C65.7413 58.4766 65.6473 58.9394 65.4646 59.3697C65.2819 59.8001 65.0144 60.1891 64.6778 60.5136C64.3413 60.8382 63.9427 61.0915 63.506 61.2584C63.0693 61.4253 62.6034 61.5024 62.1362 61.4851Z" stroke="white" stroke-width="3" stroke-miterlimit="10"/>
<path id="Vector_6" d="M46.5675 42L65.5675 42" stroke="white" stroke-width="3" stroke-linecap="round" stroke-linejoin="round"/>
</g>
<path id="Vector_7" d="M52.4828 52.087L51.5816 24.1501H44.2434" stroke="white" stroke-width="3" stroke-linecap="round" stroke-linejoin="round"/>
</g>
</g>
</svg>
