<svg width="67" height="64" viewBox="0 0 67 64" fill="none" xmlns="http://www.w3.org/2000/svg">
<path d="M2.40002 61.8262H65" stroke="white" stroke-width="3.20478" stroke-linecap="round" stroke-linejoin="round"/>
<path d="M6.0321 54.1345C7.18152 47.5869 10.5902 41.6496 15.6649 37.3556C20.7397 33.0616 27.1593 30.6826 33.8069 30.6328C40.4409 30.6483 46.8537 33.0198 51.9017 37.3242C56.9496 41.6287 60.3045 47.5863 61.3679 54.1345" stroke="white" stroke-width="3.20478" stroke-linecap="round" stroke-linejoin="round"/>
<path d="M33.8068 30.419C36.8747 30.419 39.3617 27.932 39.3617 24.864C39.3617 21.7961 36.8747 19.3091 33.8068 19.3091C30.7389 19.3091 28.2518 21.7961 28.2518 24.864C28.2518 27.932 30.7389 30.419 33.8068 30.419Z" stroke="white" stroke-width="3.20478" stroke-linecap="round" stroke-linejoin="round"/>
<path d="M33.8068 2.43066V10.3357" stroke="white" stroke-width="3.20478" stroke-linecap="round" stroke-linejoin="round"/>
<path d="M17.3556 7.77222V15.4637" stroke="white" stroke-width="3.20478" stroke-linecap="round" stroke-linejoin="round"/>
<path d="M50.2579 7.77222V15.4637" stroke="white" stroke-width="3.20478" stroke-linecap="round" stroke-linejoin="round"/>
</svg>
