<svg width="68" height="66" viewBox="0 0 68 66" fill="none" xmlns="http://www.w3.org/2000/svg">
<path d="M12.094 63.9998V55.624M56.9799 63.9998V55.624M2 54.8079H66" stroke="white" stroke-width="2.79984" stroke-linecap="round"/>
<mask id="path-2-inside-1_649_19125" fill="white">
<rect x="5.86584" y="32.4939" width="56.698" height="23.6242" rx="0.901961"/>
</mask>
<rect x="5.86584" y="32.4939" width="56.698" height="23.6242" rx="0.901961" stroke="white" stroke-width="5.59968" stroke-linecap="round" mask="url(#path-2-inside-1_649_19125)"/>
<path d="M15.3799 48.2336L15.3799 44.2845" stroke="white" stroke-width="3" stroke-linecap="round" stroke-linejoin="round"/>
<path d="M24.1423 48.2336L24.1423 44.2845" stroke="white" stroke-width="3" stroke-linecap="round" stroke-linejoin="round"/>
<path d="M32.9047 48.2336L32.9047 44.2845" stroke="white" stroke-width="3" stroke-linecap="round" stroke-linejoin="round"/>
<path d="M41.6671 48.2336L41.6671 44.2845" stroke="white" stroke-width="3" stroke-linecap="round" stroke-linejoin="round"/>
<path d="M50.4296 48.2336L50.4296 44.2845" stroke="white" stroke-width="3" stroke-linecap="round" stroke-linejoin="round"/>
<path d="M11.4496 32.4937C13.0961 26.5519 19.8684 14.6682 33.7852 14.6682C47.7019 14.6682 54.6174 26.5519 56.3355 32.4937" stroke="white" stroke-width="2.79984" stroke-linecap="round"/>
<path d="M38.9396 15.3126V2.46959C38.9396 1.97145 38.5358 1.56763 38.0377 1.56763H29.9624C29.4642 1.56763 29.0604 1.97145 29.0604 2.46959V15.3126" stroke="white" stroke-width="2.79984"/>
</svg>
