<svg width="68" height="70" viewBox="0 0 68 70" fill="none" xmlns="http://www.w3.org/2000/svg">
<path d="M34.2734 21.7981C34.6384 19.7972 35.6892 17.986 37.2449 16.6758C38.8007 15.3657 40.7643 14.6385 42.7981 14.6194C45.1006 14.6763 47.2932 15.6164 48.9218 17.245C50.5504 18.8736 51.4904 21.066 51.5473 23.3685C51.5078 24.2808 51.3571 25.1847 51.0986 26.0605L53.7906 25.6119C56.0931 25.6687 58.2855 26.6088 59.9141 28.2374C61.5427 29.866 62.4827 32.0584 62.5396 34.3609" stroke="white" stroke-width="3" stroke-linecap="round" stroke-linejoin="round"/>
<path d="M14.6609 28.9685C12.921 29.0123 11.967 29.7513 10.7364 31.0055C9.50575 32.2596 8.79543 33.9479 8.75245 35.721" stroke="white" stroke-width="3" stroke-linecap="round" stroke-linejoin="round"/>
<path d="M20.8031 26.7692L15.8961 20.7845C15.196 21.3642 14.2947 21.6429 13.3896 21.5596C12.4623 21.436 11.6165 20.9648 11.0234 20.2414C10.4302 19.5179 10.1339 18.5962 10.1944 17.6626C10.3181 16.7475 10.7922 15.9162 11.5168 15.3437C12.2414 14.7713 13.1599 14.5026 14.0788 14.5941C14.1052 13.9947 14.2825 13.4118 14.5942 12.8992C14.9059 12.3867 15.342 11.9611 15.862 11.662C16.382 11.3629 16.9691 11.1999 17.5689 11.1881C18.1687 11.1764 18.7618 11.3162 19.2931 11.5947C19.8244 11.8732 20.2769 12.2814 20.6084 12.7813C20.94 13.2813 21.14 13.8568 21.1899 14.4547C21.2397 15.0525 21.1379 15.6532 20.8937 16.2012C20.6495 16.7492 20.271 17.2266 19.7931 17.5893L24.8267 23.5865" stroke="white" stroke-width="3" stroke-linecap="round" stroke-linejoin="round"/>
<path d="M41.8658 34.3965C41.5796 32.1942 39.6903 30.1607 38.0661 28.646C36.4419 27.1314 34.3403 26.2306 32.1234 26.0987C31.1479 25.9998 30.2033 25.7007 29.3486 25.22C28.494 24.7394 27.7477 24.0875 27.1565 23.3053L26.231 22.3185L18.8546 28.3666L19.9832 29.885C21.228 31.2593 21.8766 33.0712 21.7867 34.9231" stroke="white" stroke-width="3" stroke-linecap="round" stroke-linejoin="round"/>
<path d="M4.53223 40.4067H66V46.2395C66 52.0107 63.7074 57.5456 59.6265 61.6265C55.5457 65.7074 50.0108 68 44.2395 68H26.2927C20.5215 68 14.9866 65.7074 10.9057 61.6265C6.82484 57.5456 4.53223 52.0107 4.53223 46.2395V40.4067Z" stroke="white" stroke-width="3" stroke-linecap="round" stroke-linejoin="round"/>
<path d="M59.6797 17.9956C59.6797 17.9956 62.0128 16.1262 61.9261 14.547C61.8408 12.9952 59.3037 12.9151 59.3989 11.3637C59.4763 10.1013 61.3645 8.71094 61.3645 8.71094" stroke="white" stroke-width="3" stroke-linecap="round" stroke-linejoin="round"/>
<path d="M4.24881 28.1244C4.24881 28.1244 1.91562 26.085 2.0024 24.3623C2.08768 22.6693 4.62478 22.5819 4.52962 20.8895C4.45218 19.5123 2.564 17.9956 2.564 17.9956" stroke="white" stroke-width="3" stroke-linecap="round" stroke-linejoin="round"/>
<path d="M32.9469 12.0873C32.9469 12.0873 30.6137 10.0479 30.7005 8.32514C30.7858 6.6322 33.3229 6.54481 33.2277 4.85243C33.1503 3.47521 31.2621 1.9585 31.2621 1.9585" stroke="white" stroke-width="3" stroke-linecap="round" stroke-linejoin="round"/>
</svg>
