<svg width="64" height="68" viewBox="0 0 64 68" fill="none" xmlns="http://www.w3.org/2000/svg">
<path d="M5.01282 37.2969C5.01282 44.8538 8.0148 52.1013 13.3584 57.4449C18.702 62.7884 25.9494 65.7904 33.5064 65.7904C41.0633 65.7904 48.3108 62.7884 53.6543 57.4449C58.9979 52.1013 61.9999 44.8538 61.9999 37.2969H5.01282Z" stroke="white" stroke-width="3.53226" stroke-linecap="round" stroke-linejoin="round"/>
<path d="M10.8999 27.642C11.3172 24.597 12.8232 21.8062 15.1393 19.7858C17.4554 17.7655 20.4248 16.6523 23.4983 16.6523C26.5718 16.6523 29.5412 17.7655 31.8573 19.7858C34.1734 21.8062 35.6794 24.597 36.0967 27.642" stroke="white" stroke-width="3.53226" stroke-linecap="round" stroke-linejoin="round"/>
<path d="M27.8549 15.1613C29.5645 13.2274 31.6673 11.6808 34.0227 10.625C36.3781 9.56911 38.9317 9.02831 41.5129 9.03872C43.945 9.03852 46.3528 9.52132 48.5968 10.4591C50.8407 11.3968 52.8761 12.7709 54.5848 14.5015C56.2936 16.2321 57.6416 18.2849 58.5507 20.5406C59.4598 22.7963 59.9119 25.2101 59.8807 27.642" stroke="white" stroke-width="3.53226" stroke-linecap="round" stroke-linejoin="round"/>
<path d="M33.9774 20.8129C35.8146 19.2502 38.1595 18.4128 40.571 18.458C43.2786 18.4573 45.879 19.5166 47.8155 21.4091C49.752 23.3016 50.8707 25.8769 50.9322 28.5839" stroke="white" stroke-width="3.53226" stroke-linecap="round" stroke-linejoin="round"/>
<path d="M19.6129 15.8678L5.24841 2.20972" stroke="white" stroke-width="3.53226" stroke-linecap="round" stroke-linejoin="round"/>
<path d="M11.8419 22.9323L3.59998 15.1614" stroke="white" stroke-width="3.53226" stroke-linecap="round" stroke-linejoin="round"/>
</svg>
