<svg width="67" height="67" viewBox="0 0 67 67" fill="none" xmlns="http://www.w3.org/2000/svg">
<path d="M29.7592 57.7518C24.2764 57.7058 18.93 56.0378 14.3936 52.9582C9.85726 49.8787 6.33391 45.5252 4.26761 40.4465C2.2013 35.3678 1.6845 29.7913 2.78232 24.4194C3.88015 19.0475 6.54347 14.1207 10.4367 10.26C14.3299 6.3992 19.2787 3.77719 24.6596 2.72436C30.0405 1.67153 35.6127 2.23496 40.6739 4.34368C45.7351 6.45241 50.0588 10.0121 53.1003 14.5741C56.1418 19.1361 57.765 24.3254 57.7652 29.8084" stroke="white" stroke-width="3" stroke-linecap="round" stroke-linejoin="round"/>
<path d="M29.7592 49.8168C25.8357 49.8168 22.0003 48.6533 18.738 46.4736C15.4757 44.2938 12.9331 41.1955 11.4316 37.5707C9.93016 33.9458 9.53732 29.9572 10.3028 26.1091C11.0682 22.261 12.9575 18.7262 15.7319 15.9519C18.5062 13.1776 22.0409 11.2882 25.889 10.5228C29.7371 9.75734 33.7258 10.1502 37.3507 11.6517C40.9755 13.1531 44.0737 15.6957 46.2535 18.958C48.4333 22.2203 49.6212 25.4327 49.6212 29.3562" stroke="white" stroke-width="3" stroke-linecap="round" stroke-linejoin="round"/>
<path d="M29.7591 2.20654V57.7518" stroke="white" stroke-width="3" stroke-linecap="round" stroke-linejoin="round"/>
<path d="M2.58026 29.8083L57.763 29.8083" stroke="white" stroke-width="3" stroke-linecap="round" stroke-linejoin="round"/>
<path d="M38.1609 38.6145H65C63.3663 53.3177 54.031 62.653 38.3943 65.4536L38.1609 38.6145Z" stroke="white" stroke-width="3" stroke-linejoin="round"/>
<path d="M46.096 48.6498C47.3849 48.6498 48.4298 47.605 48.4298 46.316C48.4298 45.0271 47.3849 43.9822 46.096 43.9822C44.807 43.9822 43.7621 45.0271 43.7621 46.316C43.7621 47.605 44.807 48.6498 46.096 48.6498Z" fill="white"/>
<path d="M21.8241 40.248C23.1131 40.248 24.158 39.2031 24.158 37.9142C24.158 36.6252 23.1131 35.5803 21.8241 35.5803C20.5352 35.5803 19.4903 36.6252 19.4903 37.9142C19.4903 39.2031 20.5352 40.248 21.8241 40.248Z" fill="white"/>
<path d="M21.8241 24.6113C23.1131 24.6113 24.158 23.5664 24.158 22.2774C24.158 20.9885 23.1131 19.9436 21.8241 19.9436C20.5352 19.9436 19.4903 20.9885 19.4903 22.2774C19.4903 23.5664 20.5352 24.6113 21.8241 24.6113Z" fill="white"/>
<path d="M38.1609 24.6113C39.4498 24.6113 40.4947 23.5664 40.4947 22.2774C40.4947 20.9885 39.4498 19.9436 38.1609 19.9436C36.8719 19.9436 35.827 20.9885 35.827 22.2774C35.827 23.5664 36.8719 24.6113 38.1609 24.6113Z" fill="white"/>
<path d="M65 38.6145C63.3663 53.3177 54.031 62.653 38.3943 65.4536" stroke="white" stroke-width="3" stroke-linejoin="round"/>
<path d="M58.6675 38.855C56.776 49.9573 49.4464 56.6187 37.8609 57.8523" stroke="white" stroke-width="3" stroke-linejoin="round"/>
</svg>
