<svg width="65" height="64" viewBox="0 0 65 64" fill="none" xmlns="http://www.w3.org/2000/svg">
<g id="salad">
<g id="dish 1">
<path id="Vector" d="M2 33.0364H63.2V38.8437C63.2 44.5898 60.9173 50.1005 56.8542 54.1636C52.7911 58.2267 47.2804 60.5094 41.5343 60.5094H23.6657C17.9196 60.5094 12.4088 58.2267 8.34572 54.1636C4.28263 50.1005 2 44.5898 2 38.8437V33.0364Z" stroke="white" stroke-width="3" stroke-linecap="round" stroke-linejoin="round"/>
<g id="Group">
<path id="Vector_2" d="M4.01031 6.90356H4.90366C8.99109 6.90356 12.9111 8.52729 15.8013 11.4175C18.6916 14.3078 20.3154 18.2278 20.3154 22.3152H19.4219C15.3345 22.3152 11.4145 20.6915 8.52422 17.8012C5.63398 14.911 4.01031 10.991 4.01031 6.90356Z" stroke="white" stroke-width="3" stroke-linejoin="round"/>
<path id="Vector_3" d="M26.5693 11.1475C26.9327 9.15526 27.9789 7.35191 29.5279 6.04749C31.0769 4.74307 33.0319 4.01905 35.0569 4C37.3493 4.05663 39.5323 4.99262 41.1538 6.61413C42.7753 8.23563 43.7112 10.4185 43.7679 12.711C43.7286 13.6193 43.5786 14.5193 43.3211 15.3912L46.0014 14.9446C48.2939 15.0012 50.4767 15.9371 52.0982 17.5586C53.7197 19.1801 54.6557 21.363 54.7123 23.6555" stroke="white" stroke-width="3" stroke-linecap="round" stroke-linejoin="round"/>
<path id="Vector_4" d="M42.8744 24.3254C40.5049 24.3254 38.2324 23.3841 36.5569 21.7086C34.8814 20.0331 33.9401 17.7606 33.9401 15.3911" stroke="white" stroke-width="3" stroke-linecap="round" stroke-linejoin="round"/>
</g>
</g>
</g>
</svg>
