<svg width="54" height="68" viewBox="0 0 54 68" fill="none" xmlns="http://www.w3.org/2000/svg">
<g id="french fries">
<path id="Vector" d="M26.9999 57.6523C31.8664 57.6523 35.8115 53.7072 35.8115 48.8407C35.8115 43.9741 31.8664 40.0291 26.9999 40.0291C22.1334 40.0291 18.1883 43.9741 18.1883 48.8407C18.1883 53.7072 22.1334 57.6523 26.9999 57.6523Z" stroke="white" stroke-width="3" stroke-linecap="round" stroke-linejoin="round"/>
<g id="Group">
<path id="Vector_2" d="M52.2754 24.7249L47.6377 66.0002H6.36229L1.72461 24.7249H12.1594C13.4245 26.6077 15.0867 28.1907 17.029 29.3625L18.1884 30.0582C20.8871 31.5516 23.9157 32.3486 27 32.377H27.2319C30.5191 32.3098 33.7258 31.3478 36.5072 29.5944C38.5981 28.3514 40.4131 26.6944 41.8406 24.7249H52.2754Z" stroke="white" stroke-width="3" stroke-linecap="round" stroke-linejoin="round"/>
<path id="Vector_3" d="M8.91296 24.7246V6.40576H18.1883V29.3623" stroke="white" stroke-width="3" stroke-linecap="round" stroke-linejoin="round"/>
<path id="Vector_4" d="M18.1883 30.058V2H27.2318V32.3768" stroke="white" stroke-width="3" stroke-linecap="round" stroke-linejoin="round"/>
<path id="Vector_5" d="M27.2319 32.3767V12.6665H36.5072V29.5941" stroke="white" stroke-width="3" stroke-linecap="round" stroke-linejoin="round"/>
<path id="Vector_6" d="M36.5072 29.5941V4.78247H45.7826V24.7245" stroke="white" stroke-width="3" stroke-linecap="round" stroke-linejoin="round"/>
</g>
</g>
</svg>
