<svg width="64" height="67" viewBox="0 0 64 67" fill="none" xmlns="http://www.w3.org/2000/svg">
<path d="M45.602 57.1729V65.3729H17.602V57.1729H17.802C13.564 54.7741 10.0476 51.2816 7.62015 47.0599C5.19269 42.8383 3.94315 38.0423 4.00199 33.1729H59.402C59.4192 38.0342 58.1521 42.8139 55.7288 47.0283C53.3055 51.2426 49.8121 54.7422 45.602 57.1729Z" stroke="white" stroke-width="3" stroke-linecap="round" stroke-linejoin="round"/>
<path d="M48.5596 22C48.5596 22 53.1667 17.9732 52.9953 14.5714C52.8269 11.2286 47.8173 11.056 48.0052 7.71429C48.1581 4.99487 51.8864 2 51.8864 2" stroke="white" stroke-width="3" stroke-linecap="round" stroke-linejoin="round"/>
<path d="M18.4404 22C18.4404 22 13.8333 18.5772 14.0047 15.6857C14.1731 12.8443 19.1827 12.6976 18.9948 9.85714C18.8419 7.54564 15.1136 5 15.1136 5" stroke="white" stroke-width="3" stroke-linecap="round" stroke-linejoin="round"/>
<path d="M34.6642 22C34.6642 22 31.9 19.5839 32.0028 17.5429C32.1038 15.5371 35.1096 15.4336 34.9969 13.4286C34.9052 11.7969 32.6682 10 32.6682 10" stroke="white" stroke-width="3" stroke-linecap="round" stroke-linejoin="round"/>
</svg>
