<svg width="68" height="68" viewBox="0 0 68 68" fill="none" xmlns="http://www.w3.org/2000/svg">
<path d="M36.9962 1.99976L14.9437 65.9999" stroke="white" stroke-width="3" stroke-linecap="round" stroke-linejoin="round"/>
<path d="M2 55.9326L66 33.8801" stroke="white" stroke-width="3" stroke-linecap="round" stroke-linejoin="round"/>
<path d="M46.824 38.6741C55.5613 38.6741 62.6443 31.5912 62.6443 22.8539C62.6443 14.1166 55.5613 7.03369 46.824 7.03369C38.0867 7.03369 31.0038 14.1166 31.0038 22.8539C31.0038 31.5912 38.0867 38.6741 46.824 38.6741Z" stroke="white" stroke-width="3" stroke-linecap="round" stroke-linejoin="round"/>
<path d="M46.8239 28.6068C50.0011 28.6068 52.5768 26.0311 52.5768 22.854C52.5768 19.6768 50.0011 17.1011 46.8239 17.1011C43.6467 17.1011 41.0712 19.6768 41.0712 22.854C41.0712 26.0311 43.6467 28.6068 46.8239 28.6068Z" stroke="white" stroke-width="3" stroke-linecap="round" stroke-linejoin="round"/>
</svg>
