<svg width="38" height="52" viewBox="0 0 38 52" fill="none" xmlns="http://www.w3.org/2000/svg">
<g id="upload">
<path id="Vector 147 (Stroke)" fill-rule="evenodd" clip-rule="evenodd" d="M6.66602 0.667724L14.666 0.667725L14.666 3.33439L6.66602 3.33439C4.45688 3.33439 2.66602 5.12525 2.66602 7.33439L2.66601 44.6677C2.66601 46.8769 4.45687 48.6677 6.66601 48.6677L14.666 48.6677L14.666 51.3344L6.66601 51.3344C2.98412 51.3344 -0.000653444 48.3496 -0.000653283 44.6677L-0.000651651 7.33439C-0.00065149 3.65249 2.98412 0.667724 6.66602 0.667724Z" fill="white"/>
<path id="Vector 148 (Stroke)" fill-rule="evenodd" clip-rule="evenodd" d="M36 27.3344L6.66667 27.3344L6.66667 24.6677L36 24.6677L36 27.3344Z" fill="white"/>
<path id="Vector 149 (Stroke)" fill-rule="evenodd" clip-rule="evenodd" d="M37.333 26.0013C37.333 26.4063 37.1489 26.7894 36.8326 27.0424L23.4993 37.7091L21.8334 35.6268L33.8653 26.0013L21.8334 16.3758L23.4993 14.2935L36.8326 24.9601C37.1489 25.2132 37.333 25.5962 37.333 26.0013Z" fill="white"/>
</g>
</svg>
