<svg width="56" height="52" viewBox="0 0 56 52" fill="none" xmlns="http://www.w3.org/2000/svg">
<g id="favorite">
<path id="Union (Stroke)" fill-rule="evenodd" clip-rule="evenodd" d="M49.0115 7.54211C43.5004 2.1964 34.7068 1.94237 28.8856 6.79055C28.6284 7.00475 28.3122 7.10676 27.999 7.09893C27.6859 7.10676 27.3697 7.00475 27.1125 6.79055C21.2912 1.94237 12.4976 2.1964 6.98654 7.54211C1.49436 12.8695 1.23979 21.334 6.2122 26.9514C6.26888 27.0154 6.31831 27.0834 6.36053 27.1544L27.999 48.1435L49.6375 27.1544C49.6797 27.0834 49.7292 27.0154 49.7858 26.9514C54.7582 21.334 54.5037 12.8695 49.0115 7.54211ZM52.0182 28.4471C57.6866 21.7673 57.2998 11.8666 50.8682 5.62799C44.6218 -0.430899 34.8384 -0.937456 27.999 4.09897C21.1596 -0.937456 11.3762 -0.430899 5.12986 5.62799C-1.30181 11.8666 -1.68856 21.7673 3.97982 28.447C4.04714 28.5865 4.13887 28.7145 4.25223 28.8245L27.0707 50.9581C27.5879 51.4598 28.4101 51.4598 28.9274 50.9581L51.7458 28.8245C51.8592 28.7145 51.9509 28.5865 52.0182 28.4471Z" fill="white"/>
</g>
</svg>
