<svg width="46" height="55" viewBox="0 0 46 55" fill="none" xmlns="http://www.w3.org/2000/svg">
<g id="note 1">
<path id="Rectangle 103 (Stroke)" fill-rule="evenodd" clip-rule="evenodd" d="M0.5 5.33333C0.5 4.59695 1.09695 4 1.83333 4H44.5C45.2364 4 45.8333 4.59695 45.8333 5.33333V53.3333C45.8333 54.0697 45.2364 54.6667 44.5 54.6667H1.83333C1.09695 54.6667 0.5 54.0697 0.5 53.3333V5.33333ZM3.16667 6.66667V52H43.1667V6.66667H3.16667Z" fill="white"/>
<path id="Vector 291 (Stroke)" fill-rule="evenodd" clip-rule="evenodd" d="M13.8337 0V10.6667H11.167V0H13.8337Z" fill="white"/>
<path id="Vector 291 (Stroke)_2" fill-rule="evenodd" clip-rule="evenodd" d="M24.4997 0V10.6667H21.833V0H24.4997Z" fill="white"/>
<path id="Vector 291 (Stroke)_3" fill-rule="evenodd" clip-rule="evenodd" d="M35.1667 0V10.6667H32.5V0H35.1667Z" fill="white"/>
<path id="Vector 292 (Stroke)" fill-rule="evenodd" clip-rule="evenodd" d="M28.4997 22.6667H9.83301V20H28.4997V22.6667Z" fill="white"/>
<path id="Vector 292 (Stroke)_2" fill-rule="evenodd" clip-rule="evenodd" d="M37.833 33.3334H9.83301V30.6667H37.833V33.3334Z" fill="white"/>
<path id="Vector 292 (Stroke)_3" fill-rule="evenodd" clip-rule="evenodd" d="M31.1663 43.9999H9.83301V41.3333H31.1663V43.9999Z" fill="white"/>
</g>
</svg>
