<svg width="65" height="64" viewBox="0 0 65 64" fill="none" xmlns="http://www.w3.org/2000/svg">
<g id="Navigation / Map_Pin">
<g id="Vector">
<path d="M13.8335 26.4609C13.8335 39.3991 25.1521 50.0985 30.162 54.2006C30.879 54.7876 31.2418 55.0847 31.7767 55.2353C32.1932 55.3526 32.8063 55.3526 33.2228 55.2353C33.7587 55.0844 34.119 54.7903 34.8387 54.201C39.8486 50.0989 51.1666 39.4003 51.1666 26.4621C51.1666 21.5658 49.2001 16.8695 45.6994 13.4073C42.1987 9.94505 37.4511 8 32.5004 8C27.5497 8 22.8015 9.94534 19.3008 13.4076C15.8002 16.8698 13.8335 21.5646 13.8335 26.4609Z" stroke="white" stroke-width="3" stroke-linecap="round" stroke-linejoin="round"/>
<path d="M27.1668 24C27.1668 26.9455 29.5546 29.3333 32.5002 29.3333C35.4457 29.3333 37.8335 26.9455 37.8335 24C37.8335 21.0545 35.4457 18.6667 32.5002 18.6667C29.5546 18.6667 27.1668 21.0545 27.1668 24Z" stroke="white" stroke-width="3" stroke-linecap="round" stroke-linejoin="round"/>
</g>
</g>
</svg>
