<svg width="64" height="65" viewBox="0 0 64 65" fill="none" xmlns="http://www.w3.org/2000/svg">
<g id="User/Person">
<g id="Group 3749">
<path id="Ellipse 328 (Stroke)" fill-rule="evenodd" clip-rule="evenodd" d="M32.2356 3.05058C23.8124 3.05058 16.9839 9.879 16.9839 18.3023C16.9839 26.7256 23.8124 33.554 32.2356 33.554C40.6589 33.554 47.4873 26.7256 47.4873 18.3023C47.4873 9.879 40.6589 3.05058 32.2356 3.05058ZM13.9336 18.3023C13.9336 8.19435 22.1277 0.000244141 32.2356 0.000244141C42.3436 0.000244141 50.5377 8.19435 50.5377 18.3023C50.5377 28.4102 42.3436 36.6043 32.2356 36.6043C22.1277 36.6043 13.9336 28.4102 13.9336 18.3023Z" fill="white"/>
<path id="Ellipse 330" d="M60.8073 62.6671C60.8073 47.9394 48.0153 36.0002 32.2357 36.0002C16.456 36.0002 3.66406 47.9394 3.66406 62.6671" stroke="white" stroke-width="3" stroke-linecap="round"/>
</g>
</g>
</svg>
