<svg width="61" height="62" viewBox="0 0 61 62" fill="none" xmlns="http://www.w3.org/2000/svg">
<path fill-rule="evenodd" clip-rule="evenodd" d="M30.8581 2.92053C22.7933 2.92053 16.2555 9.45835 16.2555 17.5232C16.2555 25.588 22.7933 32.1258 30.8581 32.1258C38.9229 32.1258 45.4608 25.588 45.4608 17.5232C45.4608 9.45835 38.9229 2.92053 30.8581 2.92053ZM13.335 17.5232C13.335 7.84539 21.1804 0 30.8581 0C40.5359 0 48.3813 7.84539 48.3813 17.5232C48.3813 27.201 40.5359 35.0463 30.8581 35.0463C21.1804 35.0463 13.335 27.201 13.335 17.5232Z" fill="white"/>
<path d="M58.2143 59.9998C58.2143 45.8988 45.9668 34.4678 30.8586 34.4678C15.7505 34.4678 3.50293 45.8988 3.50293 59.9998" stroke="white" stroke-width="3.66509" stroke-linecap="round"/>
</svg>
