<svg width="28" height="26" viewBox="0 0 28 26" fill="none" xmlns="http://www.w3.org/2000/svg">
<g id="grid">
<path id="Rectangle 61 (Stroke)" fill-rule="evenodd" clip-rule="evenodd" d="M0.875 1.125C0.875 0.779822 1.15482 0.5 1.5 0.5H12.125C12.4702 0.5 12.75 0.779822 12.75 1.125V11.125C12.75 11.4702 12.4702 11.75 12.125 11.75H1.5C1.15482 11.75 0.875 11.4702 0.875 11.125V1.125ZM2.125 1.75V10.5H11.5V1.75H2.125Z" fill="white"/>
<path id="Rectangle 61 (Stroke)_2" fill-rule="evenodd" clip-rule="evenodd" d="M0.875 14.875C0.875 14.5298 1.15482 14.25 1.5 14.25H12.125C12.4702 14.25 12.75 14.5298 12.75 14.875V24.875C12.75 25.2202 12.4702 25.5 12.125 25.5H1.5C1.15482 25.5 0.875 25.2202 0.875 24.875V14.875ZM2.125 15.5V24.25H11.5V15.5H2.125Z" fill="white"/>
<path id="Rectangle 61 (Stroke)_3" fill-rule="evenodd" clip-rule="evenodd" d="M15.25 1.125C15.25 0.779822 15.5298 0.5 15.875 0.5H26.5C26.8452 0.5 27.125 0.779822 27.125 1.125V11.125C27.125 11.4702 26.8452 11.75 26.5 11.75H15.875C15.5298 11.75 15.25 11.4702 15.25 11.125V1.125ZM16.5 1.75V10.5H25.875V1.75H16.5Z" fill="white"/>
<path id="Rectangle 61 (Stroke)_4" fill-rule="evenodd" clip-rule="evenodd" d="M15.25 14.875C15.25 14.5298 15.5298 14.25 15.875 14.25H26.5C26.8452 14.25 27.125 14.5298 27.125 14.875V24.875C27.125 25.2202 26.8452 25.5 26.5 25.5H15.875C15.5298 25.5 15.25 25.2202 15.25 24.875V14.875ZM16.5 15.5V24.25H25.875V15.5H16.5Z" fill="white"/>
</g>
</svg>
