<svg width="36" height="38" viewBox="0 0 36 38" fill="none" xmlns="http://www.w3.org/2000/svg">
<g id="Navigation / Map_Pin">
<g id="Vector">
<path d="M4.0752 15.1556C4.0752 24.5879 12.7158 32.388 16.5403 35.3786C17.0877 35.8065 17.3646 36.0231 17.773 36.1329C18.091 36.2184 18.559 36.2184 18.8769 36.1329C19.2861 36.0229 19.5611 35.8085 20.1105 35.3789C23.9351 32.3883 32.5752 24.5887 32.5752 15.1564C32.5752 11.5869 31.0739 8.16312 28.4015 5.63907C25.7291 3.11502 22.1048 1.69702 18.3254 1.69702C14.5461 1.69702 10.9214 3.11523 8.24895 5.63928C5.57654 8.16333 4.0752 11.586 4.0752 15.1556Z" stroke="white" stroke-width="2" stroke-linecap="round" stroke-linejoin="round"/>
<path d="M14.2538 13.3615C14.2538 15.5088 16.0767 17.2496 18.3253 17.2496C20.5739 17.2496 22.3967 15.5088 22.3967 13.3615C22.3967 11.2141 20.5739 9.47333 18.3253 9.47333C16.0767 9.47333 14.2538 11.2141 14.2538 13.3615Z" stroke="white" stroke-width="2" stroke-linecap="round" stroke-linejoin="round"/>
</g>
</g>
</svg>
