<svg width="32" height="30" viewBox="0 0 32 30" fill="none" xmlns="http://www.w3.org/2000/svg">
<g id="Frame 4532">
<g id="Group 3748">
<g id="Group 3745">
<path id="Ellipse 329" d="M0.952148 22.6961C0.952148 19.1333 3.74512 16.2451 7.19042 16.2451C8.66569 16.2451 10.0213 16.7747 11.0893 17.66" stroke="white" stroke-width="0.926024" stroke-linecap="round"/>
<g id="user">
<path id="Ellipse 328 (Stroke)" fill-rule="evenodd" clip-rule="evenodd" d="M7.40337 8.71534C5.42801 8.71534 3.82667 10.3167 3.82667 12.292C3.82667 14.2674 5.42801 15.8687 7.40337 15.8687C9.37873 15.8687 10.9801 14.2674 10.9801 12.292C10.9801 10.3167 9.37873 8.71534 7.40337 8.71534ZM3.11133 12.292C3.11133 9.92161 5.03294 8 7.40337 8C9.7738 8 11.6954 9.92161 11.6954 12.292C11.6954 14.6625 9.7738 16.5841 7.40337 16.5841C5.03294 16.5841 3.11133 14.6625 3.11133 12.292Z" fill="white"/>
</g>
</g>
<g id="Group 3746">
<path id="Ellipse 329_2" d="M31.0479 22.6961C31.0479 19.1333 28.2549 16.2451 24.8096 16.2451C23.3343 16.2451 21.9787 16.7747 20.9107 17.66" stroke="white" stroke-width="0.926024" stroke-linecap="round"/>
<g id="user_2">
<path id="Ellipse 328 (Stroke)_2" fill-rule="evenodd" clip-rule="evenodd" d="M24.5966 8.71534C26.572 8.71534 28.1733 10.3167 28.1733 12.292C28.1733 14.2674 26.572 15.8687 24.5966 15.8687C22.6213 15.8687 21.0199 14.2674 21.0199 12.292C21.0199 10.3167 22.6213 8.71534 24.5966 8.71534ZM28.8887 12.292C28.8887 9.92161 26.9671 8 24.5966 8C22.2262 8 20.3046 9.92161 20.3046 12.292C20.3046 14.6625 22.2262 16.5841 24.5966 16.5841C26.9671 16.5841 28.8887 14.6625 28.8887 12.292Z" fill="white"/>
</g>
</g>
<g id="Group 3747">
<g id="user_3">
<path id="Ellipse 328 (Stroke)_3" fill-rule="evenodd" clip-rule="evenodd" d="M16.1573 8.71534C14.1819 8.71534 12.5806 10.3167 12.5806 12.292C12.5806 14.2674 14.1819 15.8687 16.1573 15.8687C18.1326 15.8687 19.734 14.2674 19.734 12.292C19.734 10.3167 18.1326 8.71534 16.1573 8.71534ZM11.8652 12.292C11.8652 9.92161 13.7868 8 16.1573 8C18.5277 8 20.4493 9.92161 20.4493 12.292C20.4493 14.6625 18.5277 16.5841 16.1573 16.5841C13.7868 16.5841 11.8652 14.6625 11.8652 12.292Z" fill="white"/>
</g>
<path id="Ellipse 330" d="M23.0695 22.6961C23.0695 19.1333 19.9751 16.2451 16.1578 16.2451C12.3406 16.2451 9.24609 19.1333 9.24609 22.6961" stroke="white" stroke-width="0.926024" stroke-linecap="round"/>
</g>
</g>
</g>
</svg>
