<svg width="30" height="30" viewBox="0 0 30 30" fill="none" xmlns="http://www.w3.org/2000/svg">
<g id="Frame 4529">
<g id="Group 3743">
<path id="Vector" d="M28.7663 6.61738C28.5771 6.33572 28.1906 6 27.4247 6C27.368 6 27.3087 6.00176 27.2487 6.00549C26.6074 6.0446 25.9872 6.25311 25.4049 6.62529C24.8183 7.00012 24.2602 7.53863 23.6991 8.27158C23.479 8.55896 23.3451 8.79163 23.2474 8.96169C23.2307 8.99069 23.2065 9.03287 23.1843 9.06978C23.0923 9.06561 22.956 9.05572 22.8633 9.04605C22.8354 9.0432 22.8071 9.0399 22.7781 9.03661C22.5599 9.01178 22.2804 8.98036 21.9638 9.03485C21.74 8.83513 21.404 8.69891 20.9787 8.64003C20.4685 8.5695 19.9052 8.62136 19.4719 8.77911C18.2962 9.20666 17.3308 9.90336 16.5201 10.9085C15.8203 11.7764 15.3222 12.7576 14.8404 13.7068C14.1404 15.0859 13.4793 16.3883 12.2887 17.1729C10.1863 18.5582 7.63613 18.8644 5.29249 18.0133C4.08409 17.5745 2.88623 16.7089 2.27983 16.2319C2.00651 16.017 1.63015 16.0047 1.34365 16.2013C1.05715 16.3978 0.933231 16.753 1.0354 17.085C1.46691 18.4894 2.60039 21.076 5.34149 22.6206C7.38215 23.7703 9.50191 24.3482 11.623 24.3482C13.1772 24.3482 14.7323 24.0377 16.2569 23.4148C17.9388 22.7276 19.7158 21.6389 21.2603 20.3495C22.9571 18.933 24.333 17.3188 25.2393 15.6819C25.8222 14.6291 26.005 13.5962 25.7409 12.8483C25.6185 12.5016 25.4071 12.2237 25.1215 12.0293C25.1993 11.7019 25.1964 11.3416 25.0547 11.0111C24.9569 10.7831 24.9519 10.6576 25.0343 10.4948C25.3129 9.94467 25.6528 9.48108 26.4855 8.87204C26.8357 8.61586 27.2505 8.56203 27.5368 8.56203C27.7881 8.56203 27.9725 8.60334 27.9909 8.60751L28.6103 8.76966L28.8542 8.17271C28.9146 8.02462 29.1945 7.25388 28.7671 6.61738H28.7663ZM24.3349 15.1814C22.4487 18.5885 18.722 21.2914 15.8654 22.4587C12.5631 23.8079 9.09918 23.5526 5.8477 21.7207C3.84328 20.5914 2.80472 18.8181 2.28576 17.5264C3.03146 18.0577 3.96984 18.6315 4.93964 18.9837C6.15749 19.426 7.48497 19.5967 8.77862 19.4774C10.236 19.343 11.6078 18.8578 12.8564 18.035C14.2758 17.1 15.0307 15.6125 15.7608 14.1741C16.704 12.3158 17.5949 10.5605 19.8245 9.74934C20.0702 9.65992 20.407 9.62301 20.7256 9.65048C20.9057 9.66607 21.0422 9.69925 21.1351 9.73243C21.0371 9.89765 20.9573 10.1057 20.9413 10.3078C20.8939 10.9046 21.2441 11.855 21.9865 12.4419C22.1541 12.5744 22.3235 12.686 22.4898 12.7739C22.7348 12.9033 23.5813 13.3122 24.188 13.1357C24.3547 13.0872 24.4949 13.0208 24.6076 12.9373C24.6775 13.003 24.7293 13.087 24.7665 13.1922C24.9299 13.6549 24.7687 14.3986 24.3352 15.1819L24.3349 15.1814ZM27.9564 7.55554C27.8417 7.54126 27.698 7.5294 27.5357 7.5294C27.0956 7.5294 26.4501 7.61772 25.8749 8.03847C24.8205 8.80965 24.4046 9.45054 24.1122 10.0282C23.8193 10.6064 23.9676 11.0984 24.1047 11.418C24.2 11.6402 24.0849 11.9581 23.9729 12.1128L23.9748 12.1143C23.974 12.1156 23.9731 12.1169 23.972 12.1183C23.9575 12.1246 23.9344 12.1336 23.9006 12.1437C23.8059 12.1642 23.4262 12.1009 22.9721 11.861C22.8614 11.8023 22.7449 11.7252 22.6265 11.6316C22.1693 11.2704 21.9485 10.668 21.9704 10.3905C21.9746 10.3527 22.015 10.2663 22.041 10.2318C22.0954 10.176 22.1407 10.1136 22.1763 10.0471C22.3358 10.026 22.4951 10.044 22.6612 10.0627C22.6933 10.0664 22.7245 10.0699 22.7552 10.073C22.8813 10.0862 23.1252 10.1044 23.2557 10.1044C23.3155 10.1044 23.372 10.0998 23.4238 10.0906C23.8305 10.0187 23.9751 9.76736 24.1423 9.47647C24.235 9.31542 24.34 9.13284 24.5186 8.89951C25.4465 7.68803 26.3339 7.09613 27.3116 7.03637C27.3507 7.03395 27.3887 7.03285 27.4245 7.03285C27.6743 7.03285 27.8371 7.0869 27.9087 7.19346C27.9738 7.29013 27.9749 7.43229 27.9562 7.55576L27.9564 7.55554Z" fill="white"/>
<path id="Vector_2" d="M18.9939 10.6992L18.9856 10.7058L18.9669 10.7207L18.9522 10.733L18.9236 10.7569L18.8702 10.8033C18.8346 10.8341 18.8019 10.8648 18.7676 10.8956C18.7013 10.9575 18.636 11.0195 18.5732 11.0828C18.5088 11.1452 18.4488 11.2104 18.3869 11.2744C18.3269 11.3396 18.2669 11.4049 18.2083 11.471C17.9751 11.7366 17.7565 12.0128 17.5564 12.3015C17.3564 12.5902 17.1719 12.889 17.0038 13.1964C16.9625 13.2737 16.9234 13.3522 16.8832 13.4299L16.8234 13.5466L16.7685 13.6604L16.5514 14.1143C16.2643 14.7172 15.978 15.3106 15.6526 15.8782C15.5717 16.0203 15.4876 16.1598 15.4019 16.2987C15.3149 16.4362 15.2268 16.5731 15.1341 16.7065C14.9495 16.9736 14.7531 17.2322 14.54 17.4757C14.3273 17.7195 14.0999 17.95 13.8565 18.1631C13.7949 18.2154 13.7334 18.2679 13.6708 18.3191L13.5755 18.3943L13.5278 18.4318C13.5117 18.4441 13.4953 18.4558 13.479 18.4679C13.4137 18.5156 13.3492 18.5648 13.2817 18.6096L13.1813 18.6784C13.1475 18.701 13.1125 18.7232 13.0783 18.7456C12.5257 19.102 11.9402 19.4117 11.3322 19.6734C11.1802 19.7389 11.0268 19.8015 10.8724 19.8608C10.7179 19.9186 10.5626 19.9746 10.4048 20.0234C10.0895 20.1223 9.76811 20.2042 9.44184 20.2644C9.11557 20.3249 8.78513 20.3659 8.45271 20.3877C8.12029 20.4094 7.78611 20.409 7.45215 20.3914C7.78413 20.4303 8.11919 20.4525 8.4549 20.4521C8.79062 20.4519 9.12678 20.4316 9.46139 20.3919C9.79601 20.3521 10.1287 20.2901 10.4571 20.2097C10.6217 20.1702 10.7843 20.1232 10.9466 20.074C11.1077 20.0236 11.2678 19.97 11.4269 19.9133C12.0634 19.6866 12.6837 19.4082 13.2775 19.0773C13.3147 19.0565 13.3518 19.0363 13.3887 19.0147L13.4999 18.9488C13.5746 18.9058 13.6464 18.8581 13.7191 18.8117C13.7372 18.8001 13.7556 18.7887 13.7734 18.7766L13.8266 18.7399L13.9331 18.6665C14.0034 18.6164 14.0724 18.5645 14.1419 18.5131C14.4158 18.3027 14.6744 18.0724 14.9177 17.8274C15.1613 17.5827 15.3874 17.3216 15.6007 17.0521C15.708 16.9174 15.8099 16.7794 15.9107 16.6405C16.0101 16.5008 16.1078 16.3602 16.2016 16.2174C16.5793 15.6472 16.9131 15.0549 17.2393 14.4705L17.4837 14.0344L17.5447 13.926L17.606 13.8232C17.6471 13.7549 17.6871 13.6861 17.7288 13.6184C17.8996 13.3495 18.0839 13.09 18.281 12.8411C18.4781 12.5922 18.6912 12.3567 18.914 12.1334C18.97 12.0781 19.0269 12.0238 19.0836 11.9695C19.1416 11.917 19.1985 11.8627 19.2576 11.8124C19.3158 11.7608 19.3751 11.7114 19.4345 11.6628C19.4639 11.6397 19.494 11.6149 19.523 11.5929L19.5665 11.56L19.5869 11.545L19.5968 11.538L19.603 11.5338C19.6146 11.5261 19.6269 11.5171 19.6379 11.5084C19.8613 11.3306 19.8983 11.0054 19.7205 10.782C19.5428 10.5585 19.2176 10.5216 18.9942 10.6994L18.9939 10.6992Z" fill="white"/>
</g>
</g>
</svg>
