<svg width="21" height="22" viewBox="0 0 21 22" fill="none" xmlns="http://www.w3.org/2000/svg">
<g id="time">
<path id="Ellipse 47 (Stroke)" fill-rule="evenodd" clip-rule="evenodd" d="M10.5 1.5C5.25329 1.5 1 5.75329 1 11C1 16.2467 5.25329 20.5 10.5 20.5C15.7467 20.5 20 16.2467 20 11C20 5.75329 15.7467 1.5 10.5 1.5ZM0 11C0 5.20101 4.70101 0.5 10.5 0.5C16.299 0.5 21 5.20101 21 11C21 16.799 16.299 21.5 10.5 21.5C4.70101 21.5 0 16.799 0 11Z" fill="white"/>
<path id="Vector 450" d="M10 5V12C10 12.5523 10.4477 13 11 13H15" stroke="white" stroke-linecap="round"/>
</g>
</svg>
