<svg width="30" height="30" viewBox="0 0 30 30" fill="none" xmlns="http://www.w3.org/2000/svg">
<g id="Frame 4530">
<path id="Vector" d="M23.1356 13.17C20.2878 10.7336 17.5984 8.432 16.9842 4.22273C16.9638 4.08388 16.868 3.96816 16.7353 3.92222C16.6026 3.8761 16.4559 3.90833 16.3542 4.00502L15.4567 4.85891L14.4089 3.17667C14.3183 3.0313 14.1407 2.96616 13.9778 3.01724C13.8145 3.06884 13.7068 3.22433 13.7162 3.39559C13.7171 3.4117 13.7973 5.03719 13.1266 6.64845C12.3265 8.56949 12.1366 9.02566 7.19696 13.5661C4.35429 16.1791 3.38114 19.1635 4.38275 22.1966C4.96301 23.9535 6.12849 25.2552 7.8475 26.0655C9.36696 26.7818 11.1172 26.9998 12.6077 26.9998C13.9226 26.9998 15.0334 26.8301 15.6065 26.6837C15.7496 26.6983 15.9557 26.7285 16.1579 26.7585C16.822 26.8572 17.7822 27 18.8595 27C20.3941 27 22.1661 26.7103 23.6579 25.5914C25.5123 24.2009 26.5273 22.3733 26.5938 20.306C26.6902 17.3084 24.8706 14.6544 23.1358 13.1701L23.1356 13.17ZM5.09517 21.9615C4.17962 19.1899 5.0578 16.5516 7.70453 14.1183C12.6104 9.60921 12.9323 9.06595 13.8186 6.93697C14.1708 6.09097 14.3349 5.25114 14.4098 4.59731L14.9868 5.52336C14.8492 6.27491 14.4947 8.09703 13.7723 10.0122C13.2885 11.295 12.776 12.3432 12.2803 13.3566C11.219 15.5268 10.3022 17.4005 10.3022 20.4468C10.3022 22.9903 11.5596 24.5748 12.3089 25.2926C12.3949 25.375 12.4834 25.4532 12.5727 25.5291C10.9336 25.0893 9.03784 24.1635 8.14439 22.2116C7.40506 20.5973 7.73007 18.476 9.05944 16.2387C9.79277 15.0048 11.0747 13.1598 10.914 13.029C10.7536 12.8988 9.17669 14.5736 8.41472 15.8556C6.9556 18.3113 6.61738 20.6798 7.46249 22.5242C8.37907 24.5261 10.3096 25.6848 12.3181 26.2476C10.9948 26.221 9.4825 26.0076 8.16719 25.3874C6.64155 24.6677 5.60789 23.5154 5.095 21.9615H5.09517ZM23.2078 24.9917C21.557 26.2298 19.4629 26.3319 17.8574 26.2085C19.5368 25.7229 21.5534 24.8498 22.4264 23.5382C24.4945 20.431 23.3509 17.1953 21.8674 14.882C21.0316 13.5785 19.165 11.8945 19.0196 12.0421C18.8741 12.1897 20.445 14.049 21.2421 15.295C22.6057 17.4262 23.6415 20.3588 21.8018 23.1226C21.1274 24.1359 19.502 24.9046 18.0268 25.3785C19.278 24.1097 20.1802 22.0042 20.0802 19.4655C19.9736 16.7511 19.1453 14.7483 18.2796 13.1177C18.0323 12.6517 16.4521 10.1338 16.2661 10.2258C16.0808 10.3182 17.3836 13.028 17.6251 13.4826C18.4671 15.0667 19.2295 16.9263 19.3308 19.4952C19.4722 23.0914 17.4666 25.4875 15.7824 25.8727C15.7296 25.8694 15.6757 25.8763 15.6235 25.8969C15.6133 25.9006 15.6003 25.9049 15.589 25.9085C15.5268 25.9173 15.4651 25.9236 15.404 25.9265C15.3418 25.9262 15.234 25.9243 15.09 25.9181C14.3572 25.8461 13.5314 25.4253 12.8276 24.751C12.1645 24.1159 11.052 22.7115 11.052 20.447C11.052 17.5748 11.8913 15.8587 12.9541 13.6863C13.4574 12.657 13.978 11.5928 14.4741 10.2771C15.2273 8.27943 15.5905 6.39011 15.7285 5.63599L16.3643 5.03102C17.1949 9.07435 19.8476 11.3444 22.6481 13.7403C24.6616 15.463 25.9164 18.0312 25.844 20.2826C25.7844 22.1403 24.8975 23.7247 23.2078 24.9921V24.9917Z" fill="white"/>
</g>
</svg>
