<svg width="24" height="25" viewBox="0 0 24 25" fill="none" xmlns="http://www.w3.org/2000/svg">
<path fill-rule="evenodd" clip-rule="evenodd" d="M12.0884 1.14388C8.92963 1.14388 6.36898 3.70453 6.36898 6.86327C6.36898 10.022 8.92963 12.5827 12.0884 12.5827C15.2471 12.5827 17.8078 10.022 17.8078 6.86327C17.8078 3.70453 15.2471 1.14388 12.0884 1.14388ZM5.2251 6.86327C5.2251 3.07279 8.29789 0 12.0884 0C15.8788 0 18.9516 3.07279 18.9516 6.86327C18.9516 10.6537 15.8788 13.7265 12.0884 13.7265C8.29789 13.7265 5.2251 10.6537 5.2251 6.86327Z" fill="white"/>
<path d="M22.8027 23.5001C22.8027 17.9772 18.0058 13.5 12.0884 13.5C6.171 13.5 1.37402 17.9772 1.37402 23.5001" stroke="white" stroke-width="1.4355" stroke-linecap="round"/>
</svg>
