<svg width="200" height="78" viewBox="0 0 200 78" fill="none" xmlns="http://www.w3.org/2000/svg">
<g clip-path="url(#clip0_817_3715)">
<path d="M9.65949 0.23584H18.902V27.3147H18.9715L27.9361 0.23584H36.6227V35.7112H28.2835V10.3817L19.8749 35.7112H10.5629V10.3817L3.54413 35.7112H0L9.65949 0.23584Z" fill="white"/>
<path d="M56.5671 35.7112H53.7179C51.2856 35.7112 49.3398 35.6412 47.7415 35.4313C46.2127 35.2914 44.9618 34.9415 44.0584 34.3818C43.155 33.822 42.5295 33.0523 42.1126 32.1427C41.7651 31.1631 41.5566 29.9036 41.5566 28.3642C41.5566 26.7549 41.8346 25.4255 42.3211 24.5158C42.8075 23.5362 43.7109 22.8365 44.8923 22.4167C46.0737 21.9269 47.6025 21.647 49.4788 21.5071C51.3551 21.3671 53.7179 21.2972 56.4281 21.2972V16.6091C56.3586 15.5595 56.0806 14.7199 55.5247 14.2301C54.9687 13.7403 53.8568 13.4604 52.189 13.4604C51.0771 13.4604 50.1737 13.6003 49.4788 13.8102C48.7839 14.0201 48.2974 14.37 47.95 14.7898C47.6025 15.2097 47.3245 15.6295 47.1161 16.1193C46.9771 16.6091 46.8381 17.0989 46.6991 17.5887H42.1821C42.2516 16.9589 42.46 16.2592 42.738 15.3496C43.016 14.44 43.5024 13.6003 44.1974 12.8306C44.8923 11.991 45.9347 11.3612 47.255 10.7315C48.5754 10.1717 50.3822 9.89185 52.5365 9.89185C54.8297 9.89185 56.7755 10.0318 58.2349 10.3816C59.6942 10.7315 60.8756 11.1513 61.7095 11.7811C62.5434 12.3408 63.0994 13.0405 63.4468 13.8802C63.7943 14.7199 63.9333 15.5595 64.0028 16.5391V35.6412L56.5671 35.7112ZM56.5671 24.8657C54.9687 24.8657 53.6484 24.9357 52.606 25.0056C51.5636 25.0756 50.7992 25.2855 50.1737 25.4954C49.6178 25.7053 49.2008 26.0552 48.9924 26.545C48.7839 27.0348 48.7144 27.5946 48.7144 28.3642C48.7144 29.2739 48.8534 29.9736 49.0619 30.5333C49.3398 31.0931 49.7568 31.443 50.3127 31.7229C50.9382 32.0027 51.7026 32.1427 52.745 32.2127C53.7874 32.2826 55.0382 32.2826 56.4976 32.2826V24.8657H56.5671Z" fill="white"/>
<path d="M91.0355 13.9501C91.0355 16.749 91.105 19.4778 91.105 22.0668C91.105 24.6557 91.105 26.9648 91.0355 28.9939C91.0355 31.373 91.0355 33.612 91.0355 35.7112H83.4608V13.9501H76.581V35.7811H69.1453V10.3816H91.0355C93.0508 10.3816 94.8576 10.4516 96.3864 10.5215C97.9152 10.5915 99.2356 10.8714 100.347 11.2212C101.459 11.5711 102.363 12.1309 103.058 12.9006C103.753 13.6702 104.378 14.6498 104.795 15.9093C105.212 17.1688 105.559 18.7781 105.698 20.5974C105.837 22.4866 105.976 24.7257 105.976 27.3846V34.5916C105.907 35.2214 105.907 35.5712 105.907 35.7112H98.3322V30.6732C98.3322 27.8744 98.2627 25.4954 98.1932 23.6062C98.1237 21.7169 97.9847 20.1076 97.7763 18.9181C97.5678 17.6586 97.2898 16.749 96.9423 16.0493C96.5949 15.3495 96.1084 14.8597 95.5525 14.5799C94.9966 14.23 94.3711 14.0901 93.6067 14.0201C92.9813 14.0201 92.0779 13.9501 91.0355 13.9501Z" fill="white"/>
<path d="M125.99 35.7112H123.141C120.709 35.7112 118.763 35.6412 117.165 35.4313C115.636 35.2914 114.385 34.9415 113.482 34.3818C112.578 33.822 111.953 33.0523 111.536 32.1427C111.188 31.1631 110.98 29.9036 110.98 28.3642C110.98 26.7549 111.258 25.4255 111.744 24.5158C112.231 23.5362 113.134 22.8365 114.316 22.4167C115.497 21.9269 117.026 21.647 118.902 21.5071C120.778 21.3671 123.141 21.2972 125.851 21.2972V16.6091C125.782 15.5595 125.504 14.7199 124.948 14.2301C124.392 13.7403 123.28 13.4604 121.612 13.4604C120.5 13.4604 119.597 13.6003 118.902 13.8102C118.207 14.0201 117.721 14.37 117.373 14.7898C117.026 15.2097 116.748 15.6295 116.539 16.1193C116.4 16.6091 116.261 17.0989 116.122 17.5887H111.605C111.675 16.9589 111.883 16.2592 112.161 15.3496C112.439 14.44 112.926 13.6003 113.621 12.8306C114.316 11.991 115.358 11.3612 116.678 10.7315C117.999 10.1717 119.805 9.89185 121.96 9.89185C124.253 9.89185 126.199 10.0318 127.658 10.3816C129.117 10.7315 130.299 11.1513 131.133 11.7811C131.967 12.3408 132.523 13.0405 132.87 13.8802C133.218 14.7199 133.357 15.5595 133.426 16.5391V35.6412L125.99 35.7112ZM125.99 24.8657C124.392 24.8657 123.072 24.9357 122.029 25.0056C120.987 25.0756 120.222 25.2855 119.597 25.4954C119.041 25.7053 118.624 26.0552 118.416 26.545C118.207 27.0348 118.138 27.5946 118.138 28.3642C118.138 29.2739 118.277 29.9736 118.485 30.5333C118.763 31.0931 119.18 31.443 119.736 31.7229C120.361 32.0027 121.126 32.1427 122.168 32.2127C123.211 32.2826 124.461 32.2826 125.921 32.2826V24.8657H125.99Z" fill="white"/>
<path d="M64.5587 45.8572V68.5978H59.1383C57.7484 68.5978 56.567 68.4579 55.6636 68.108C54.7602 67.8281 53.9958 67.3383 53.4399 66.7086C52.8839 66.0789 52.467 65.3092 52.2585 64.3995C52.05 63.4899 51.911 62.3704 51.911 61.1109C51.911 59.6415 52.05 58.382 52.2585 57.4724C52.467 56.4928 52.9534 55.7231 53.5093 55.1634C54.1348 54.6036 54.9687 54.1838 56.0111 53.9039C57.0535 53.624 58.3738 53.484 60.0417 53.484V45.8572H64.5587ZM60.0417 55.6531C59.2077 55.6531 58.5128 55.7931 58.0264 56.073C57.5399 56.3529 57.1925 56.7727 56.9145 57.2625C56.706 57.7523 56.4975 58.3121 56.428 59.0118C56.3585 59.7115 56.3585 60.4112 56.3585 61.1809C56.3585 61.9506 56.3585 62.6503 56.428 63.35C56.4975 63.9797 56.6365 64.5395 56.845 65.0293C57.0535 65.5191 57.4704 65.8689 57.9569 66.1488C58.4433 66.4287 59.1383 66.5687 60.0417 66.5687V55.6531Z" fill="white"/>
<path d="M72.1334 60.761V61.4608C72.1334 62.5803 72.2028 63.4899 72.2723 64.1896C72.3418 64.8893 72.4808 65.4491 72.6893 65.799C72.8978 66.1488 73.1757 66.4287 73.5232 66.5687C73.8707 66.7086 74.2876 66.7786 74.8436 66.7786C75.5385 66.7786 76.0249 66.7086 76.4419 66.6386C76.8589 66.5687 77.2063 66.3587 77.4148 66.1488C77.6233 65.9389 77.8318 65.659 77.9013 65.3092C77.9707 65.0293 78.0402 64.6794 78.0402 64.2596H80.4725C80.4725 64.7494 80.403 65.3092 80.264 65.8689C80.125 66.4287 79.847 66.9185 79.4996 67.4083C79.0826 67.8981 78.5267 68.248 77.8318 68.5978C77.0673 68.8777 76.0944 69.0876 74.9131 69.0876C73.4537 69.0876 72.2723 68.9477 71.2994 68.6678C70.3265 68.3879 69.6316 67.9681 69.0757 67.3383C68.5197 66.7086 68.1723 65.8689 67.9638 64.8194C67.7553 63.7698 67.6163 62.5103 67.6163 60.971C67.6163 59.5715 67.6858 58.382 67.8943 57.3325C68.1028 56.3529 68.3807 55.5132 68.8672 54.8835C69.3536 54.2537 70.0486 53.8339 70.8825 53.484C71.7859 53.2042 72.8978 53.0642 74.2876 53.0642C75.8165 53.0642 77.0673 53.2041 77.9013 53.554C78.7352 53.9039 79.4301 54.3937 79.847 55.0234C80.264 55.6531 80.4725 56.4928 80.542 57.4724C80.6115 58.452 80.6115 59.5715 80.542 60.831H72.1334V60.761ZM76.3029 58.6619C76.3029 57.9622 76.2334 57.4024 76.1639 56.9826C76.0944 56.5628 75.9555 56.2129 75.8165 55.933C75.6775 55.6531 75.469 55.5132 75.191 55.3733C74.9131 55.2333 74.6351 55.2333 74.2876 55.2333C73.9402 55.2333 73.6622 55.3033 73.4537 55.3733C73.1757 55.4432 72.9673 55.5832 72.8283 55.8631C72.6893 56.073 72.5503 56.4228 72.4113 56.9126C72.3418 57.3325 72.2029 57.9622 72.2029 58.7319H76.3029V58.6619Z" fill="white"/>
<path d="M109.59 77.2042H107.853C105.003 66.4286 102.154 55.7231 99.2355 44.9475C98.0542 49.2857 96.9423 53.6239 95.7609 57.9621C95.3439 58.5219 94.8575 59.0817 94.4405 59.6414C93.1202 54.7435 91.8693 49.8455 90.5489 45.0175C87.6997 55.793 84.8505 66.5686 81.9318 77.2742H81.0284C84.0166 65.9388 87.0743 54.6735 90.0625 43.3381C90.4795 42.7784 90.9659 42.2186 91.3829 41.6588C92.7032 46.5568 93.9541 51.3848 95.2745 56.2828C96.4558 51.9446 97.5677 47.6064 98.7491 43.2682C99.166 42.7084 99.6525 42.1486 100.069 41.5889C103.266 53.484 106.463 65.3791 109.59 77.2042Z" fill="white"/>
<path d="M112.787 44.6676C112.648 44.7376 112.439 44.9475 112.161 45.0175C112.092 44.8776 112.092 44.7376 112.022 44.5977C112.092 44.5277 112.439 44.3878 112.509 43.9679C112.509 43.898 112.509 43.898 112.509 43.828H112.439C111.953 43.828 111.605 43.4082 111.605 42.9883C111.605 42.5685 112.022 42.1487 112.439 42.1487C112.717 42.1487 112.926 42.2886 113.065 42.4286C113.204 42.6385 113.273 42.7784 113.273 42.8484C113.69 43.688 113.065 44.4577 112.787 44.6676Z" fill="white"/>
<path d="M133.009 42.1486V77.2042H131.341V63.6298C130.785 63.6998 130.229 63.7697 129.673 63.7697C128.7 63.7697 127.797 63.6298 126.894 63.4199L117.234 77.2042H115.497L125.504 62.9301C121.473 61.3207 118.624 57.3324 118.624 52.6443C118.624 46.5568 123.558 41.5889 129.604 41.5889C130.855 41.6588 131.967 41.7988 133.009 42.1486ZM131.341 62.7202V42.7084C130.785 42.5685 130.229 42.4985 129.673 42.4985C124.531 42.4985 120.361 47.0466 120.361 52.7143C120.361 58.382 124.531 62.9301 129.673 62.9301C130.229 62.9301 130.785 62.8601 131.341 62.7202Z" fill="white"/>
<path d="M164.35 72.5862L164.628 73.4958C163.308 74.6154 161.848 75.525 160.25 76.2247C158.026 77.2043 155.594 77.7641 153.023 77.7641C143.085 77.7641 135.094 69.7174 135.094 59.7115C135.094 49.7056 143.155 41.6589 153.023 41.6589C157.47 41.6589 161.501 43.2683 164.628 45.9272C164.281 46.347 163.864 46.7668 163.516 47.2566C156.845 41.449 146.977 41.519 140.931 47.6065C134.607 53.9739 134.885 64.6095 141.557 71.3267C146.977 76.7845 154.899 77.974 161.084 74.8953C162.196 74.2655 163.308 73.4958 164.35 72.5862Z" fill="white"/>
<path d="M200 59.7115C200 69.7174 191.939 77.7641 182.071 77.7641C172.133 77.7641 164.142 69.6474 164.142 59.7115C164.142 49.7756 172.203 41.6589 182.071 41.6589C192.008 41.6589 200 49.7056 200 59.7115ZM193.537 48.1663C186.866 41.449 176.303 41.1691 169.979 47.5365C163.655 53.9039 163.933 64.5395 170.605 71.2568C177.276 77.974 187.839 78.2539 194.163 71.8865C200.486 65.5191 200.208 54.8835 193.537 48.1663Z" fill="white"/>
<path d="M171.647 45.0174L163.169 33.1923L165.393 31.373L173.315 45.0174H171.647Z" fill="white"/>
<path d="M179.013 52.0844C177.832 52.7842 176.373 53.6938 175.4 54.2536L176.72 56.1428C177.832 55.513 179.222 54.8133 180.403 54.1136L179.013 52.0844ZM179.013 52.0844C177.832 52.7842 176.373 53.6938 175.4 54.2536L176.72 56.1428C177.832 55.513 179.222 54.8133 180.403 54.1136L179.013 52.0844ZM179.013 52.0844C177.832 52.7842 176.373 53.6938 175.4 54.2536L176.72 56.1428C177.832 55.513 179.222 54.8133 180.403 54.1136L179.013 52.0844ZM179.013 52.0844C177.832 52.7842 176.373 53.6938 175.4 54.2536L176.72 56.1428C177.832 55.513 179.222 54.8133 180.403 54.1136L179.013 52.0844ZM180.612 54.4635C179.43 55.1632 178.11 55.9329 176.928 56.5626L178.388 58.5918C179.639 58.032 180.959 57.3323 182.21 56.7025L180.612 54.4635ZM179.013 52.0844C177.832 52.7842 176.373 53.6938 175.4 54.2536L176.72 56.1428C177.832 55.513 179.222 54.8133 180.403 54.1136L179.013 52.0844ZM179.013 52.0844C177.832 52.7842 176.373 53.6938 175.4 54.2536L176.72 56.1428C177.832 55.513 179.222 54.8133 180.403 54.1136L179.013 52.0844ZM180.612 54.4635C179.43 55.1632 178.11 55.9329 176.928 56.5626L178.388 58.5918C179.639 58.032 180.959 57.3323 182.21 56.7025L180.612 54.4635ZM179.013 52.0844C177.832 52.7842 176.373 53.6938 175.4 54.2536L176.72 56.1428C177.832 55.513 179.222 54.8133 180.403 54.1136L179.013 52.0844ZM179.013 52.0844C177.832 52.7842 176.373 53.6938 175.4 54.2536L176.72 56.1428C177.832 55.513 179.222 54.8133 180.403 54.1136L179.013 52.0844ZM180.612 54.4635C179.43 55.1632 178.11 55.9329 176.928 56.5626L178.388 58.5918C179.639 58.032 180.959 57.3323 182.21 56.7025L180.612 54.4635ZM179.013 52.0844C177.832 52.7842 176.373 53.6938 175.4 54.2536L176.72 56.1428C177.832 55.513 179.222 54.8133 180.403 54.1136L179.013 52.0844ZM179.013 52.0844C177.832 52.7842 176.373 53.6938 175.4 54.2536L176.72 56.1428C177.832 55.513 179.222 54.8133 180.403 54.1136L179.013 52.0844ZM180.612 54.4635C179.43 55.1632 178.11 55.9329 176.928 56.5626L178.388 58.5918C179.639 58.032 180.959 57.3323 182.21 56.7025L180.612 54.4635ZM180.612 54.4635C179.43 55.1632 178.11 55.9329 176.928 56.5626L178.388 58.5918C179.639 58.032 180.959 57.3323 182.21 56.7025L180.612 54.4635ZM179.013 52.0844C177.832 52.7842 176.373 53.6938 175.4 54.2536L176.72 56.1428C177.832 55.513 179.222 54.8133 180.403 54.1136L179.013 52.0844ZM179.013 52.0844C177.832 52.7842 176.373 53.6938 175.4 54.2536L176.72 56.1428C177.832 55.513 179.222 54.8133 180.403 54.1136L179.013 52.0844ZM180.612 54.4635C179.43 55.1632 178.11 55.9329 176.928 56.5626L178.388 58.5918C179.639 58.032 180.959 57.3323 182.21 56.7025L180.612 54.4635ZM183.808 59.0116L182.418 56.9824L178.596 58.9416L179.986 60.9708C181.237 60.3411 182.627 59.6413 183.808 59.0116ZM180.612 54.4635C179.43 55.1632 178.11 55.9329 176.928 56.5626L178.388 58.5918C179.639 58.032 180.959 57.3323 182.21 56.7025L180.612 54.4635ZM179.013 52.0844C177.832 52.7842 176.373 53.6938 175.4 54.2536L176.72 56.1428C177.832 55.513 179.222 54.8133 180.403 54.1136L179.013 52.0844ZM179.013 52.0844C177.832 52.7842 176.373 53.6938 175.4 54.2536L176.72 56.1428C177.832 55.513 179.222 54.8133 180.403 54.1136L179.013 52.0844ZM180.612 54.4635C179.43 55.1632 178.11 55.9329 176.928 56.5626L178.388 58.5918C179.639 58.032 180.959 57.3323 182.21 56.7025L180.612 54.4635ZM183.808 59.0116L182.418 56.9824L178.596 58.9416L179.986 60.9708C181.237 60.3411 182.627 59.6413 183.808 59.0116ZM180.612 54.4635C179.43 55.1632 178.11 55.9329 176.928 56.5626L178.388 58.5918C179.639 58.032 180.959 57.3323 182.21 56.7025L180.612 54.4635ZM179.013 52.0844C177.832 52.7842 176.373 53.6938 175.4 54.2536L176.72 56.1428C177.832 55.513 179.222 54.8133 180.403 54.1136L179.013 52.0844ZM179.013 52.0844C177.832 52.7842 176.373 53.6938 175.4 54.2536L176.72 56.1428C177.832 55.513 179.222 54.8133 180.403 54.1136L179.013 52.0844ZM180.612 54.4635C179.43 55.1632 178.11 55.9329 176.928 56.5626L178.388 58.5918C179.639 58.032 180.959 57.3323 182.21 56.7025L180.612 54.4635ZM183.808 59.0116L182.418 56.9824L178.596 58.9416L179.986 60.9708C181.237 60.3411 182.627 59.6413 183.808 59.0116ZM180.612 54.4635C179.43 55.1632 178.11 55.9329 176.928 56.5626L178.388 58.5918C179.639 58.032 180.959 57.3323 182.21 56.7025L180.612 54.4635ZM179.013 52.0844C177.832 52.7842 176.373 53.6938 175.4 54.2536L176.72 56.1428C177.832 55.513 179.222 54.8133 180.403 54.1136L179.013 52.0844ZM179.013 52.0844C177.832 52.7842 176.373 53.6938 175.4 54.2536L176.72 56.1428C177.832 55.513 179.222 54.8133 180.403 54.1136L179.013 52.0844ZM180.612 54.4635C179.43 55.1632 178.11 55.9329 176.928 56.5626L178.388 58.5918C179.639 58.032 180.959 57.3323 182.21 56.7025L180.612 54.4635ZM183.808 59.0116L182.418 56.9824L178.596 58.9416L179.986 60.9708C181.237 60.3411 182.627 59.6413 183.808 59.0116ZM180.612 54.4635C179.43 55.1632 178.11 55.9329 176.928 56.5626L178.388 58.5918C179.639 58.032 180.959 57.3323 182.21 56.7025L180.612 54.4635ZM179.013 52.0844C177.832 52.7842 176.373 53.6938 175.4 54.2536L176.72 56.1428C177.832 55.513 179.222 54.8133 180.403 54.1136L179.013 52.0844ZM179.013 52.0844C177.832 52.7842 176.373 53.6938 175.4 54.2536L176.72 56.1428C177.832 55.513 179.222 54.8133 180.403 54.1136L179.013 52.0844ZM180.612 54.4635C179.43 55.1632 178.11 55.9329 176.928 56.5626L178.388 58.5918C179.639 58.032 180.959 57.3323 182.21 56.7025L180.612 54.4635ZM183.808 59.0116L182.418 56.9824L178.596 58.9416L179.986 60.9708C181.237 60.3411 182.627 59.6413 183.808 59.0116ZM183.947 59.2215L180.195 61.1807L181.584 63.2099C182.766 62.5801 184.086 61.8804 185.268 61.3206C184.712 60.411 184.225 59.6413 183.947 59.2215ZM183.808 59.0116L182.418 56.9824L178.596 58.9416L179.986 60.9708C181.237 60.3411 182.627 59.6413 183.808 59.0116ZM180.612 54.4635C179.43 55.1632 178.11 55.9329 176.928 56.5626L178.388 58.5918C179.639 58.032 180.959 57.3323 182.21 56.7025L180.612 54.4635ZM179.013 52.0844C177.832 52.7842 176.373 53.6938 175.4 54.2536L176.72 56.1428C177.832 55.513 179.222 54.8133 180.403 54.1136L179.013 52.0844ZM179.013 52.0844C177.832 52.7842 176.373 53.6938 175.4 54.2536L176.72 56.1428C177.832 55.513 179.222 54.8133 180.403 54.1136L179.013 52.0844ZM180.612 54.4635C179.43 55.1632 178.11 55.9329 176.928 56.5626L178.388 58.5918C179.639 58.032 180.959 57.3323 182.21 56.7025L180.612 54.4635ZM183.808 59.0116L182.418 56.9824L178.596 58.9416L179.986 60.9708C181.237 60.3411 182.627 59.6413 183.808 59.0116ZM183.947 59.2215L180.195 61.1807L181.584 63.2099C182.766 62.5801 184.086 61.8804 185.268 61.3206C184.712 60.411 184.225 59.6413 183.947 59.2215ZM183.808 59.0116L182.418 56.9824L178.596 58.9416L179.986 60.9708C181.237 60.3411 182.627 59.6413 183.808 59.0116ZM180.612 54.4635C179.43 55.1632 178.11 55.9329 176.928 56.5626L178.388 58.5918C179.639 58.032 180.959 57.3323 182.21 56.7025L180.612 54.4635ZM179.013 52.0844C177.832 52.7842 176.373 53.6938 175.4 54.2536L176.72 56.1428C177.832 55.513 179.222 54.8133 180.403 54.1136L179.013 52.0844ZM179.013 52.0844C177.832 52.7842 176.373 53.6938 175.4 54.2536L176.72 56.1428C177.832 55.513 179.222 54.8133 180.403 54.1136L179.013 52.0844ZM180.612 54.4635C179.43 55.1632 178.11 55.9329 176.928 56.5626L178.388 58.5918C179.639 58.032 180.959 57.3323 182.21 56.7025L180.612 54.4635ZM183.808 59.0116L182.418 56.9824L178.596 58.9416L179.986 60.9708C181.237 60.3411 182.627 59.6413 183.808 59.0116ZM183.947 59.2215L180.195 61.1807L181.584 63.2099C182.766 62.5801 184.086 61.8804 185.268 61.3206C184.712 60.411 184.225 59.6413 183.947 59.2215ZM183.808 59.0116L182.418 56.9824L178.596 58.9416L179.986 60.9708C181.237 60.3411 182.627 59.6413 183.808 59.0116ZM180.612 54.4635C179.43 55.1632 178.11 55.9329 176.928 56.5626L178.388 58.5918C179.639 58.032 180.959 57.3323 182.21 56.7025L180.612 54.4635ZM179.013 52.0844C177.832 52.7842 176.373 53.6938 175.4 54.2536L176.72 56.1428C177.832 55.513 179.222 54.8133 180.403 54.1136L179.013 52.0844ZM179.013 52.0844C177.832 52.7842 176.373 53.6938 175.4 54.2536L176.72 56.1428C177.832 55.513 179.222 54.8133 180.403 54.1136L179.013 52.0844ZM180.612 54.4635C179.43 55.1632 178.11 55.9329 176.928 56.5626L178.388 58.5918C179.639 58.032 180.959 57.3323 182.21 56.7025L180.612 54.4635ZM183.808 59.0116L182.418 56.9824L178.596 58.9416L179.986 60.9708C181.237 60.3411 182.627 59.6413 183.808 59.0116ZM183.947 59.2215L180.195 61.1807L181.584 63.2099C182.766 62.5801 184.086 61.8804 185.268 61.3206C184.712 60.411 184.225 59.6413 183.947 59.2215ZM183.808 59.0116L182.418 56.9824L178.596 58.9416L179.986 60.9708C181.237 60.3411 182.627 59.6413 183.808 59.0116ZM180.612 54.4635C179.43 55.1632 178.11 55.9329 176.928 56.5626L178.388 58.5918C179.639 58.032 180.959 57.3323 182.21 56.7025L180.612 54.4635ZM179.013 52.0844C177.832 52.7842 176.373 53.6938 175.4 54.2536L176.72 56.1428C177.832 55.513 179.222 54.8133 180.403 54.1136L179.013 52.0844ZM179.013 52.0844C177.832 52.7842 176.373 53.6938 175.4 54.2536L176.72 56.1428C177.832 55.513 179.222 54.8133 180.403 54.1136L179.013 52.0844ZM180.612 54.4635C179.43 55.1632 178.11 55.9329 176.928 56.5626L178.388 58.5918C179.639 58.032 180.959 57.3323 182.21 56.7025L180.612 54.4635ZM183.808 59.0116L182.418 56.9824L178.596 58.9416L179.986 60.9708C181.237 60.3411 182.627 59.6413 183.808 59.0116ZM183.947 59.2215L180.195 61.1807L181.584 63.2099C182.766 62.5801 184.086 61.8804 185.268 61.3206C184.712 60.411 184.225 59.6413 183.947 59.2215ZM183.947 59.2215L180.195 61.1807L181.584 63.2099C182.766 62.5801 184.086 61.8804 185.268 61.3206C184.712 60.411 184.225 59.6413 183.947 59.2215ZM183.808 59.0116L182.418 56.9824L178.596 58.9416L179.986 60.9708C181.237 60.3411 182.627 59.6413 183.808 59.0116ZM180.612 54.4635C179.43 55.1632 178.11 55.9329 176.928 56.5626L178.388 58.5918C179.639 58.032 180.959 57.3323 182.21 56.7025L180.612 54.4635ZM179.013 52.0844C177.832 52.7842 176.373 53.6938 175.4 54.2536L176.72 56.1428C177.832 55.513 179.222 54.8133 180.403 54.1136L179.013 52.0844ZM179.013 52.0844C177.832 52.7842 176.373 53.6938 175.4 54.2536L176.72 56.1428C177.832 55.513 179.222 54.8133 180.403 54.1136L179.013 52.0844ZM180.612 54.4635C179.43 55.1632 178.11 55.9329 176.928 56.5626L178.388 58.5918C179.639 58.032 180.959 57.3323 182.21 56.7025L180.612 54.4635ZM183.808 59.0116L182.418 56.9824L178.596 58.9416L179.986 60.9708C181.237 60.3411 182.627 59.6413 183.808 59.0116ZM183.947 59.2215L180.195 61.1807L181.584 63.2099C182.766 62.5801 184.086 61.8804 185.268 61.3206C184.712 60.411 184.225 59.6413 183.947 59.2215ZM183.947 59.2215L180.195 61.1807L181.584 63.2099C182.766 62.5801 184.086 61.8804 185.268 61.3206C184.712 60.411 184.225 59.6413 183.947 59.2215ZM183.808 59.0116L182.418 56.9824L178.596 58.9416L179.986 60.9708C181.237 60.3411 182.627 59.6413 183.808 59.0116ZM180.612 54.4635C179.43 55.1632 178.11 55.9329 176.928 56.5626L178.388 58.5918C179.639 58.032 180.959 57.3323 182.21 56.7025L180.612 54.4635ZM179.013 52.0844C177.832 52.7842 176.373 53.6938 175.4 54.2536L176.72 56.1428C177.832 55.513 179.222 54.8133 180.403 54.1136L179.013 52.0844ZM179.013 52.0844C177.832 52.7842 176.373 53.6938 175.4 54.2536L176.72 56.1428C177.832 55.513 179.222 54.8133 180.403 54.1136L179.013 52.0844ZM180.612 54.4635C179.43 55.1632 178.11 55.9329 176.928 56.5626L178.388 58.5918C179.639 58.032 180.959 57.3323 182.21 56.7025L180.612 54.4635ZM183.808 59.0116L182.418 56.9824L178.596 58.9416L179.986 60.9708C181.237 60.3411 182.627 59.6413 183.808 59.0116ZM183.947 59.2215L180.195 61.1807L181.584 63.2099C182.766 62.5801 184.086 61.8804 185.268 61.3206C184.712 60.411 184.225 59.6413 183.947 59.2215ZM183.947 59.2215L180.195 61.1807L181.584 63.2099C182.766 62.5801 184.086 61.8804 185.268 61.3206C184.712 60.411 184.225 59.6413 183.947 59.2215ZM183.808 59.0116L182.418 56.9824L178.596 58.9416L179.986 60.9708C181.237 60.3411 182.627 59.6413 183.808 59.0116ZM180.612 54.4635C179.43 55.1632 178.11 55.9329 176.928 56.5626L178.388 58.5918C179.639 58.032 180.959 57.3323 182.21 56.7025L180.612 54.4635ZM179.013 52.0844C177.832 52.7842 176.373 53.6938 175.4 54.2536L176.72 56.1428C177.832 55.513 179.222 54.8133 180.403 54.1136L179.013 52.0844ZM179.013 52.0844C177.832 52.7842 176.373 53.6938 175.4 54.2536L176.72 56.1428C177.832 55.513 179.222 54.8133 180.403 54.1136L179.013 52.0844ZM180.612 54.4635C179.43 55.1632 178.11 55.9329 176.928 56.5626L178.388 58.5918C179.639 58.032 180.959 57.3323 182.21 56.7025L180.612 54.4635ZM183.808 59.0116L182.418 56.9824L178.596 58.9416L179.986 60.9708C181.237 60.3411 182.627 59.6413 183.808 59.0116ZM183.947 59.2215L180.195 61.1807L181.584 63.2099C182.766 62.5801 184.086 61.8804 185.268 61.3206C184.712 60.411 184.225 59.6413 183.947 59.2215ZM183.947 59.2215L180.195 61.1807L181.584 63.2099C182.766 62.5801 184.086 61.8804 185.268 61.3206C184.712 60.411 184.225 59.6413 183.947 59.2215ZM183.808 59.0116L182.418 56.9824L178.596 58.9416L179.986 60.9708C181.237 60.3411 182.627 59.6413 183.808 59.0116ZM180.612 54.4635C179.43 55.1632 178.11 55.9329 176.928 56.5626L178.388 58.5918C179.639 58.032 180.959 57.3323 182.21 56.7025L180.612 54.4635ZM179.013 52.0844C177.832 52.7842 176.373 53.6938 175.4 54.2536L176.72 56.1428C177.832 55.513 179.222 54.8133 180.403 54.1136L179.013 52.0844ZM179.013 52.0844C177.832 52.7842 176.373 53.6938 175.4 54.2536L176.72 56.1428C177.832 55.513 179.222 54.8133 180.403 54.1136L179.013 52.0844ZM180.612 54.4635C179.43 55.1632 178.11 55.9329 176.928 56.5626L178.388 58.5918C179.639 58.032 180.959 57.3323 182.21 56.7025L180.612 54.4635ZM183.808 59.0116L182.418 56.9824L178.596 58.9416L179.986 60.9708C181.237 60.3411 182.627 59.6413 183.808 59.0116ZM183.947 59.2215L180.195 61.1807L181.584 63.2099C182.766 62.5801 184.086 61.8804 185.268 61.3206C184.712 60.411 184.225 59.6413 183.947 59.2215ZM185.685 61.8804C184.503 62.4402 183.183 63.1399 181.932 63.6997L183.252 65.5889C184.364 65.0991 185.824 64.4694 187.005 63.9096C186.588 63.2798 186.171 62.5801 185.685 61.8804ZM185.685 61.8804C184.503 62.4402 183.183 63.1399 181.932 63.6997L183.252 65.5889C184.364 65.0991 185.824 64.4694 187.005 63.9096C186.588 63.2798 186.171 62.5801 185.685 61.8804ZM183.947 59.2215L180.195 61.1807L181.584 63.2099C182.766 62.5801 184.086 61.8804 185.268 61.3206C184.712 60.411 184.225 59.6413 183.947 59.2215ZM183.808 59.0116L182.418 56.9824L178.596 58.9416L179.986 60.9708C181.237 60.3411 182.627 59.6413 183.808 59.0116ZM180.612 54.4635C179.43 55.1632 178.11 55.9329 176.928 56.5626L178.388 58.5918C179.639 58.032 180.959 57.3323 182.21 56.7025L180.612 54.4635ZM179.013 52.0844C177.832 52.7842 176.373 53.6938 175.4 54.2536L176.72 56.1428C177.832 55.513 179.222 54.8133 180.403 54.1136L179.013 52.0844ZM179.013 52.0844C177.832 52.7842 176.373 53.6938 175.4 54.2536L176.72 56.1428C177.832 55.513 179.222 54.8133 180.403 54.1136L179.013 52.0844ZM180.612 54.4635C179.43 55.1632 178.11 55.9329 176.928 56.5626L178.388 58.5918C179.639 58.032 180.959 57.3323 182.21 56.7025L180.612 54.4635ZM183.808 59.0116L182.418 56.9824L178.596 58.9416L179.986 60.9708C181.237 60.3411 182.627 59.6413 183.808 59.0116ZM183.947 59.2215L180.195 61.1807L181.584 63.2099C182.766 62.5801 184.086 61.8804 185.268 61.3206C184.712 60.411 184.225 59.6413 183.947 59.2215ZM185.685 61.8804C184.503 62.4402 183.183 63.1399 181.932 63.6997L183.252 65.5889C184.364 65.0991 185.824 64.4694 187.005 63.9096C186.588 63.2798 186.171 62.5801 185.685 61.8804ZM185.685 61.8804C184.503 62.4402 183.183 63.1399 181.932 63.6997L183.252 65.5889C184.364 65.0991 185.824 64.4694 187.005 63.9096C186.588 63.2798 186.171 62.5801 185.685 61.8804ZM183.947 59.2215L180.195 61.1807L181.584 63.2099C182.766 62.5801 184.086 61.8804 185.268 61.3206C184.712 60.411 184.225 59.6413 183.947 59.2215ZM183.808 59.0116L182.418 56.9824L178.596 58.9416L179.986 60.9708C181.237 60.3411 182.627 59.6413 183.808 59.0116ZM180.612 54.4635C179.43 55.1632 178.11 55.9329 176.928 56.5626L178.388 58.5918C179.639 58.032 180.959 57.3323 182.21 56.7025L180.612 54.4635ZM179.013 52.0844C177.832 52.7842 176.373 53.6938 175.4 54.2536L176.72 56.1428C177.832 55.513 179.222 54.8133 180.403 54.1136L179.013 52.0844ZM179.013 52.0844C177.832 52.7842 176.373 53.6938 175.4 54.2536L176.72 56.1428C177.832 55.513 179.222 54.8133 180.403 54.1136L179.013 52.0844ZM180.612 54.4635C179.43 55.1632 178.11 55.9329 176.928 56.5626L178.388 58.5918C179.639 58.032 180.959 57.3323 182.21 56.7025L180.612 54.4635ZM183.808 59.0116L182.418 56.9824L178.596 58.9416L179.986 60.9708C181.237 60.3411 182.627 59.6413 183.808 59.0116ZM183.947 59.2215L180.195 61.1807L181.584 63.2099C182.766 62.5801 184.086 61.8804 185.268 61.3206C184.712 60.411 184.225 59.6413 183.947 59.2215ZM185.685 61.8804C184.503 62.4402 183.183 63.1399 181.932 63.6997L183.252 65.5889C184.364 65.0991 185.824 64.4694 187.005 63.9096C186.588 63.2798 186.171 62.5801 185.685 61.8804ZM185.685 61.8804C184.503 62.4402 183.183 63.1399 181.932 63.6997L183.252 65.5889C184.364 65.0991 185.824 64.4694 187.005 63.9096C186.588 63.2798 186.171 62.5801 185.685 61.8804ZM183.947 59.2215L180.195 61.1807L181.584 63.2099C182.766 62.5801 184.086 61.8804 185.268 61.3206C184.712 60.411 184.225 59.6413 183.947 59.2215ZM183.808 59.0116L182.418 56.9824L178.596 58.9416L179.986 60.9708C181.237 60.3411 182.627 59.6413 183.808 59.0116ZM180.612 54.4635C179.43 55.1632 178.11 55.9329 176.928 56.5626L178.388 58.5918C179.639 58.032 180.959 57.3323 182.21 56.7025L180.612 54.4635ZM179.013 52.0844C177.832 52.7842 176.373 53.6938 175.4 54.2536L176.72 56.1428C177.832 55.513 179.222 54.8133 180.403 54.1136L179.013 52.0844ZM179.013 52.0844C177.832 52.7842 176.373 53.6938 175.4 54.2536L176.72 56.1428C177.832 55.513 179.222 54.8133 180.403 54.1136L179.013 52.0844ZM180.612 54.4635C179.43 55.1632 178.11 55.9329 176.928 56.5626L178.388 58.5918C179.639 58.032 180.959 57.3323 182.21 56.7025L180.612 54.4635ZM183.808 59.0116L182.418 56.9824L178.596 58.9416L179.986 60.9708C181.237 60.3411 182.627 59.6413 183.808 59.0116ZM183.947 59.2215L180.195 61.1807L181.584 63.2099C182.766 62.5801 184.086 61.8804 185.268 61.3206C184.712 60.411 184.225 59.6413 183.947 59.2215ZM185.685 61.8804C184.503 62.4402 183.183 63.1399 181.932 63.6997L183.252 65.5889C184.364 65.0991 185.824 64.4694 187.005 63.9096C186.588 63.2798 186.171 62.5801 185.685 61.8804ZM185.685 61.8804C184.503 62.4402 183.183 63.1399 181.932 63.6997L183.252 65.5889C184.364 65.0991 185.824 64.4694 187.005 63.9096C186.588 63.2798 186.171 62.5801 185.685 61.8804ZM183.947 59.2215L180.195 61.1807L181.584 63.2099C182.766 62.5801 184.086 61.8804 185.268 61.3206C184.712 60.411 184.225 59.6413 183.947 59.2215ZM183.808 59.0116L182.418 56.9824L178.596 58.9416L179.986 60.9708C181.237 60.3411 182.627 59.6413 183.808 59.0116ZM180.612 54.4635C179.43 55.1632 178.11 55.9329 176.928 56.5626L178.388 58.5918C179.639 58.032 180.959 57.3323 182.21 56.7025L180.612 54.4635ZM179.013 52.0844C177.832 52.7842 176.373 53.6938 175.4 54.2536L176.72 56.1428C177.832 55.513 179.222 54.8133 180.403 54.1136L179.013 52.0844ZM179.013 52.0844C177.832 52.7842 176.373 53.6938 175.4 54.2536L176.72 56.1428C177.832 55.513 179.222 54.8133 180.403 54.1136L179.013 52.0844ZM180.612 54.4635C179.43 55.1632 178.11 55.9329 176.928 56.5626L178.388 58.5918C179.639 58.032 180.959 57.3323 182.21 56.7025L180.612 54.4635ZM183.808 59.0116L182.418 56.9824L178.596 58.9416L179.986 60.9708C181.237 60.3411 182.627 59.6413 183.808 59.0116ZM183.947 59.2215L180.195 61.1807L181.584 63.2099C182.766 62.5801 184.086 61.8804 185.268 61.3206C184.712 60.411 184.225 59.6413 183.947 59.2215ZM185.685 61.8804C184.503 62.4402 183.183 63.1399 181.932 63.6997L183.252 65.5889C184.364 65.0991 185.824 64.4694 187.005 63.9096C186.588 63.2798 186.171 62.5801 185.685 61.8804ZM185.685 61.8804C184.503 62.4402 183.183 63.1399 181.932 63.6997L183.252 65.5889C184.364 65.0991 185.824 64.4694 187.005 63.9096C186.588 63.2798 186.171 62.5801 185.685 61.8804ZM183.947 59.2215L180.195 61.1807L181.584 63.2099C182.766 62.5801 184.086 61.8804 185.268 61.3206C184.712 60.411 184.225 59.6413 183.947 59.2215ZM183.808 59.0116L182.418 56.9824L178.596 58.9416L179.986 60.9708C181.237 60.3411 182.627 59.6413 183.808 59.0116ZM180.612 54.4635C179.43 55.1632 178.11 55.9329 176.928 56.5626L178.388 58.5918C179.639 58.032 180.959 57.3323 182.21 56.7025L180.612 54.4635ZM179.013 52.0844C177.832 52.7842 176.373 53.6938 175.4 54.2536L176.72 56.1428C177.832 55.513 179.222 54.8133 180.403 54.1136L179.013 52.0844ZM185.963 52.1544C183.669 49.1457 181.029 48.376 178.944 48.376C176.789 48.376 174.774 49.4955 173.662 51.3148C169.145 58.4518 176.581 65.5189 180.473 68.5277C181.862 69.6472 183.669 70.207 185.407 69.9271C188.325 69.3673 189.854 67.5481 191.313 65.8688C193.19 63.7696 190.48 58.102 185.963 52.1544ZM190.271 65.309C190.132 65.4489 189.854 65.6589 189.854 65.6589L187.352 66.8484L184.851 67.828L185.337 68.4577C185.337 68.4577 185.059 69.0175 184.92 68.8076C184.92 68.7376 184.712 68.4577 184.364 68.0379L183.669 68.3178C183.669 68.3178 183.044 68.1079 183.808 67.828C183.808 67.828 183.947 67.758 184.156 67.688C183.808 67.1982 183.461 66.6385 183.044 66.0087L180.751 67.0583C180.751 67.0583 180.125 66.8484 181.515 66.2886C181.515 66.2886 182.071 66.0787 182.905 65.7288C182.488 65.0291 182.001 64.3994 181.654 63.8396C179.639 64.8192 178.11 65.5189 178.11 65.5189C178.11 65.5189 177.693 65.309 178.11 65.0291C178.11 65.0291 179.569 64.2594 181.376 63.3498C180.959 62.6501 180.612 62.2303 180.612 62.2303L179.986 61.3206L176.442 63.1399C176.442 63.1399 175.886 63.0699 176.581 62.5102C176.581 62.5102 177.971 61.8104 179.778 60.9708L178.388 58.9416L175.191 60.551C175.191 60.551 174.427 60.7609 174.983 60.0612C174.983 60.0612 176.373 59.4314 178.179 58.5918L176.789 56.5626C175.261 57.4023 174.149 58.032 174.079 58.032C174.01 58.032 173.593 57.6821 174.149 57.3323C174.149 57.3323 175.122 56.8425 176.442 56.0728L175.122 54.1836C174.496 54.5334 174.079 54.8133 174.01 54.7434C173.801 54.6734 173.593 54.4635 174.01 54.1836C174.01 54.1836 174.357 53.9737 174.844 53.6938L174.357 52.9941C174.357 52.9941 174.01 52.2944 174.357 52.4343L175.122 53.5538C176.095 52.9941 177.554 52.1544 178.735 51.4547L177.901 50.2652C176.581 51.0349 174.427 52.0145 174.427 52.0145C173.454 51.9445 175.886 50.5451 177.554 49.7054C177.484 49.4955 177.345 49.0757 177.554 49.2156L177.762 49.5655C178.318 49.2856 178.735 49.0757 178.805 49.0757C179.083 49.0757 178.805 49.6355 178.805 49.6355C178.666 49.7754 178.457 49.9153 178.11 50.1253L178.944 51.3148C179.986 50.685 180.82 50.1253 180.89 49.9153C181.168 49.3556 181.584 50.1253 181.376 50.2652C181.307 50.3352 180.403 50.8949 179.222 51.6646L180.612 53.6938C182.21 52.7842 183.53 52.0845 183.6 51.8745C183.808 51.4547 184.225 51.8046 184.225 52.0145C184.225 52.0844 182.696 52.9941 180.89 54.0436L182.488 56.2827C184.086 55.4431 185.337 54.6734 185.546 54.3935C186.032 53.4139 186.101 54.3935 186.101 54.3935L185.615 54.8133L183.878 55.9329L182.696 56.5626L184.156 58.5918C185.615 57.8221 186.727 57.1923 186.796 57.0524C187.074 56.4926 187.7 56.4926 187.63 56.7725C187.561 57.0524 186.935 57.4023 186.935 57.4023L184.295 58.8017L185.754 60.8308C187.283 60.0612 188.464 59.4314 188.603 59.3615C189.09 59.1515 189.507 59.2215 189.507 59.5014C189.507 59.6413 187.978 60.411 186.101 61.3206L187.491 63.3498C188.256 63 188.812 62.6501 189.02 62.4402C189.785 61.6705 190.132 62.0903 190.132 62.1603C190.063 62.2303 189.02 63 189.02 63L187.7 63.5597L188.603 64.8892C188.603 64.8892 188.325 65.4489 188.186 65.239C188.117 65.1691 187.769 64.6093 187.213 63.7696L184.92 64.8192L183.53 65.4489L184.712 67.1283C186.24 66.5685 189.368 65.379 189.785 64.8892C190.202 64.7492 190.41 65.1691 190.271 65.309ZM185.685 61.8804C184.503 62.4402 183.183 63.1399 181.932 63.6997L183.252 65.5889C184.364 65.0991 185.824 64.4694 187.005 63.9096C186.588 63.2798 186.171 62.5801 185.685 61.8804ZM183.947 59.2215L180.195 61.1807L181.584 63.2099C182.766 62.5801 184.086 61.8804 185.268 61.3206C184.712 60.411 184.225 59.6413 183.947 59.2215ZM183.808 59.0116L182.418 56.9824L178.596 58.9416L179.986 60.9708C181.237 60.3411 182.627 59.6413 183.808 59.0116ZM180.612 54.4635C179.43 55.1632 178.11 55.9329 176.928 56.5626L178.388 58.5918C179.639 58.032 180.959 57.3323 182.21 56.7025L180.612 54.4635ZM179.013 52.0844C177.832 52.7842 176.373 53.6938 175.4 54.2536L176.72 56.1428C177.832 55.513 179.222 54.8133 180.403 54.1136L179.013 52.0844ZM179.013 52.0844C177.832 52.7842 176.373 53.6938 175.4 54.2536L176.72 56.1428C177.832 55.513 179.222 54.8133 180.403 54.1136L179.013 52.0844ZM180.612 54.4635C179.43 55.1632 178.11 55.9329 176.928 56.5626L178.388 58.5918C179.639 58.032 180.959 57.3323 182.21 56.7025L180.612 54.4635ZM183.808 59.0116L182.418 56.9824L178.596 58.9416L179.986 60.9708C181.237 60.3411 182.627 59.6413 183.808 59.0116ZM183.947 59.2215L180.195 61.1807L181.584 63.2099C182.766 62.5801 184.086 61.8804 185.268 61.3206C184.712 60.411 184.225 59.6413 183.947 59.2215ZM185.685 61.8804C184.503 62.4402 183.183 63.1399 181.932 63.6997L183.252 65.5889C184.364 65.0991 185.824 64.4694 187.005 63.9096C186.588 63.2798 186.171 62.5801 185.685 61.8804ZM185.685 61.8804C184.503 62.4402 183.183 63.1399 181.932 63.6997L183.252 65.5889C184.364 65.0991 185.824 64.4694 187.005 63.9096C186.588 63.2798 186.171 62.5801 185.685 61.8804ZM183.947 59.2215L180.195 61.1807L181.584 63.2099C182.766 62.5801 184.086 61.8804 185.268 61.3206C184.712 60.411 184.225 59.6413 183.947 59.2215ZM183.808 59.0116L182.418 56.9824L178.596 58.9416L179.986 60.9708C181.237 60.3411 182.627 59.6413 183.808 59.0116ZM180.612 54.4635C179.43 55.1632 178.11 55.9329 176.928 56.5626L178.388 58.5918C179.639 58.032 180.959 57.3323 182.21 56.7025L180.612 54.4635ZM179.013 52.0844C177.832 52.7842 176.373 53.6938 175.4 54.2536L176.72 56.1428C177.832 55.513 179.222 54.8133 180.403 54.1136L179.013 52.0844ZM179.013 52.0844C177.832 52.7842 176.373 53.6938 175.4 54.2536L176.72 56.1428C177.832 55.513 179.222 54.8133 180.403 54.1136L179.013 52.0844ZM180.612 54.4635C179.43 55.1632 178.11 55.9329 176.928 56.5626L178.388 58.5918C179.639 58.032 180.959 57.3323 182.21 56.7025L180.612 54.4635ZM183.808 59.0116L182.418 56.9824L178.596 58.9416L179.986 60.9708C181.237 60.3411 182.627 59.6413 183.808 59.0116ZM183.947 59.2215L180.195 61.1807L181.584 63.2099C182.766 62.5801 184.086 61.8804 185.268 61.3206C184.712 60.411 184.225 59.6413 183.947 59.2215ZM185.685 61.8804C184.503 62.4402 183.183 63.1399 181.932 63.6997L183.252 65.5889C184.364 65.0991 185.824 64.4694 187.005 63.9096C186.588 63.2798 186.171 62.5801 185.685 61.8804ZM185.685 61.8804C184.503 62.4402 183.183 63.1399 181.932 63.6997L183.252 65.5889C184.364 65.0991 185.824 64.4694 187.005 63.9096C186.588 63.2798 186.171 62.5801 185.685 61.8804ZM183.947 59.2215L180.195 61.1807L181.584 63.2099C182.766 62.5801 184.086 61.8804 185.268 61.3206C184.712 60.411 184.225 59.6413 183.947 59.2215ZM183.808 59.0116L182.418 56.9824L178.596 58.9416L179.986 60.9708C181.237 60.3411 182.627 59.6413 183.808 59.0116ZM180.612 54.4635C179.43 55.1632 178.11 55.9329 176.928 56.5626L178.388 58.5918C179.639 58.032 180.959 57.3323 182.21 56.7025L180.612 54.4635ZM179.013 52.0844C177.832 52.7842 176.373 53.6938 175.4 54.2536L176.72 56.1428C177.832 55.513 179.222 54.8133 180.403 54.1136L179.013 52.0844ZM179.013 52.0844C177.832 52.7842 176.373 53.6938 175.4 54.2536L176.72 56.1428C177.832 55.513 179.222 54.8133 180.403 54.1136L179.013 52.0844ZM180.612 54.4635C179.43 55.1632 178.11 55.9329 176.928 56.5626L178.388 58.5918C179.639 58.032 180.959 57.3323 182.21 56.7025L180.612 54.4635ZM183.808 59.0116L182.418 56.9824L178.596 58.9416L179.986 60.9708C181.237 60.3411 182.627 59.6413 183.808 59.0116ZM183.947 59.2215L180.195 61.1807L181.584 63.2099C182.766 62.5801 184.086 61.8804 185.268 61.3206C184.712 60.411 184.225 59.6413 183.947 59.2215ZM185.685 61.8804C184.503 62.4402 183.183 63.1399 181.932 63.6997L183.252 65.5889C184.364 65.0991 185.824 64.4694 187.005 63.9096C186.588 63.2798 186.171 62.5801 185.685 61.8804ZM185.685 61.8804C184.503 62.4402 183.183 63.1399 181.932 63.6997L183.252 65.5889C184.364 65.0991 185.824 64.4694 187.005 63.9096C186.588 63.2798 186.171 62.5801 185.685 61.8804ZM183.947 59.2215L180.195 61.1807L181.584 63.2099C182.766 62.5801 184.086 61.8804 185.268 61.3206C184.712 60.411 184.225 59.6413 183.947 59.2215ZM183.808 59.0116L182.418 56.9824L178.596 58.9416L179.986 60.9708C181.237 60.3411 182.627 59.6413 183.808 59.0116ZM180.612 54.4635C179.43 55.1632 178.11 55.9329 176.928 56.5626L178.388 58.5918C179.639 58.032 180.959 57.3323 182.21 56.7025L180.612 54.4635ZM179.013 52.0844C177.832 52.7842 176.373 53.6938 175.4 54.2536L176.72 56.1428C177.832 55.513 179.222 54.8133 180.403 54.1136L179.013 52.0844ZM179.013 52.0844C177.832 52.7842 176.373 53.6938 175.4 54.2536L176.72 56.1428C177.832 55.513 179.222 54.8133 180.403 54.1136L179.013 52.0844ZM180.612 54.4635C179.43 55.1632 178.11 55.9329 176.928 56.5626L178.388 58.5918C179.639 58.032 180.959 57.3323 182.21 56.7025L180.612 54.4635ZM183.808 59.0116L182.418 56.9824L178.596 58.9416L179.986 60.9708C181.237 60.3411 182.627 59.6413 183.808 59.0116ZM183.947 59.2215L180.195 61.1807L181.584 63.2099C182.766 62.5801 184.086 61.8804 185.268 61.3206C184.712 60.411 184.225 59.6413 183.947 59.2215ZM185.685 61.8804C184.503 62.4402 183.183 63.1399 181.932 63.6997L183.252 65.5889C184.364 65.0991 185.824 64.4694 187.005 63.9096C186.588 63.2798 186.171 62.5801 185.685 61.8804ZM185.685 61.8804C184.503 62.4402 183.183 63.1399 181.932 63.6997L183.252 65.5889C184.364 65.0991 185.824 64.4694 187.005 63.9096C186.588 63.2798 186.171 62.5801 185.685 61.8804ZM183.947 59.2215L180.195 61.1807L181.584 63.2099C182.766 62.5801 184.086 61.8804 185.268 61.3206C184.712 60.411 184.225 59.6413 183.947 59.2215ZM183.808 59.0116L182.418 56.9824L178.596 58.9416L179.986 60.9708C181.237 60.3411 182.627 59.6413 183.808 59.0116ZM180.612 54.4635C179.43 55.1632 178.11 55.9329 176.928 56.5626L178.388 58.5918C179.639 58.032 180.959 57.3323 182.21 56.7025L180.612 54.4635ZM179.013 52.0844C177.832 52.7842 176.373 53.6938 175.4 54.2536L176.72 56.1428C177.832 55.513 179.222 54.8133 180.403 54.1136L179.013 52.0844ZM179.013 52.0844C177.832 52.7842 176.373 53.6938 175.4 54.2536L176.72 56.1428C177.832 55.513 179.222 54.8133 180.403 54.1136L179.013 52.0844ZM180.612 54.4635C179.43 55.1632 178.11 55.9329 176.928 56.5626L178.388 58.5918C179.639 58.032 180.959 57.3323 182.21 56.7025L180.612 54.4635ZM183.808 59.0116L182.418 56.9824L178.596 58.9416L179.986 60.9708C181.237 60.3411 182.627 59.6413 183.808 59.0116ZM183.947 59.2215L180.195 61.1807L181.584 63.2099C182.766 62.5801 184.086 61.8804 185.268 61.3206C184.712 60.411 184.225 59.6413 183.947 59.2215ZM183.947 59.2215L180.195 61.1807L181.584 63.2099C182.766 62.5801 184.086 61.8804 185.268 61.3206C184.712 60.411 184.225 59.6413 183.947 59.2215ZM183.808 59.0116L182.418 56.9824L178.596 58.9416L179.986 60.9708C181.237 60.3411 182.627 59.6413 183.808 59.0116ZM180.612 54.4635C179.43 55.1632 178.11 55.9329 176.928 56.5626L178.388 58.5918C179.639 58.032 180.959 57.3323 182.21 56.7025L180.612 54.4635ZM179.013 52.0844C177.832 52.7842 176.373 53.6938 175.4 54.2536L176.72 56.1428C177.832 55.513 179.222 54.8133 180.403 54.1136L179.013 52.0844ZM179.013 52.0844C177.832 52.7842 176.373 53.6938 175.4 54.2536L176.72 56.1428C177.832 55.513 179.222 54.8133 180.403 54.1136L179.013 52.0844ZM180.612 54.4635C179.43 55.1632 178.11 55.9329 176.928 56.5626L178.388 58.5918C179.639 58.032 180.959 57.3323 182.21 56.7025L180.612 54.4635ZM183.808 59.0116L182.418 56.9824L178.596 58.9416L179.986 60.9708C181.237 60.3411 182.627 59.6413 183.808 59.0116ZM183.947 59.2215L180.195 61.1807L181.584 63.2099C182.766 62.5801 184.086 61.8804 185.268 61.3206C184.712 60.411 184.225 59.6413 183.947 59.2215ZM183.947 59.2215L180.195 61.1807L181.584 63.2099C182.766 62.5801 184.086 61.8804 185.268 61.3206C184.712 60.411 184.225 59.6413 183.947 59.2215ZM183.808 59.0116L182.418 56.9824L178.596 58.9416L179.986 60.9708C181.237 60.3411 182.627 59.6413 183.808 59.0116ZM180.612 54.4635C179.43 55.1632 178.11 55.9329 176.928 56.5626L178.388 58.5918C179.639 58.032 180.959 57.3323 182.21 56.7025L180.612 54.4635ZM179.013 52.0844C177.832 52.7842 176.373 53.6938 175.4 54.2536L176.72 56.1428C177.832 55.513 179.222 54.8133 180.403 54.1136L179.013 52.0844ZM179.013 52.0844C177.832 52.7842 176.373 53.6938 175.4 54.2536L176.72 56.1428C177.832 55.513 179.222 54.8133 180.403 54.1136L179.013 52.0844ZM180.612 54.4635C179.43 55.1632 178.11 55.9329 176.928 56.5626L178.388 58.5918C179.639 58.032 180.959 57.3323 182.21 56.7025L180.612 54.4635ZM183.808 59.0116L182.418 56.9824L178.596 58.9416L179.986 60.9708C181.237 60.3411 182.627 59.6413 183.808 59.0116ZM183.947 59.2215L180.195 61.1807L181.584 63.2099C182.766 62.5801 184.086 61.8804 185.268 61.3206C184.712 60.411 184.225 59.6413 183.947 59.2215ZM183.947 59.2215L180.195 61.1807L181.584 63.2099C182.766 62.5801 184.086 61.8804 185.268 61.3206C184.712 60.411 184.225 59.6413 183.947 59.2215ZM183.808 59.0116L182.418 56.9824L178.596 58.9416L179.986 60.9708C181.237 60.3411 182.627 59.6413 183.808 59.0116ZM180.612 54.4635C179.43 55.1632 178.11 55.9329 176.928 56.5626L178.388 58.5918C179.639 58.032 180.959 57.3323 182.21 56.7025L180.612 54.4635ZM179.013 52.0844C177.832 52.7842 176.373 53.6938 175.4 54.2536L176.72 56.1428C177.832 55.513 179.222 54.8133 180.403 54.1136L179.013 52.0844ZM179.013 52.0844C177.832 52.7842 176.373 53.6938 175.4 54.2536L176.72 56.1428C177.832 55.513 179.222 54.8133 180.403 54.1136L179.013 52.0844ZM180.612 54.4635C179.43 55.1632 178.11 55.9329 176.928 56.5626L178.388 58.5918C179.639 58.032 180.959 57.3323 182.21 56.7025L180.612 54.4635ZM183.808 59.0116L182.418 56.9824L178.596 58.9416L179.986 60.9708C181.237 60.3411 182.627 59.6413 183.808 59.0116ZM183.947 59.2215L180.195 61.1807L181.584 63.2099C182.766 62.5801 184.086 61.8804 185.268 61.3206C184.712 60.411 184.225 59.6413 183.947 59.2215ZM183.947 59.2215L180.195 61.1807L181.584 63.2099C182.766 62.5801 184.086 61.8804 185.268 61.3206C184.712 60.411 184.225 59.6413 183.947 59.2215ZM183.808 59.0116L182.418 56.9824L178.596 58.9416L179.986 60.9708C181.237 60.3411 182.627 59.6413 183.808 59.0116ZM180.612 54.4635C179.43 55.1632 178.11 55.9329 176.928 56.5626L178.388 58.5918C179.639 58.032 180.959 57.3323 182.21 56.7025L180.612 54.4635ZM179.013 52.0844C177.832 52.7842 176.373 53.6938 175.4 54.2536L176.72 56.1428C177.832 55.513 179.222 54.8133 180.403 54.1136L179.013 52.0844ZM179.013 52.0844C177.832 52.7842 176.373 53.6938 175.4 54.2536L176.72 56.1428C177.832 55.513 179.222 54.8133 180.403 54.1136L179.013 52.0844ZM180.612 54.4635C179.43 55.1632 178.11 55.9329 176.928 56.5626L178.388 58.5918C179.639 58.032 180.959 57.3323 182.21 56.7025L180.612 54.4635ZM183.808 59.0116L182.418 56.9824L178.596 58.9416L179.986 60.9708C181.237 60.3411 182.627 59.6413 183.808 59.0116ZM183.947 59.2215L180.195 61.1807L181.584 63.2099C182.766 62.5801 184.086 61.8804 185.268 61.3206C184.712 60.411 184.225 59.6413 183.947 59.2215ZM183.947 59.2215L180.195 61.1807L181.584 63.2099C182.766 62.5801 184.086 61.8804 185.268 61.3206C184.712 60.411 184.225 59.6413 183.947 59.2215ZM183.808 59.0116L182.418 56.9824L178.596 58.9416L179.986 60.9708C181.237 60.3411 182.627 59.6413 183.808 59.0116ZM180.612 54.4635C179.43 55.1632 178.11 55.9329 176.928 56.5626L178.388 58.5918C179.639 58.032 180.959 57.3323 182.21 56.7025L180.612 54.4635ZM179.013 52.0844C177.832 52.7842 176.373 53.6938 175.4 54.2536L176.72 56.1428C177.832 55.513 179.222 54.8133 180.403 54.1136L179.013 52.0844ZM179.013 52.0844C177.832 52.7842 176.373 53.6938 175.4 54.2536L176.72 56.1428C177.832 55.513 179.222 54.8133 180.403 54.1136L179.013 52.0844ZM180.612 54.4635C179.43 55.1632 178.11 55.9329 176.928 56.5626L178.388 58.5918C179.639 58.032 180.959 57.3323 182.21 56.7025L180.612 54.4635ZM183.808 59.0116L182.418 56.9824L178.596 58.9416L179.986 60.9708C181.237 60.3411 182.627 59.6413 183.808 59.0116ZM183.947 59.2215L180.195 61.1807L181.584 63.2099C182.766 62.5801 184.086 61.8804 185.268 61.3206C184.712 60.411 184.225 59.6413 183.947 59.2215ZM183.808 59.0116L182.418 56.9824L178.596 58.9416L179.986 60.9708C181.237 60.3411 182.627 59.6413 183.808 59.0116ZM180.612 54.4635C179.43 55.1632 178.11 55.9329 176.928 56.5626L178.388 58.5918C179.639 58.032 180.959 57.3323 182.21 56.7025L180.612 54.4635ZM179.013 52.0844C177.832 52.7842 176.373 53.6938 175.4 54.2536L176.72 56.1428C177.832 55.513 179.222 54.8133 180.403 54.1136L179.013 52.0844ZM179.013 52.0844C177.832 52.7842 176.373 53.6938 175.4 54.2536L176.72 56.1428C177.832 55.513 179.222 54.8133 180.403 54.1136L179.013 52.0844ZM180.612 54.4635C179.43 55.1632 178.11 55.9329 176.928 56.5626L178.388 58.5918C179.639 58.032 180.959 57.3323 182.21 56.7025L180.612 54.4635ZM183.808 59.0116L182.418 56.9824L178.596 58.9416L179.986 60.9708C181.237 60.3411 182.627 59.6413 183.808 59.0116ZM183.947 59.2215L180.195 61.1807L181.584 63.2099C182.766 62.5801 184.086 61.8804 185.268 61.3206C184.712 60.411 184.225 59.6413 183.947 59.2215ZM183.808 59.0116L182.418 56.9824L178.596 58.9416L179.986 60.9708C181.237 60.3411 182.627 59.6413 183.808 59.0116ZM180.612 54.4635C179.43 55.1632 178.11 55.9329 176.928 56.5626L178.388 58.5918C179.639 58.032 180.959 57.3323 182.21 56.7025L180.612 54.4635ZM179.013 52.0844C177.832 52.7842 176.373 53.6938 175.4 54.2536L176.72 56.1428C177.832 55.513 179.222 54.8133 180.403 54.1136L179.013 52.0844ZM179.013 52.0844C177.832 52.7842 176.373 53.6938 175.4 54.2536L176.72 56.1428C177.832 55.513 179.222 54.8133 180.403 54.1136L179.013 52.0844ZM180.612 54.4635C179.43 55.1632 178.11 55.9329 176.928 56.5626L178.388 58.5918C179.639 58.032 180.959 57.3323 182.21 56.7025L180.612 54.4635ZM183.808 59.0116L182.418 56.9824L178.596 58.9416L179.986 60.9708C181.237 60.3411 182.627 59.6413 183.808 59.0116ZM183.947 59.2215L180.195 61.1807L181.584 63.2099C182.766 62.5801 184.086 61.8804 185.268 61.3206C184.712 60.411 184.225 59.6413 183.947 59.2215ZM183.808 59.0116L182.418 56.9824L178.596 58.9416L179.986 60.9708C181.237 60.3411 182.627 59.6413 183.808 59.0116ZM180.612 54.4635C179.43 55.1632 178.11 55.9329 176.928 56.5626L178.388 58.5918C179.639 58.032 180.959 57.3323 182.21 56.7025L180.612 54.4635ZM179.013 52.0844C177.832 52.7842 176.373 53.6938 175.4 54.2536L176.72 56.1428C177.832 55.513 179.222 54.8133 180.403 54.1136L179.013 52.0844ZM179.013 52.0844C177.832 52.7842 176.373 53.6938 175.4 54.2536L176.72 56.1428C177.832 55.513 179.222 54.8133 180.403 54.1136L179.013 52.0844ZM180.612 54.4635C179.43 55.1632 178.11 55.9329 176.928 56.5626L178.388 58.5918C179.639 58.032 180.959 57.3323 182.21 56.7025L180.612 54.4635ZM183.808 59.0116L182.418 56.9824L178.596 58.9416L179.986 60.9708C181.237 60.3411 182.627 59.6413 183.808 59.0116ZM183.947 59.2215L180.195 61.1807L181.584 63.2099C182.766 62.5801 184.086 61.8804 185.268 61.3206C184.712 60.411 184.225 59.6413 183.947 59.2215ZM180.612 54.4635C179.43 55.1632 178.11 55.9329 176.928 56.5626L178.388 58.5918C179.639 58.032 180.959 57.3323 182.21 56.7025L180.612 54.4635ZM179.013 52.0844C177.832 52.7842 176.373 53.6938 175.4 54.2536L176.72 56.1428C177.832 55.513 179.222 54.8133 180.403 54.1136L179.013 52.0844ZM179.013 52.0844C177.832 52.7842 176.373 53.6938 175.4 54.2536L176.72 56.1428C177.832 55.513 179.222 54.8133 180.403 54.1136L179.013 52.0844ZM180.612 54.4635C179.43 55.1632 178.11 55.9329 176.928 56.5626L178.388 58.5918C179.639 58.032 180.959 57.3323 182.21 56.7025L180.612 54.4635ZM183.808 59.0116L182.418 56.9824L178.596 58.9416L179.986 60.9708C181.237 60.3411 182.627 59.6413 183.808 59.0116ZM180.612 54.4635C179.43 55.1632 178.11 55.9329 176.928 56.5626L178.388 58.5918C179.639 58.032 180.959 57.3323 182.21 56.7025L180.612 54.4635ZM179.013 52.0844C177.832 52.7842 176.373 53.6938 175.4 54.2536L176.72 56.1428C177.832 55.513 179.222 54.8133 180.403 54.1136L179.013 52.0844ZM179.013 52.0844C177.832 52.7842 176.373 53.6938 175.4 54.2536L176.72 56.1428C177.832 55.513 179.222 54.8133 180.403 54.1136L179.013 52.0844ZM180.612 54.4635C179.43 55.1632 178.11 55.9329 176.928 56.5626L178.388 58.5918C179.639 58.032 180.959 57.3323 182.21 56.7025L180.612 54.4635ZM183.808 59.0116L182.418 56.9824L178.596 58.9416L179.986 60.9708C181.237 60.3411 182.627 59.6413 183.808 59.0116ZM180.612 54.4635C179.43 55.1632 178.11 55.9329 176.928 56.5626L178.388 58.5918C179.639 58.032 180.959 57.3323 182.21 56.7025L180.612 54.4635ZM179.013 52.0844C177.832 52.7842 176.373 53.6938 175.4 54.2536L176.72 56.1428C177.832 55.513 179.222 54.8133 180.403 54.1136L179.013 52.0844ZM179.013 52.0844C177.832 52.7842 176.373 53.6938 175.4 54.2536L176.72 56.1428C177.832 55.513 179.222 54.8133 180.403 54.1136L179.013 52.0844ZM180.612 54.4635C179.43 55.1632 178.11 55.9329 176.928 56.5626L178.388 58.5918C179.639 58.032 180.959 57.3323 182.21 56.7025L180.612 54.4635ZM183.808 59.0116L182.418 56.9824L178.596 58.9416L179.986 60.9708C181.237 60.3411 182.627 59.6413 183.808 59.0116ZM180.612 54.4635C179.43 55.1632 178.11 55.9329 176.928 56.5626L178.388 58.5918C179.639 58.032 180.959 57.3323 182.21 56.7025L180.612 54.4635ZM179.013 52.0844C177.832 52.7842 176.373 53.6938 175.4 54.2536L176.72 56.1428C177.832 55.513 179.222 54.8133 180.403 54.1136L179.013 52.0844ZM179.013 52.0844C177.832 52.7842 176.373 53.6938 175.4 54.2536L176.72 56.1428C177.832 55.513 179.222 54.8133 180.403 54.1136L179.013 52.0844ZM180.612 54.4635C179.43 55.1632 178.11 55.9329 176.928 56.5626L178.388 58.5918C179.639 58.032 180.959 57.3323 182.21 56.7025L180.612 54.4635ZM180.612 54.4635C179.43 55.1632 178.11 55.9329 176.928 56.5626L178.388 58.5918C179.639 58.032 180.959 57.3323 182.21 56.7025L180.612 54.4635ZM179.013 52.0844C177.832 52.7842 176.373 53.6938 175.4 54.2536L176.72 56.1428C177.832 55.513 179.222 54.8133 180.403 54.1136L179.013 52.0844ZM179.013 52.0844C177.832 52.7842 176.373 53.6938 175.4 54.2536L176.72 56.1428C177.832 55.513 179.222 54.8133 180.403 54.1136L179.013 52.0844ZM180.612 54.4635C179.43 55.1632 178.11 55.9329 176.928 56.5626L178.388 58.5918C179.639 58.032 180.959 57.3323 182.21 56.7025L180.612 54.4635ZM180.612 54.4635C179.43 55.1632 178.11 55.9329 176.928 56.5626L178.388 58.5918C179.639 58.032 180.959 57.3323 182.21 56.7025L180.612 54.4635ZM179.013 52.0844C177.832 52.7842 176.373 53.6938 175.4 54.2536L176.72 56.1428C177.832 55.513 179.222 54.8133 180.403 54.1136L179.013 52.0844ZM179.013 52.0844C177.832 52.7842 176.373 53.6938 175.4 54.2536L176.72 56.1428C177.832 55.513 179.222 54.8133 180.403 54.1136L179.013 52.0844ZM180.612 54.4635C179.43 55.1632 178.11 55.9329 176.928 56.5626L178.388 58.5918C179.639 58.032 180.959 57.3323 182.21 56.7025L180.612 54.4635ZM179.013 52.0844C177.832 52.7842 176.373 53.6938 175.4 54.2536L176.72 56.1428C177.832 55.513 179.222 54.8133 180.403 54.1136L179.013 52.0844ZM179.013 52.0844C177.832 52.7842 176.373 53.6938 175.4 54.2536L176.72 56.1428C177.832 55.513 179.222 54.8133 180.403 54.1136L179.013 52.0844ZM180.612 54.4635C179.43 55.1632 178.11 55.9329 176.928 56.5626L178.388 58.5918C179.639 58.032 180.959 57.3323 182.21 56.7025L180.612 54.4635ZM179.013 52.0844C177.832 52.7842 176.373 53.6938 175.4 54.2536L176.72 56.1428C177.832 55.513 179.222 54.8133 180.403 54.1136L179.013 52.0844ZM179.013 52.0844C177.832 52.7842 176.373 53.6938 175.4 54.2536L176.72 56.1428C177.832 55.513 179.222 54.8133 180.403 54.1136L179.013 52.0844ZM179.013 52.0844C177.832 52.7842 176.373 53.6938 175.4 54.2536L176.72 56.1428C177.832 55.513 179.222 54.8133 180.403 54.1136L179.013 52.0844ZM179.013 52.0844C177.832 52.7842 176.373 53.6938 175.4 54.2536L176.72 56.1428C177.832 55.513 179.222 54.8133 180.403 54.1136L179.013 52.0844ZM179.013 52.0844C177.832 52.7842 176.373 53.6938 175.4 54.2536L176.72 56.1428C177.832 55.513 179.222 54.8133 180.403 54.1136L179.013 52.0844Z" fill="white"/>
<path d="M192.703 49.9154L188.742 52.9242C188.603 52.9941 188.395 52.9941 188.325 52.8542C188.256 52.7142 188.256 52.5043 188.395 52.4344L192.356 49.4256C192.495 49.3556 192.703 49.3556 192.773 49.4956C192.842 49.6355 192.842 49.8454 192.703 49.9154Z" fill="white"/>
<path d="M173.801 64.3995L169.84 67.4083C169.701 67.4783 169.493 67.4783 169.423 67.3383C169.354 67.1984 169.354 66.9885 169.493 66.9185L173.454 63.9097C173.593 63.8398 173.801 63.8398 173.871 63.9797C174.01 64.1196 173.94 64.2596 173.801 64.3995Z" fill="white"/>
<path d="M195.275 54.2535L191.313 57.2623C191.174 57.3323 190.966 57.3323 190.896 57.1923C190.827 57.0524 190.827 56.8425 190.966 56.7725L194.927 53.7637C195.066 53.6938 195.275 53.6938 195.344 53.8337C195.414 53.9736 195.413 54.1836 195.275 54.2535Z" fill="white"/>
<path d="M177.762 67.6881L173.593 70.9068C173.454 70.9767 173.245 70.9768 173.176 70.8368C173.106 70.6969 173.106 70.487 173.245 70.417L177.415 67.1983C177.554 67.1283 177.762 67.1283 177.832 67.2683C177.901 67.4082 177.901 67.6181 177.762 67.6881Z" fill="white"/>
<path d="M189.437 46.4868L185.476 49.4956C185.337 49.5656 185.129 49.5656 185.059 49.4256L184.99 49.3556C184.92 49.2157 184.92 49.0058 185.059 48.9358L189.02 45.9271C189.159 45.8571 189.368 45.8571 189.437 45.997L189.507 46.067C189.576 46.2069 189.576 46.3469 189.437 46.4868Z" fill="white"/>
<path d="M171.925 59.8512L167.755 63.0699C167.616 63.1398 167.477 63.1398 167.338 62.9999C167.269 62.8599 167.269 62.72 167.408 62.5801L171.577 59.3614C171.716 59.2914 171.855 59.2914 171.994 59.4314C172.064 59.5713 172.064 59.7812 171.925 59.8512Z" fill="white"/>
<path d="M197.707 59.0817L193.537 62.3003C193.398 62.3703 193.19 62.3703 193.12 62.2304C193.051 62.0904 193.051 61.8805 193.19 61.8105L197.359 58.5919C197.498 58.5219 197.707 58.5219 197.776 58.6618C197.846 58.8018 197.846 58.9417 197.707 59.0817Z" fill="white"/>
<path d="M182.071 71.0466L177.554 74.5452C177.415 74.6152 177.206 74.6152 177.137 74.4752V74.4053C177.067 74.2653 177.067 74.0554 177.206 73.9854L181.723 70.4869C181.862 70.4169 182.071 70.4169 182.14 70.5568V70.6268C182.279 70.7668 182.21 70.9767 182.071 71.0466Z" fill="white"/>
<path d="M184.99 45.0875L181.932 47.3965C181.793 47.5365 181.584 47.4665 181.515 47.3265L181.446 47.2566C181.307 47.1166 181.376 46.9067 181.515 46.8367L184.573 44.5277C184.712 44.3878 184.92 44.4577 184.99 44.5977L185.059 44.6676C185.198 44.8076 185.129 45.0175 184.99 45.0875Z" fill="white"/>
<path d="M171.369 55.583L167.06 58.8717C166.922 58.9416 166.713 58.9416 166.644 58.8017V58.7317C166.574 58.5918 166.574 58.3819 166.713 58.3119L171.022 55.0233C171.161 54.9533 171.369 54.9533 171.439 55.0932V55.1632C171.508 55.3031 171.508 55.5131 171.369 55.583Z" fill="white"/>
<path d="M179.291 44.8074L169.215 52.5742C169.076 52.6442 168.867 52.6442 168.798 52.5042V52.4342C168.728 52.2943 168.728 52.0844 168.867 52.0144L178.944 44.2476C179.083 44.1777 179.291 44.1776 179.361 44.3176V44.3876C179.43 44.4575 179.43 44.6674 179.291 44.8074Z" fill="white"/>
<path d="M195.275 66.8484L185.198 74.5452C185.059 74.6851 184.851 74.6152 184.712 74.4752L184.642 74.4052C184.503 74.2653 184.573 74.0554 184.712 73.9154L194.788 66.2186C194.927 66.0787 195.136 66.1486 195.275 66.2886L195.344 66.3586C195.483 66.5685 195.483 66.7784 195.275 66.8484Z" fill="white"/>
</g>
<defs>
<clipPath id="clip0_817_3715">
<rect width="200" height="77.5281" fill="white" transform="translate(0 0.23584)"/>
</clipPath>
</defs>
</svg>
