<svg width="80" height="32" viewBox="0 0 80 32" fill="none" xmlns="http://www.w3.org/2000/svg">
<g clip-path="url(#clip0_646_10763)">
<path d="M3.86379 0.494385H7.56081V11.3259H7.5886L11.1744 0.494385H14.6491V14.6845H11.3134V4.55271L7.94996 14.6845H4.22516V4.55271L1.41765 14.6845H0L3.86379 0.494385Z" fill="white"/>
<path d="M22.6267 14.6844H21.487C20.5142 14.6844 19.7358 14.6565 19.0965 14.5725C18.485 14.5165 17.9846 14.3766 17.6233 14.1527C17.2619 13.9288 17.0117 13.6209 16.8449 13.257C16.7059 12.8652 16.6226 12.3614 16.6226 11.7456C16.6226 11.1019 16.7337 10.5701 16.9283 10.2063C17.1229 9.81444 17.4843 9.53456 17.9568 9.36663C18.4294 9.17071 19.0409 9.05875 19.7914 9.00278C20.5419 8.9468 21.487 8.91881 22.5711 8.91881V7.04358C22.5433 6.62376 22.4321 6.28789 22.2098 6.09198C21.9874 5.89606 21.5426 5.7841 20.8755 5.7841C20.4308 5.7841 20.0694 5.84008 19.7914 5.92404C19.5135 6.00801 19.3189 6.14795 19.1799 6.31588C19.0409 6.48381 18.9297 6.65175 18.8463 6.84766C18.7907 7.04358 18.7351 7.2395 18.6795 7.43542H16.8727C16.9005 7.18353 16.9839 6.90364 17.0951 6.53979C17.2063 6.17594 17.4009 5.84008 17.6788 5.53221C17.9568 5.19634 18.3738 4.94445 18.9019 4.69255C19.4301 4.46864 20.1528 4.35669 21.0145 4.35669C21.9318 4.35669 22.7101 4.41267 23.2939 4.55261C23.8776 4.69255 24.3501 4.86048 24.6837 5.11238C25.0173 5.33629 25.2397 5.61617 25.3786 5.95203C25.5176 6.28789 25.5732 6.62376 25.601 7.01559V14.6565L22.6267 14.6844ZM22.6267 10.3462C21.9874 10.3462 21.4593 10.3742 21.0423 10.4022C20.6253 10.4302 20.3196 10.5142 20.0694 10.5981C19.847 10.6821 19.6802 10.822 19.5968 11.0179C19.5135 11.2139 19.4857 11.4378 19.4857 11.7456C19.4857 12.1095 19.5413 12.3894 19.6246 12.6133C19.7358 12.8372 19.9026 12.9771 20.125 13.0891C20.3752 13.201 20.6809 13.257 21.0979 13.285C21.5148 13.313 22.0152 13.313 22.5989 13.313V10.3462H22.6267Z" fill="white"/>
<path d="M36.4143 5.98015C36.4143 7.09969 36.4421 8.19124 36.4421 9.22681C36.4421 10.2624 36.4421 11.186 36.4143 11.9977C36.4143 12.9493 36.4143 13.8449 36.4143 14.6846H33.3844V5.98015H30.6325V14.7126H27.6582V4.55273H36.4143C37.2204 4.55273 37.9431 4.58072 38.5547 4.60871C39.1662 4.6367 39.6943 4.74865 40.1391 4.8886C40.5838 5.02854 40.9452 5.25245 41.2232 5.56032C41.5012 5.86819 41.7513 6.26003 41.9181 6.76382C42.0849 7.26762 42.2239 7.91135 42.2795 8.63905C42.3351 9.39474 42.3907 10.2904 42.3907 11.3539V14.2367C42.3629 14.4886 42.3629 14.6286 42.3629 14.6846H39.333V12.6694C39.333 11.5499 39.3052 10.5982 39.2774 9.84256C39.2496 9.08687 39.194 8.44313 39.1106 7.96733C39.0272 7.46354 38.916 7.09969 38.777 6.8198C38.6381 6.53992 38.4435 6.344 38.2211 6.23204C37.9987 6.0921 37.7485 6.03612 37.4428 6.00814C37.1926 6.00814 36.8312 5.98015 36.4143 5.98015Z" fill="white"/>
<path d="M50.3963 14.6844H49.2566C48.2837 14.6844 47.5054 14.6565 46.866 14.5725C46.2545 14.5165 45.7541 14.3766 45.3928 14.1527C45.0314 13.9288 44.7812 13.6209 44.6145 13.257C44.4755 12.8652 44.3921 12.3614 44.3921 11.7456C44.3921 11.1019 44.5033 10.5701 44.6979 10.2063C44.8924 9.81444 45.2538 9.53456 45.7264 9.36663C46.1989 9.17071 46.8104 9.05875 47.561 9.00278C48.3115 8.9468 49.2566 8.91881 50.3407 8.91881V7.04358C50.3129 6.62376 50.2017 6.28789 49.9793 6.09198C49.7569 5.89606 49.3122 5.7841 48.645 5.7841C48.2003 5.7841 47.8389 5.84008 47.561 5.92404C47.283 6.00801 47.0884 6.14795 46.9494 6.31588C46.8104 6.48381 46.6992 6.65175 46.6159 6.84766C46.5603 7.04358 46.5047 7.2395 46.4491 7.43542H44.6423C44.6701 7.18353 44.7535 6.90364 44.8646 6.53979C44.9758 6.17594 45.1704 5.84008 45.4484 5.53221C45.7264 5.19634 46.1433 4.94445 46.6714 4.69255C47.1996 4.46864 47.9223 4.35669 48.784 4.35669C49.7013 4.35669 50.4797 4.41267 51.0634 4.55261C51.6471 4.69255 52.1197 4.86048 52.4532 5.11238C52.7868 5.33629 53.0092 5.61617 53.1482 5.95203C53.2872 6.28789 53.3428 6.62376 53.3705 7.01559V14.6565L50.3963 14.6844ZM50.3963 10.3462C49.7569 10.3462 49.2288 10.3742 48.8118 10.4022C48.3949 10.4302 48.0891 10.5142 47.8389 10.5981C47.6166 10.6821 47.4498 10.822 47.3664 11.0179C47.283 11.2139 47.2552 11.4378 47.2552 11.7456C47.2552 12.1095 47.3108 12.3894 47.3942 12.6133C47.5054 12.8372 47.6721 12.9771 47.8945 13.0891C48.1447 13.201 48.4505 13.257 48.8674 13.285C49.2844 13.313 49.7847 13.313 50.3685 13.313V10.3462H50.3963Z" fill="white"/>
<path d="M25.8237 18.7429V27.8392H23.6555C23.0996 27.8392 22.6271 27.7832 22.2657 27.6433C21.9043 27.5313 21.5986 27.3354 21.3762 27.0835C21.1538 26.8316 20.987 26.5237 20.9036 26.1599C20.8202 25.796 20.7646 25.3482 20.7646 24.8444C20.7646 24.2567 20.8202 23.7529 20.9036 23.389C20.987 22.9972 21.1816 22.6893 21.404 22.4654C21.6542 22.2415 21.9877 22.0735 22.4047 21.9616C22.8216 21.8496 23.3498 21.7937 24.0169 21.7937V18.7429H25.8237ZM24.0169 22.6613C23.6833 22.6613 23.4054 22.7173 23.2108 22.8292C23.0162 22.9412 22.8772 23.1091 22.766 23.305C22.6826 23.501 22.5993 23.7249 22.5715 24.0048C22.5437 24.2846 22.5437 24.5645 22.5437 24.8724C22.5437 25.1803 22.5437 25.4602 22.5715 25.74C22.5993 25.9919 22.6549 26.2158 22.7382 26.4118C22.8216 26.6077 22.9884 26.7476 23.183 26.8596C23.3776 26.9715 23.6555 27.0275 24.0169 27.0275V22.6613Z" fill="white"/>
<path d="M28.8537 24.7045V24.9843C28.8537 25.4322 28.8815 25.796 28.9093 26.0759C28.9371 26.3558 28.9927 26.5797 29.0761 26.7196C29.1595 26.8596 29.2706 26.9715 29.4096 27.0275C29.5486 27.0835 29.7154 27.1115 29.9378 27.1115C30.2157 27.1115 30.4103 27.0835 30.5771 27.0555C30.7439 27.0275 30.8829 26.9435 30.9663 26.8596C31.0497 26.7756 31.133 26.6637 31.1608 26.5237C31.1886 26.4118 31.2164 26.2718 31.2164 26.1039H32.1893C32.1893 26.2998 32.1615 26.5237 32.1059 26.7476C32.0503 26.9715 31.9392 27.1675 31.8002 27.3634C31.6334 27.5593 31.411 27.6992 31.133 27.8392C30.8273 27.9511 30.4381 28.0351 29.9656 28.0351C29.3818 28.0351 28.9093 27.9791 28.5201 27.8672C28.131 27.7552 27.853 27.5873 27.6306 27.3354C27.4082 27.0835 27.2693 26.7476 27.1859 26.3278C27.1025 25.908 27.0469 25.4042 27.0469 24.7884C27.0469 24.2287 27.0747 23.7529 27.1581 23.333C27.2415 22.9412 27.3526 22.6053 27.5472 22.3534C27.7418 22.1015 28.0198 21.9336 28.3533 21.7937C28.7147 21.6817 29.1595 21.6257 29.7154 21.6257C30.3269 21.6257 30.8273 21.6817 31.1608 21.8217C31.4944 21.9616 31.7724 22.1575 31.9392 22.4094C32.1059 22.6613 32.1893 22.9972 32.2171 23.389C32.2449 23.7808 32.2449 24.2287 32.2171 24.7325H28.8537V24.7045ZM30.5215 23.8648C30.5215 23.5849 30.4937 23.361 30.4659 23.1931C30.4381 23.0252 30.3825 22.8852 30.3269 22.7733C30.2713 22.6613 30.1879 22.6053 30.0768 22.5494C29.9656 22.4934 29.8544 22.4934 29.7154 22.4934C29.5764 22.4934 29.4652 22.5214 29.3818 22.5494C29.2706 22.5773 29.1873 22.6333 29.1317 22.7453C29.0761 22.8292 29.0205 22.9692 28.9649 23.1651C28.9371 23.333 28.8815 23.5849 28.8815 23.8928H30.5215V23.8648Z" fill="white"/>
<path d="M43.8362 31.2818H43.1413C42.0016 26.9716 40.8619 22.6893 39.6945 18.3791C39.2219 20.1144 38.7772 21.8497 38.3046 23.5849C38.1378 23.8089 37.9432 24.0328 37.7765 24.2567C37.2483 22.2975 36.748 20.3383 36.2198 18.4071C35.0801 22.7173 33.9405 27.0275 32.773 31.3098H32.4116C33.6069 26.7756 34.83 22.2695 36.0252 17.7354C36.192 17.5114 36.3866 17.2875 36.5534 17.0636C37.0815 19.0228 37.5819 20.954 38.11 22.9132C38.5826 21.1779 39.0273 19.4427 39.4999 17.7074C39.6667 17.4835 39.8612 17.2596 40.028 17.0356C41.3067 21.7937 42.5854 26.5517 43.8362 31.2818Z" fill="white"/>
<path d="M45.1151 18.2671C45.0595 18.2951 44.9761 18.3791 44.865 18.407C44.8372 18.3511 44.8372 18.2951 44.8094 18.2391C44.8372 18.2111 44.9761 18.1552 45.0039 17.9872C45.0039 17.9592 45.0039 17.9592 45.0039 17.9312H44.9761C44.7816 17.9312 44.6426 17.7633 44.6426 17.5954C44.6426 17.4275 44.8094 17.2595 44.9761 17.2595C45.0873 17.2595 45.1707 17.3155 45.2263 17.3715C45.2819 17.4554 45.3097 17.5114 45.3097 17.5394C45.4765 17.8753 45.2263 18.1831 45.1151 18.2671Z" fill="white"/>
<path d="M53.2036 17.2596V31.2818H52.5365V25.852C52.3141 25.88 52.0917 25.908 51.8693 25.908C51.4802 25.908 51.1188 25.852 50.7575 25.7681L46.8937 31.2818H46.1987L50.2015 25.5721C48.5893 24.9284 47.4496 23.3331 47.4496 21.4578C47.4496 19.0228 49.4232 17.0356 51.8415 17.0356C52.3419 17.0636 52.7866 17.1196 53.2036 17.2596ZM52.5365 25.4882V17.4835C52.3141 17.4275 52.0917 17.3995 51.8693 17.3995C49.8124 17.3995 48.1445 19.2187 48.1445 21.4858C48.1445 23.7529 49.8124 25.5721 51.8693 25.5721C52.0917 25.5721 52.3141 25.5441 52.5365 25.4882Z" fill="white"/>
<path d="M65.7402 29.4346L65.8514 29.7985C65.3232 30.2463 64.7395 30.6101 64.1001 30.89C63.2106 31.2819 62.2377 31.5058 61.2092 31.5058C57.2343 31.5058 54.0376 28.2871 54.0376 24.2847C54.0376 20.2824 57.2621 17.0637 61.2092 17.0637C62.9883 17.0637 64.6005 17.7075 65.8514 18.771C65.7124 18.9389 65.5456 19.1069 65.4066 19.3028C62.7381 16.9798 58.7909 17.0077 56.3726 19.4427C53.843 21.9897 53.9542 26.2439 56.6227 28.9308C58.7909 31.1139 61.9598 31.5897 64.4337 30.3582C64.8785 30.1064 65.3232 29.7985 65.7402 29.4346Z" fill="white"/>
<path d="M80 24.2847C80 28.2871 76.7756 31.5058 72.8284 31.5058C68.8534 31.5058 65.6567 28.2591 65.6567 24.2847C65.6567 20.3104 68.8812 17.0637 72.8284 17.0637C76.8034 17.0637 80 20.2824 80 24.2847ZM77.4149 19.6666C74.7464 16.9798 70.5212 16.8678 67.9917 19.4148C65.4622 21.9617 65.5733 26.216 68.2419 28.9028C70.9104 31.5897 75.1355 31.7017 77.6651 29.1547C80.1946 26.6078 80.0834 22.3535 77.4149 19.6666Z" fill="white"/>
<path d="M68.6588 18.407L65.2676 13.6769L66.1571 12.9492L69.3259 18.407H68.6588Z" fill="white"/>
<path d="M71.6051 21.2339C71.1325 21.5138 70.5488 21.8776 70.1596 22.1015L70.6878 22.8572C71.1325 22.6053 71.6884 22.3254 72.161 22.0455L71.6051 21.2339ZM71.6051 21.2339C71.1325 21.5138 70.5488 21.8776 70.1596 22.1015L70.6878 22.8572C71.1325 22.6053 71.6884 22.3254 72.161 22.0455L71.6051 21.2339ZM71.6051 21.2339C71.1325 21.5138 70.5488 21.8776 70.1596 22.1015L70.6878 22.8572C71.1325 22.6053 71.6884 22.3254 72.161 22.0455L71.6051 21.2339ZM71.6051 21.2339C71.1325 21.5138 70.5488 21.8776 70.1596 22.1015L70.6878 22.8572C71.1325 22.6053 71.6884 22.3254 72.161 22.0455L71.6051 21.2339ZM72.2444 22.1855C71.7718 22.4654 71.2437 22.7732 70.7711 23.0251L71.3549 23.8368C71.8552 23.6129 72.3834 23.333 72.8837 23.0811L72.2444 22.1855ZM71.6051 21.2339C71.1325 21.5138 70.5488 21.8776 70.1596 22.1015L70.6878 22.8572C71.1325 22.6053 71.6884 22.3254 72.161 22.0455L71.6051 21.2339ZM71.6051 21.2339C71.1325 21.5138 70.5488 21.8776 70.1596 22.1015L70.6878 22.8572C71.1325 22.6053 71.6884 22.3254 72.161 22.0455L71.6051 21.2339ZM72.2444 22.1855C71.7718 22.4654 71.2437 22.7732 70.7711 23.0251L71.3549 23.8368C71.8552 23.6129 72.3834 23.333 72.8837 23.0811L72.2444 22.1855ZM71.6051 21.2339C71.1325 21.5138 70.5488 21.8776 70.1596 22.1015L70.6878 22.8572C71.1325 22.6053 71.6884 22.3254 72.161 22.0455L71.6051 21.2339ZM71.6051 21.2339C71.1325 21.5138 70.5488 21.8776 70.1596 22.1015L70.6878 22.8572C71.1325 22.6053 71.6884 22.3254 72.161 22.0455L71.6051 21.2339ZM72.2444 22.1855C71.7718 22.4654 71.2437 22.7732 70.7711 23.0251L71.3549 23.8368C71.8552 23.6129 72.3834 23.333 72.8837 23.0811L72.2444 22.1855ZM71.6051 21.2339C71.1325 21.5138 70.5488 21.8776 70.1596 22.1015L70.6878 22.8572C71.1325 22.6053 71.6884 22.3254 72.161 22.0455L71.6051 21.2339ZM71.6051 21.2339C71.1325 21.5138 70.5488 21.8776 70.1596 22.1015L70.6878 22.8572C71.1325 22.6053 71.6884 22.3254 72.161 22.0455L71.6051 21.2339ZM72.2444 22.1855C71.7718 22.4654 71.2437 22.7732 70.7711 23.0251L71.3549 23.8368C71.8552 23.6129 72.3834 23.333 72.8837 23.0811L72.2444 22.1855ZM72.2444 22.1855C71.7718 22.4654 71.2437 22.7732 70.7711 23.0251L71.3549 23.8368C71.8552 23.6129 72.3834 23.333 72.8837 23.0811L72.2444 22.1855ZM71.6051 21.2339C71.1325 21.5138 70.5488 21.8776 70.1596 22.1015L70.6878 22.8572C71.1325 22.6053 71.6884 22.3254 72.161 22.0455L71.6051 21.2339ZM71.6051 21.2339C71.1325 21.5138 70.5488 21.8776 70.1596 22.1015L70.6878 22.8572C71.1325 22.6053 71.6884 22.3254 72.161 22.0455L71.6051 21.2339ZM72.2444 22.1855C71.7718 22.4654 71.2437 22.7732 70.7711 23.0251L71.3549 23.8368C71.8552 23.6129 72.3834 23.333 72.8837 23.0811L72.2444 22.1855ZM73.5231 24.0047L72.9671 23.1931L71.4383 23.9767L71.9942 24.7884C72.4946 24.5365 73.0505 24.2566 73.5231 24.0047ZM72.2444 22.1855C71.7718 22.4654 71.2437 22.7732 70.7711 23.0251L71.3549 23.8368C71.8552 23.6129 72.3834 23.333 72.8837 23.0811L72.2444 22.1855ZM71.6051 21.2339C71.1325 21.5138 70.5488 21.8776 70.1596 22.1015L70.6878 22.8572C71.1325 22.6053 71.6884 22.3254 72.161 22.0455L71.6051 21.2339ZM71.6051 21.2339C71.1325 21.5138 70.5488 21.8776 70.1596 22.1015L70.6878 22.8572C71.1325 22.6053 71.6884 22.3254 72.161 22.0455L71.6051 21.2339ZM72.2444 22.1855C71.7718 22.4654 71.2437 22.7732 70.7711 23.0251L71.3549 23.8368C71.8552 23.6129 72.3834 23.333 72.8837 23.0811L72.2444 22.1855ZM73.5231 24.0047L72.9671 23.1931L71.4383 23.9767L71.9942 24.7884C72.4946 24.5365 73.0505 24.2566 73.5231 24.0047ZM72.2444 22.1855C71.7718 22.4654 71.2437 22.7732 70.7711 23.0251L71.3549 23.8368C71.8552 23.6129 72.3834 23.333 72.8837 23.0811L72.2444 22.1855ZM71.6051 21.2339C71.1325 21.5138 70.5488 21.8776 70.1596 22.1015L70.6878 22.8572C71.1325 22.6053 71.6884 22.3254 72.161 22.0455L71.6051 21.2339ZM71.6051 21.2339C71.1325 21.5138 70.5488 21.8776 70.1596 22.1015L70.6878 22.8572C71.1325 22.6053 71.6884 22.3254 72.161 22.0455L71.6051 21.2339ZM72.2444 22.1855C71.7718 22.4654 71.2437 22.7732 70.7711 23.0251L71.3549 23.8368C71.8552 23.6129 72.3834 23.333 72.8837 23.0811L72.2444 22.1855ZM73.5231 24.0047L72.9671 23.1931L71.4383 23.9767L71.9942 24.7884C72.4946 24.5365 73.0505 24.2566 73.5231 24.0047ZM72.2444 22.1855C71.7718 22.4654 71.2437 22.7732 70.7711 23.0251L71.3549 23.8368C71.8552 23.6129 72.3834 23.333 72.8837 23.0811L72.2444 22.1855ZM71.6051 21.2339C71.1325 21.5138 70.5488 21.8776 70.1596 22.1015L70.6878 22.8572C71.1325 22.6053 71.6884 22.3254 72.161 22.0455L71.6051 21.2339ZM71.6051 21.2339C71.1325 21.5138 70.5488 21.8776 70.1596 22.1015L70.6878 22.8572C71.1325 22.6053 71.6884 22.3254 72.161 22.0455L71.6051 21.2339ZM72.2444 22.1855C71.7718 22.4654 71.2437 22.7732 70.7711 23.0251L71.3549 23.8368C71.8552 23.6129 72.3834 23.333 72.8837 23.0811L72.2444 22.1855ZM73.5231 24.0047L72.9671 23.1931L71.4383 23.9767L71.9942 24.7884C72.4946 24.5365 73.0505 24.2566 73.5231 24.0047ZM72.2444 22.1855C71.7718 22.4654 71.2437 22.7732 70.7711 23.0251L71.3549 23.8368C71.8552 23.6129 72.3834 23.333 72.8837 23.0811L72.2444 22.1855ZM71.6051 21.2339C71.1325 21.5138 70.5488 21.8776 70.1596 22.1015L70.6878 22.8572C71.1325 22.6053 71.6884 22.3254 72.161 22.0455L71.6051 21.2339ZM71.6051 21.2339C71.1325 21.5138 70.5488 21.8776 70.1596 22.1015L70.6878 22.8572C71.1325 22.6053 71.6884 22.3254 72.161 22.0455L71.6051 21.2339ZM72.2444 22.1855C71.7718 22.4654 71.2437 22.7732 70.7711 23.0251L71.3549 23.8368C71.8552 23.6129 72.3834 23.333 72.8837 23.0811L72.2444 22.1855ZM73.5231 24.0047L72.9671 23.1931L71.4383 23.9767L71.9942 24.7884C72.4946 24.5365 73.0505 24.2566 73.5231 24.0047ZM73.5786 24.0887L72.0776 24.8724L72.6335 25.684C73.1061 25.4321 73.6342 25.1523 74.1068 24.9284C73.8844 24.5645 73.6898 24.2566 73.5786 24.0887ZM73.5231 24.0047L72.9671 23.1931L71.4383 23.9767L71.9942 24.7884C72.4946 24.5365 73.0505 24.2566 73.5231 24.0047ZM72.2444 22.1855C71.7718 22.4654 71.2437 22.7732 70.7711 23.0251L71.3549 23.8368C71.8552 23.6129 72.3834 23.333 72.8837 23.0811L72.2444 22.1855ZM71.6051 21.2339C71.1325 21.5138 70.5488 21.8776 70.1596 22.1015L70.6878 22.8572C71.1325 22.6053 71.6884 22.3254 72.161 22.0455L71.6051 21.2339ZM71.6051 21.2339C71.1325 21.5138 70.5488 21.8776 70.1596 22.1015L70.6878 22.8572C71.1325 22.6053 71.6884 22.3254 72.161 22.0455L71.6051 21.2339ZM72.2444 22.1855C71.7718 22.4654 71.2437 22.7732 70.7711 23.0251L71.3549 23.8368C71.8552 23.6129 72.3834 23.333 72.8837 23.0811L72.2444 22.1855ZM73.5231 24.0047L72.9671 23.1931L71.4383 23.9767L71.9942 24.7884C72.4946 24.5365 73.0505 24.2566 73.5231 24.0047ZM73.5786 24.0887L72.0776 24.8724L72.6335 25.684C73.1061 25.4321 73.6342 25.1523 74.1068 24.9284C73.8844 24.5645 73.6898 24.2566 73.5786 24.0887ZM73.5231 24.0047L72.9671 23.1931L71.4383 23.9767L71.9942 24.7884C72.4946 24.5365 73.0505 24.2566 73.5231 24.0047ZM72.2444 22.1855C71.7718 22.4654 71.2437 22.7732 70.7711 23.0251L71.3549 23.8368C71.8552 23.6129 72.3834 23.333 72.8837 23.0811L72.2444 22.1855ZM71.6051 21.2339C71.1325 21.5138 70.5488 21.8776 70.1596 22.1015L70.6878 22.8572C71.1325 22.6053 71.6884 22.3254 72.161 22.0455L71.6051 21.2339ZM71.6051 21.2339C71.1325 21.5138 70.5488 21.8776 70.1596 22.1015L70.6878 22.8572C71.1325 22.6053 71.6884 22.3254 72.161 22.0455L71.6051 21.2339ZM72.2444 22.1855C71.7718 22.4654 71.2437 22.7732 70.7711 23.0251L71.3549 23.8368C71.8552 23.6129 72.3834 23.333 72.8837 23.0811L72.2444 22.1855ZM73.5231 24.0047L72.9671 23.1931L71.4383 23.9767L71.9942 24.7884C72.4946 24.5365 73.0505 24.2566 73.5231 24.0047ZM73.5786 24.0887L72.0776 24.8724L72.6335 25.684C73.1061 25.4321 73.6342 25.1523 74.1068 24.9284C73.8844 24.5645 73.6898 24.2566 73.5786 24.0887ZM73.5231 24.0047L72.9671 23.1931L71.4383 23.9767L71.9942 24.7884C72.4946 24.5365 73.0505 24.2566 73.5231 24.0047ZM72.2444 22.1855C71.7718 22.4654 71.2437 22.7732 70.7711 23.0251L71.3549 23.8368C71.8552 23.6129 72.3834 23.333 72.8837 23.0811L72.2444 22.1855ZM71.6051 21.2339C71.1325 21.5138 70.5488 21.8776 70.1596 22.1015L70.6878 22.8572C71.1325 22.6053 71.6884 22.3254 72.161 22.0455L71.6051 21.2339ZM71.6051 21.2339C71.1325 21.5138 70.5488 21.8776 70.1596 22.1015L70.6878 22.8572C71.1325 22.6053 71.6884 22.3254 72.161 22.0455L71.6051 21.2339ZM72.2444 22.1855C71.7718 22.4654 71.2437 22.7732 70.7711 23.0251L71.3549 23.8368C71.8552 23.6129 72.3834 23.333 72.8837 23.0811L72.2444 22.1855ZM73.5231 24.0047L72.9671 23.1931L71.4383 23.9767L71.9942 24.7884C72.4946 24.5365 73.0505 24.2566 73.5231 24.0047ZM73.5786 24.0887L72.0776 24.8724L72.6335 25.684C73.1061 25.4321 73.6342 25.1523 74.1068 24.9284C73.8844 24.5645 73.6898 24.2566 73.5786 24.0887ZM73.5231 24.0047L72.9671 23.1931L71.4383 23.9767L71.9942 24.7884C72.4946 24.5365 73.0505 24.2566 73.5231 24.0047ZM72.2444 22.1855C71.7718 22.4654 71.2437 22.7732 70.7711 23.0251L71.3549 23.8368C71.8552 23.6129 72.3834 23.333 72.8837 23.0811L72.2444 22.1855ZM71.6051 21.2339C71.1325 21.5138 70.5488 21.8776 70.1596 22.1015L70.6878 22.8572C71.1325 22.6053 71.6884 22.3254 72.161 22.0455L71.6051 21.2339ZM71.6051 21.2339C71.1325 21.5138 70.5488 21.8776 70.1596 22.1015L70.6878 22.8572C71.1325 22.6053 71.6884 22.3254 72.161 22.0455L71.6051 21.2339ZM72.2444 22.1855C71.7718 22.4654 71.2437 22.7732 70.7711 23.0251L71.3549 23.8368C71.8552 23.6129 72.3834 23.333 72.8837 23.0811L72.2444 22.1855ZM73.5231 24.0047L72.9671 23.1931L71.4383 23.9767L71.9942 24.7884C72.4946 24.5365 73.0505 24.2566 73.5231 24.0047ZM73.5786 24.0887L72.0776 24.8724L72.6335 25.684C73.1061 25.4321 73.6342 25.1523 74.1068 24.9284C73.8844 24.5645 73.6898 24.2566 73.5786 24.0887ZM73.5786 24.0887L72.0776 24.8724L72.6335 25.684C73.1061 25.4321 73.6342 25.1523 74.1068 24.9284C73.8844 24.5645 73.6898 24.2566 73.5786 24.0887ZM73.5231 24.0047L72.9671 23.1931L71.4383 23.9767L71.9942 24.7884C72.4946 24.5365 73.0505 24.2566 73.5231 24.0047ZM72.2444 22.1855C71.7718 22.4654 71.2437 22.7732 70.7711 23.0251L71.3549 23.8368C71.8552 23.6129 72.3834 23.333 72.8837 23.0811L72.2444 22.1855ZM71.6051 21.2339C71.1325 21.5138 70.5488 21.8776 70.1596 22.1015L70.6878 22.8572C71.1325 22.6053 71.6884 22.3254 72.161 22.0455L71.6051 21.2339ZM71.6051 21.2339C71.1325 21.5138 70.5488 21.8776 70.1596 22.1015L70.6878 22.8572C71.1325 22.6053 71.6884 22.3254 72.161 22.0455L71.6051 21.2339ZM72.2444 22.1855C71.7718 22.4654 71.2437 22.7732 70.7711 23.0251L71.3549 23.8368C71.8552 23.6129 72.3834 23.333 72.8837 23.0811L72.2444 22.1855ZM73.5231 24.0047L72.9671 23.1931L71.4383 23.9767L71.9942 24.7884C72.4946 24.5365 73.0505 24.2566 73.5231 24.0047ZM73.5786 24.0887L72.0776 24.8724L72.6335 25.684C73.1061 25.4321 73.6342 25.1523 74.1068 24.9284C73.8844 24.5645 73.6898 24.2566 73.5786 24.0887ZM73.5786 24.0887L72.0776 24.8724L72.6335 25.684C73.1061 25.4321 73.6342 25.1523 74.1068 24.9284C73.8844 24.5645 73.6898 24.2566 73.5786 24.0887ZM73.5231 24.0047L72.9671 23.1931L71.4383 23.9767L71.9942 24.7884C72.4946 24.5365 73.0505 24.2566 73.5231 24.0047ZM72.2444 22.1855C71.7718 22.4654 71.2437 22.7732 70.7711 23.0251L71.3549 23.8368C71.8552 23.6129 72.3834 23.333 72.8837 23.0811L72.2444 22.1855ZM71.6051 21.2339C71.1325 21.5138 70.5488 21.8776 70.1596 22.1015L70.6878 22.8572C71.1325 22.6053 71.6884 22.3254 72.161 22.0455L71.6051 21.2339ZM71.6051 21.2339C71.1325 21.5138 70.5488 21.8776 70.1596 22.1015L70.6878 22.8572C71.1325 22.6053 71.6884 22.3254 72.161 22.0455L71.6051 21.2339ZM72.2444 22.1855C71.7718 22.4654 71.2437 22.7732 70.7711 23.0251L71.3549 23.8368C71.8552 23.6129 72.3834 23.333 72.8837 23.0811L72.2444 22.1855ZM73.5231 24.0047L72.9671 23.1931L71.4383 23.9767L71.9942 24.7884C72.4946 24.5365 73.0505 24.2566 73.5231 24.0047ZM73.5786 24.0887L72.0776 24.8724L72.6335 25.684C73.1061 25.4321 73.6342 25.1523 74.1068 24.9284C73.8844 24.5645 73.6898 24.2566 73.5786 24.0887ZM73.5786 24.0887L72.0776 24.8724L72.6335 25.684C73.1061 25.4321 73.6342 25.1523 74.1068 24.9284C73.8844 24.5645 73.6898 24.2566 73.5786 24.0887ZM73.5231 24.0047L72.9671 23.1931L71.4383 23.9767L71.9942 24.7884C72.4946 24.5365 73.0505 24.2566 73.5231 24.0047ZM72.2444 22.1855C71.7718 22.4654 71.2437 22.7732 70.7711 23.0251L71.3549 23.8368C71.8552 23.6129 72.3834 23.333 72.8837 23.0811L72.2444 22.1855ZM71.6051 21.2339C71.1325 21.5138 70.5488 21.8776 70.1596 22.1015L70.6878 22.8572C71.1325 22.6053 71.6884 22.3254 72.161 22.0455L71.6051 21.2339ZM71.6051 21.2339C71.1325 21.5138 70.5488 21.8776 70.1596 22.1015L70.6878 22.8572C71.1325 22.6053 71.6884 22.3254 72.161 22.0455L71.6051 21.2339ZM72.2444 22.1855C71.7718 22.4654 71.2437 22.7732 70.7711 23.0251L71.3549 23.8368C71.8552 23.6129 72.3834 23.333 72.8837 23.0811L72.2444 22.1855ZM73.5231 24.0047L72.9671 23.1931L71.4383 23.9767L71.9942 24.7884C72.4946 24.5365 73.0505 24.2566 73.5231 24.0047ZM73.5786 24.0887L72.0776 24.8724L72.6335 25.684C73.1061 25.4321 73.6342 25.1523 74.1068 24.9284C73.8844 24.5645 73.6898 24.2566 73.5786 24.0887ZM73.5786 24.0887L72.0776 24.8724L72.6335 25.684C73.1061 25.4321 73.6342 25.1523 74.1068 24.9284C73.8844 24.5645 73.6898 24.2566 73.5786 24.0887ZM73.5231 24.0047L72.9671 23.1931L71.4383 23.9767L71.9942 24.7884C72.4946 24.5365 73.0505 24.2566 73.5231 24.0047ZM72.2444 22.1855C71.7718 22.4654 71.2437 22.7732 70.7711 23.0251L71.3549 23.8368C71.8552 23.6129 72.3834 23.333 72.8837 23.0811L72.2444 22.1855ZM71.6051 21.2339C71.1325 21.5138 70.5488 21.8776 70.1596 22.1015L70.6878 22.8572C71.1325 22.6053 71.6884 22.3254 72.161 22.0455L71.6051 21.2339ZM71.6051 21.2339C71.1325 21.5138 70.5488 21.8776 70.1596 22.1015L70.6878 22.8572C71.1325 22.6053 71.6884 22.3254 72.161 22.0455L71.6051 21.2339ZM72.2444 22.1855C71.7718 22.4654 71.2437 22.7732 70.7711 23.0251L71.3549 23.8368C71.8552 23.6129 72.3834 23.333 72.8837 23.0811L72.2444 22.1855ZM73.5231 24.0047L72.9671 23.1931L71.4383 23.9767L71.9942 24.7884C72.4946 24.5365 73.0505 24.2566 73.5231 24.0047ZM73.5786 24.0887L72.0776 24.8724L72.6335 25.684C73.1061 25.4321 73.6342 25.1523 74.1068 24.9284C73.8844 24.5645 73.6898 24.2566 73.5786 24.0887ZM74.2736 25.1523C73.801 25.3762 73.2729 25.6561 72.7725 25.88L73.3007 26.6357C73.7454 26.4397 74.3292 26.1878 74.8017 25.9639C74.6349 25.712 74.4682 25.4321 74.2736 25.1523ZM74.2736 25.1523C73.801 25.3762 73.2729 25.6561 72.7725 25.88L73.3007 26.6357C73.7454 26.4397 74.3292 26.1878 74.8017 25.9639C74.6349 25.712 74.4682 25.4321 74.2736 25.1523ZM73.5786 24.0887L72.0776 24.8724L72.6335 25.684C73.1061 25.4321 73.6342 25.1523 74.1068 24.9284C73.8844 24.5645 73.6898 24.2566 73.5786 24.0887ZM73.5231 24.0047L72.9671 23.1931L71.4383 23.9767L71.9942 24.7884C72.4946 24.5365 73.0505 24.2566 73.5231 24.0047ZM72.2444 22.1855C71.7718 22.4654 71.2437 22.7732 70.7711 23.0251L71.3549 23.8368C71.8552 23.6129 72.3834 23.333 72.8837 23.0811L72.2444 22.1855ZM71.6051 21.2339C71.1325 21.5138 70.5488 21.8776 70.1596 22.1015L70.6878 22.8572C71.1325 22.6053 71.6884 22.3254 72.161 22.0455L71.6051 21.2339ZM71.6051 21.2339C71.1325 21.5138 70.5488 21.8776 70.1596 22.1015L70.6878 22.8572C71.1325 22.6053 71.6884 22.3254 72.161 22.0455L71.6051 21.2339ZM72.2444 22.1855C71.7718 22.4654 71.2437 22.7732 70.7711 23.0251L71.3549 23.8368C71.8552 23.6129 72.3834 23.333 72.8837 23.0811L72.2444 22.1855ZM73.5231 24.0047L72.9671 23.1931L71.4383 23.9767L71.9942 24.7884C72.4946 24.5365 73.0505 24.2566 73.5231 24.0047ZM73.5786 24.0887L72.0776 24.8724L72.6335 25.684C73.1061 25.4321 73.6342 25.1523 74.1068 24.9284C73.8844 24.5645 73.6898 24.2566 73.5786 24.0887ZM74.2736 25.1523C73.801 25.3762 73.2729 25.6561 72.7725 25.88L73.3007 26.6357C73.7454 26.4397 74.3292 26.1878 74.8017 25.9639C74.6349 25.712 74.4682 25.4321 74.2736 25.1523ZM74.2736 25.1523C73.801 25.3762 73.2729 25.6561 72.7725 25.88L73.3007 26.6357C73.7454 26.4397 74.3292 26.1878 74.8017 25.9639C74.6349 25.712 74.4682 25.4321 74.2736 25.1523ZM73.5786 24.0887L72.0776 24.8724L72.6335 25.684C73.1061 25.4321 73.6342 25.1523 74.1068 24.9284C73.8844 24.5645 73.6898 24.2566 73.5786 24.0887ZM73.5231 24.0047L72.9671 23.1931L71.4383 23.9767L71.9942 24.7884C72.4946 24.5365 73.0505 24.2566 73.5231 24.0047ZM72.2444 22.1855C71.7718 22.4654 71.2437 22.7732 70.7711 23.0251L71.3549 23.8368C71.8552 23.6129 72.3834 23.333 72.8837 23.0811L72.2444 22.1855ZM71.6051 21.2339C71.1325 21.5138 70.5488 21.8776 70.1596 22.1015L70.6878 22.8572C71.1325 22.6053 71.6884 22.3254 72.161 22.0455L71.6051 21.2339ZM71.6051 21.2339C71.1325 21.5138 70.5488 21.8776 70.1596 22.1015L70.6878 22.8572C71.1325 22.6053 71.6884 22.3254 72.161 22.0455L71.6051 21.2339ZM72.2444 22.1855C71.7718 22.4654 71.2437 22.7732 70.7711 23.0251L71.3549 23.8368C71.8552 23.6129 72.3834 23.333 72.8837 23.0811L72.2444 22.1855ZM73.5231 24.0047L72.9671 23.1931L71.4383 23.9767L71.9942 24.7884C72.4946 24.5365 73.0505 24.2566 73.5231 24.0047ZM73.5786 24.0887L72.0776 24.8724L72.6335 25.684C73.1061 25.4321 73.6342 25.1523 74.1068 24.9284C73.8844 24.5645 73.6898 24.2566 73.5786 24.0887ZM74.2736 25.1523C73.801 25.3762 73.2729 25.6561 72.7725 25.88L73.3007 26.6357C73.7454 26.4397 74.3292 26.1878 74.8017 25.9639C74.6349 25.712 74.4682 25.4321 74.2736 25.1523ZM74.2736 25.1523C73.801 25.3762 73.2729 25.6561 72.7725 25.88L73.3007 26.6357C73.7454 26.4397 74.3292 26.1878 74.8017 25.9639C74.6349 25.712 74.4682 25.4321 74.2736 25.1523ZM73.5786 24.0887L72.0776 24.8724L72.6335 25.684C73.1061 25.4321 73.6342 25.1523 74.1068 24.9284C73.8844 24.5645 73.6898 24.2566 73.5786 24.0887ZM73.5231 24.0047L72.9671 23.1931L71.4383 23.9767L71.9942 24.7884C72.4946 24.5365 73.0505 24.2566 73.5231 24.0047ZM72.2444 22.1855C71.7718 22.4654 71.2437 22.7732 70.7711 23.0251L71.3549 23.8368C71.8552 23.6129 72.3834 23.333 72.8837 23.0811L72.2444 22.1855ZM71.6051 21.2339C71.1325 21.5138 70.5488 21.8776 70.1596 22.1015L70.6878 22.8572C71.1325 22.6053 71.6884 22.3254 72.161 22.0455L71.6051 21.2339ZM71.6051 21.2339C71.1325 21.5138 70.5488 21.8776 70.1596 22.1015L70.6878 22.8572C71.1325 22.6053 71.6884 22.3254 72.161 22.0455L71.6051 21.2339ZM72.2444 22.1855C71.7718 22.4654 71.2437 22.7732 70.7711 23.0251L71.3549 23.8368C71.8552 23.6129 72.3834 23.333 72.8837 23.0811L72.2444 22.1855ZM73.5231 24.0047L72.9671 23.1931L71.4383 23.9767L71.9942 24.7884C72.4946 24.5365 73.0505 24.2566 73.5231 24.0047ZM73.5786 24.0887L72.0776 24.8724L72.6335 25.684C73.1061 25.4321 73.6342 25.1523 74.1068 24.9284C73.8844 24.5645 73.6898 24.2566 73.5786 24.0887ZM74.2736 25.1523C73.801 25.3762 73.2729 25.6561 72.7725 25.88L73.3007 26.6357C73.7454 26.4397 74.3292 26.1878 74.8017 25.9639C74.6349 25.712 74.4682 25.4321 74.2736 25.1523ZM74.2736 25.1523C73.801 25.3762 73.2729 25.6561 72.7725 25.88L73.3007 26.6357C73.7454 26.4397 74.3292 26.1878 74.8017 25.9639C74.6349 25.712 74.4682 25.4321 74.2736 25.1523ZM73.5786 24.0887L72.0776 24.8724L72.6335 25.684C73.1061 25.4321 73.6342 25.1523 74.1068 24.9284C73.8844 24.5645 73.6898 24.2566 73.5786 24.0887ZM73.5231 24.0047L72.9671 23.1931L71.4383 23.9767L71.9942 24.7884C72.4946 24.5365 73.0505 24.2566 73.5231 24.0047ZM72.2444 22.1855C71.7718 22.4654 71.2437 22.7732 70.7711 23.0251L71.3549 23.8368C71.8552 23.6129 72.3834 23.333 72.8837 23.0811L72.2444 22.1855ZM71.6051 21.2339C71.1325 21.5138 70.5488 21.8776 70.1596 22.1015L70.6878 22.8572C71.1325 22.6053 71.6884 22.3254 72.161 22.0455L71.6051 21.2339ZM71.6051 21.2339C71.1325 21.5138 70.5488 21.8776 70.1596 22.1015L70.6878 22.8572C71.1325 22.6053 71.6884 22.3254 72.161 22.0455L71.6051 21.2339ZM72.2444 22.1855C71.7718 22.4654 71.2437 22.7732 70.7711 23.0251L71.3549 23.8368C71.8552 23.6129 72.3834 23.333 72.8837 23.0811L72.2444 22.1855ZM73.5231 24.0047L72.9671 23.1931L71.4383 23.9767L71.9942 24.7884C72.4946 24.5365 73.0505 24.2566 73.5231 24.0047ZM73.5786 24.0887L72.0776 24.8724L72.6335 25.684C73.1061 25.4321 73.6342 25.1523 74.1068 24.9284C73.8844 24.5645 73.6898 24.2566 73.5786 24.0887ZM74.2736 25.1523C73.801 25.3762 73.2729 25.6561 72.7725 25.88L73.3007 26.6357C73.7454 26.4397 74.3292 26.1878 74.8017 25.9639C74.6349 25.712 74.4682 25.4321 74.2736 25.1523ZM74.2736 25.1523C73.801 25.3762 73.2729 25.6561 72.7725 25.88L73.3007 26.6357C73.7454 26.4397 74.3292 26.1878 74.8017 25.9639C74.6349 25.712 74.4682 25.4321 74.2736 25.1523ZM73.5786 24.0887L72.0776 24.8724L72.6335 25.684C73.1061 25.4321 73.6342 25.1523 74.1068 24.9284C73.8844 24.5645 73.6898 24.2566 73.5786 24.0887ZM73.5231 24.0047L72.9671 23.1931L71.4383 23.9767L71.9942 24.7884C72.4946 24.5365 73.0505 24.2566 73.5231 24.0047ZM72.2444 22.1855C71.7718 22.4654 71.2437 22.7732 70.7711 23.0251L71.3549 23.8368C71.8552 23.6129 72.3834 23.333 72.8837 23.0811L72.2444 22.1855ZM71.6051 21.2339C71.1325 21.5138 70.5488 21.8776 70.1596 22.1015L70.6878 22.8572C71.1325 22.6053 71.6884 22.3254 72.161 22.0455L71.6051 21.2339ZM74.3848 21.2619C73.4675 20.0584 72.4112 19.7505 71.5773 19.7505C70.7155 19.7505 69.9094 20.1983 69.4647 20.926C67.6579 23.7808 70.6322 26.6077 72.1888 27.8112C72.7447 28.259 73.4675 28.4829 74.1624 28.3709C75.3299 28.147 75.9414 27.4193 76.5251 26.7476C77.2757 25.908 76.1916 23.6409 74.3848 21.2619ZM76.1082 26.5237C76.0526 26.5797 75.9414 26.6636 75.9414 26.6636L74.9407 27.1394L73.94 27.5313L74.1346 27.7832C74.1346 27.7832 74.0234 28.0071 73.9678 27.9231C73.9678 27.8951 73.8844 27.7832 73.7454 27.6153L73.4675 27.7272C73.4675 27.7272 73.2173 27.6432 73.5231 27.5313C73.5231 27.5313 73.5786 27.5033 73.662 27.4753C73.5231 27.2794 73.3841 27.0555 73.2173 26.8036L72.3 27.2234C72.3 27.2234 72.0498 27.1394 72.6058 26.9155C72.6058 26.9155 72.8281 26.8316 73.1617 26.6916C72.9949 26.4117 72.8003 26.1598 72.6613 25.9359C71.8552 26.3278 71.2437 26.6077 71.2437 26.6077C71.2437 26.6077 71.0769 26.5237 71.2437 26.4117C71.2437 26.4117 71.8274 26.1039 72.5502 25.74C72.3834 25.4601 72.2444 25.2922 72.2444 25.2922L71.9942 24.9284L70.5766 25.6561C70.5766 25.6561 70.3542 25.6281 70.6322 25.4042C70.6322 25.4042 71.1881 25.1243 71.9108 24.7884L71.3549 23.9767L70.0762 24.6205C70.0762 24.6205 69.7704 24.7044 69.9928 24.4246C69.9928 24.4246 70.5488 24.1727 71.2715 23.8368L70.7155 23.0251C70.104 23.361 69.6593 23.6129 69.6315 23.6129C69.6037 23.6129 69.4369 23.473 69.6593 23.333C69.6593 23.333 70.0484 23.1371 70.5766 22.8292L70.0484 22.0735C69.7982 22.2135 69.6315 22.3254 69.6037 22.2974C69.5203 22.2695 69.4369 22.1855 69.6037 22.0735C69.6037 22.0735 69.7427 21.9896 69.9372 21.8776L69.7426 21.5977C69.7426 21.5977 69.6037 21.3178 69.7426 21.3738L70.0484 21.8216C70.4376 21.5977 71.0213 21.2619 71.4939 20.982L71.1603 20.5062C70.6322 20.814 69.7704 21.2059 69.7704 21.2059C69.3813 21.1779 70.3542 20.6181 71.0213 20.2823C70.9935 20.1983 70.9379 20.0304 71.0213 20.0863L71.1047 20.2263C71.3271 20.1143 71.4939 20.0304 71.5217 20.0304C71.6328 20.0304 71.5217 20.2543 71.5217 20.2543C71.4661 20.3103 71.3827 20.3662 71.2437 20.4502L71.5773 20.926C71.9942 20.6741 72.3278 20.4502 72.3556 20.3662C72.4668 20.1423 72.6335 20.4502 72.5502 20.5062C72.5224 20.5342 72.161 20.7581 71.6884 21.0659L72.2444 21.8776C72.8837 21.5138 73.4119 21.2339 73.4397 21.1499C73.5231 20.982 73.6898 21.1219 73.6898 21.2059C73.6898 21.2339 73.0783 21.5977 72.3556 22.0176L72.9949 22.9132C73.6342 22.5773 74.1346 22.2695 74.218 22.1575C74.4126 21.7657 74.4404 22.1575 74.4404 22.1575L74.2458 22.3254L73.5509 22.7732L73.0783 23.0251L73.662 23.8368C74.2458 23.5289 74.6905 23.277 74.7183 23.2211C74.8295 22.9972 75.0797 22.9972 75.0519 23.1091C75.0241 23.2211 74.7739 23.361 74.7739 23.361L73.7176 23.9208L74.3014 24.7324C74.9129 24.4246 75.3855 24.1727 75.441 24.1447C75.6356 24.0607 75.8024 24.0887 75.8024 24.2007C75.8024 24.2566 75.1909 24.5645 74.4404 24.9284L74.9963 25.74C75.3021 25.6001 75.5244 25.4601 75.6078 25.3762C75.9136 25.0683 76.0526 25.2362 76.0526 25.2642C76.0248 25.2922 75.6078 25.6001 75.6078 25.6001L75.0797 25.824L75.441 26.3558C75.441 26.3558 75.3299 26.5797 75.2743 26.4957C75.2465 26.4677 75.1075 26.2438 74.8851 25.908L73.9678 26.3278L73.4119 26.5797L73.8844 27.2514C74.4959 27.0275 75.7468 26.5517 75.9136 26.3558C76.0804 26.2998 76.1638 26.4677 76.1082 26.5237ZM74.2736 25.1523C73.801 25.3762 73.2729 25.6561 72.7725 25.88L73.3007 26.6357C73.7454 26.4397 74.3292 26.1878 74.8017 25.9639C74.6349 25.712 74.4682 25.4321 74.2736 25.1523ZM73.5786 24.0887L72.0776 24.8724L72.6335 25.684C73.1061 25.4321 73.6342 25.1523 74.1068 24.9284C73.8844 24.5645 73.6898 24.2566 73.5786 24.0887ZM73.5231 24.0047L72.9671 23.1931L71.4383 23.9767L71.9942 24.7884C72.4946 24.5365 73.0505 24.2566 73.5231 24.0047ZM72.2444 22.1855C71.7718 22.4654 71.2437 22.7732 70.7711 23.0251L71.3549 23.8368C71.8552 23.6129 72.3834 23.333 72.8837 23.0811L72.2444 22.1855ZM71.6051 21.2339C71.1325 21.5138 70.5488 21.8776 70.1596 22.1015L70.6878 22.8572C71.1325 22.6053 71.6884 22.3254 72.161 22.0455L71.6051 21.2339ZM71.6051 21.2339C71.1325 21.5138 70.5488 21.8776 70.1596 22.1015L70.6878 22.8572C71.1325 22.6053 71.6884 22.3254 72.161 22.0455L71.6051 21.2339ZM72.2444 22.1855C71.7718 22.4654 71.2437 22.7732 70.7711 23.0251L71.3549 23.8368C71.8552 23.6129 72.3834 23.333 72.8837 23.0811L72.2444 22.1855ZM73.5231 24.0047L72.9671 23.1931L71.4383 23.9767L71.9942 24.7884C72.4946 24.5365 73.0505 24.2566 73.5231 24.0047ZM73.5786 24.0887L72.0776 24.8724L72.6335 25.684C73.1061 25.4321 73.6342 25.1523 74.1068 24.9284C73.8844 24.5645 73.6898 24.2566 73.5786 24.0887ZM74.2736 25.1523C73.801 25.3762 73.2729 25.6561 72.7725 25.88L73.3007 26.6357C73.7454 26.4397 74.3292 26.1878 74.8017 25.9639C74.6349 25.712 74.4682 25.4321 74.2736 25.1523ZM74.2736 25.1523C73.801 25.3762 73.2729 25.6561 72.7725 25.88L73.3007 26.6357C73.7454 26.4397 74.3292 26.1878 74.8017 25.9639C74.6349 25.712 74.4682 25.4321 74.2736 25.1523ZM73.5786 24.0887L72.0776 24.8724L72.6335 25.684C73.1061 25.4321 73.6342 25.1523 74.1068 24.9284C73.8844 24.5645 73.6898 24.2566 73.5786 24.0887ZM73.5231 24.0047L72.9671 23.1931L71.4383 23.9767L71.9942 24.7884C72.4946 24.5365 73.0505 24.2566 73.5231 24.0047ZM72.2444 22.1855C71.7718 22.4654 71.2437 22.7732 70.7711 23.0251L71.3549 23.8368C71.8552 23.6129 72.3834 23.333 72.8837 23.0811L72.2444 22.1855ZM71.6051 21.2339C71.1325 21.5138 70.5488 21.8776 70.1596 22.1015L70.6878 22.8572C71.1325 22.6053 71.6884 22.3254 72.161 22.0455L71.6051 21.2339ZM71.6051 21.2339C71.1325 21.5138 70.5488 21.8776 70.1596 22.1015L70.6878 22.8572C71.1325 22.6053 71.6884 22.3254 72.161 22.0455L71.6051 21.2339ZM72.2444 22.1855C71.7718 22.4654 71.2437 22.7732 70.7711 23.0251L71.3549 23.8368C71.8552 23.6129 72.3834 23.333 72.8837 23.0811L72.2444 22.1855ZM73.5231 24.0047L72.9671 23.1931L71.4383 23.9767L71.9942 24.7884C72.4946 24.5365 73.0505 24.2566 73.5231 24.0047ZM73.5786 24.0887L72.0776 24.8724L72.6335 25.684C73.1061 25.4321 73.6342 25.1523 74.1068 24.9284C73.8844 24.5645 73.6898 24.2566 73.5786 24.0887ZM74.2736 25.1523C73.801 25.3762 73.2729 25.6561 72.7725 25.88L73.3007 26.6357C73.7454 26.4397 74.3292 26.1878 74.8017 25.9639C74.6349 25.712 74.4682 25.4321 74.2736 25.1523ZM74.2736 25.1523C73.801 25.3762 73.2729 25.6561 72.7725 25.88L73.3007 26.6357C73.7454 26.4397 74.3292 26.1878 74.8017 25.9639C74.6349 25.712 74.4682 25.4321 74.2736 25.1523ZM73.5786 24.0887L72.0776 24.8724L72.6335 25.684C73.1061 25.4321 73.6342 25.1523 74.1068 24.9284C73.8844 24.5645 73.6898 24.2566 73.5786 24.0887ZM73.5231 24.0047L72.9671 23.1931L71.4383 23.9767L71.9942 24.7884C72.4946 24.5365 73.0505 24.2566 73.5231 24.0047ZM72.2444 22.1855C71.7718 22.4654 71.2437 22.7732 70.7711 23.0251L71.3549 23.8368C71.8552 23.6129 72.3834 23.333 72.8837 23.0811L72.2444 22.1855ZM71.6051 21.2339C71.1325 21.5138 70.5488 21.8776 70.1596 22.1015L70.6878 22.8572C71.1325 22.6053 71.6884 22.3254 72.161 22.0455L71.6051 21.2339ZM71.6051 21.2339C71.1325 21.5138 70.5488 21.8776 70.1596 22.1015L70.6878 22.8572C71.1325 22.6053 71.6884 22.3254 72.161 22.0455L71.6051 21.2339ZM72.2444 22.1855C71.7718 22.4654 71.2437 22.7732 70.7711 23.0251L71.3549 23.8368C71.8552 23.6129 72.3834 23.333 72.8837 23.0811L72.2444 22.1855ZM73.5231 24.0047L72.9671 23.1931L71.4383 23.9767L71.9942 24.7884C72.4946 24.5365 73.0505 24.2566 73.5231 24.0047ZM73.5786 24.0887L72.0776 24.8724L72.6335 25.684C73.1061 25.4321 73.6342 25.1523 74.1068 24.9284C73.8844 24.5645 73.6898 24.2566 73.5786 24.0887ZM74.2736 25.1523C73.801 25.3762 73.2729 25.6561 72.7725 25.88L73.3007 26.6357C73.7454 26.4397 74.3292 26.1878 74.8017 25.9639C74.6349 25.712 74.4682 25.4321 74.2736 25.1523ZM74.2736 25.1523C73.801 25.3762 73.2729 25.6561 72.7725 25.88L73.3007 26.6357C73.7454 26.4397 74.3292 26.1878 74.8017 25.9639C74.6349 25.712 74.4682 25.4321 74.2736 25.1523ZM73.5786 24.0887L72.0776 24.8724L72.6335 25.684C73.1061 25.4321 73.6342 25.1523 74.1068 24.9284C73.8844 24.5645 73.6898 24.2566 73.5786 24.0887ZM73.5231 24.0047L72.9671 23.1931L71.4383 23.9767L71.9942 24.7884C72.4946 24.5365 73.0505 24.2566 73.5231 24.0047ZM72.2444 22.1855C71.7718 22.4654 71.2437 22.7732 70.7711 23.0251L71.3549 23.8368C71.8552 23.6129 72.3834 23.333 72.8837 23.0811L72.2444 22.1855ZM71.6051 21.2339C71.1325 21.5138 70.5488 21.8776 70.1596 22.1015L70.6878 22.8572C71.1325 22.6053 71.6884 22.3254 72.161 22.0455L71.6051 21.2339ZM71.6051 21.2339C71.1325 21.5138 70.5488 21.8776 70.1596 22.1015L70.6878 22.8572C71.1325 22.6053 71.6884 22.3254 72.161 22.0455L71.6051 21.2339ZM72.2444 22.1855C71.7718 22.4654 71.2437 22.7732 70.7711 23.0251L71.3549 23.8368C71.8552 23.6129 72.3834 23.333 72.8837 23.0811L72.2444 22.1855ZM73.5231 24.0047L72.9671 23.1931L71.4383 23.9767L71.9942 24.7884C72.4946 24.5365 73.0505 24.2566 73.5231 24.0047ZM73.5786 24.0887L72.0776 24.8724L72.6335 25.684C73.1061 25.4321 73.6342 25.1523 74.1068 24.9284C73.8844 24.5645 73.6898 24.2566 73.5786 24.0887ZM74.2736 25.1523C73.801 25.3762 73.2729 25.6561 72.7725 25.88L73.3007 26.6357C73.7454 26.4397 74.3292 26.1878 74.8017 25.9639C74.6349 25.712 74.4682 25.4321 74.2736 25.1523ZM74.2736 25.1523C73.801 25.3762 73.2729 25.6561 72.7725 25.88L73.3007 26.6357C73.7454 26.4397 74.3292 26.1878 74.8017 25.9639C74.6349 25.712 74.4682 25.4321 74.2736 25.1523ZM73.5786 24.0887L72.0776 24.8724L72.6335 25.684C73.1061 25.4321 73.6342 25.1523 74.1068 24.9284C73.8844 24.5645 73.6898 24.2566 73.5786 24.0887ZM73.5231 24.0047L72.9671 23.1931L71.4383 23.9767L71.9942 24.7884C72.4946 24.5365 73.0505 24.2566 73.5231 24.0047ZM72.2444 22.1855C71.7718 22.4654 71.2437 22.7732 70.7711 23.0251L71.3549 23.8368C71.8552 23.6129 72.3834 23.333 72.8837 23.0811L72.2444 22.1855ZM71.6051 21.2339C71.1325 21.5138 70.5488 21.8776 70.1596 22.1015L70.6878 22.8572C71.1325 22.6053 71.6884 22.3254 72.161 22.0455L71.6051 21.2339ZM71.6051 21.2339C71.1325 21.5138 70.5488 21.8776 70.1596 22.1015L70.6878 22.8572C71.1325 22.6053 71.6884 22.3254 72.161 22.0455L71.6051 21.2339ZM72.2444 22.1855C71.7718 22.4654 71.2437 22.7732 70.7711 23.0251L71.3549 23.8368C71.8552 23.6129 72.3834 23.333 72.8837 23.0811L72.2444 22.1855ZM73.5231 24.0047L72.9671 23.1931L71.4383 23.9767L71.9942 24.7884C72.4946 24.5365 73.0505 24.2566 73.5231 24.0047ZM73.5786 24.0887L72.0776 24.8724L72.6335 25.684C73.1061 25.4321 73.6342 25.1523 74.1068 24.9284C73.8844 24.5645 73.6898 24.2566 73.5786 24.0887ZM73.5786 24.0887L72.0776 24.8724L72.6335 25.684C73.1061 25.4321 73.6342 25.1523 74.1068 24.9284C73.8844 24.5645 73.6898 24.2566 73.5786 24.0887ZM73.5231 24.0047L72.9671 23.1931L71.4383 23.9767L71.9942 24.7884C72.4946 24.5365 73.0505 24.2566 73.5231 24.0047ZM72.2444 22.1855C71.7718 22.4654 71.2437 22.7732 70.7711 23.0251L71.3549 23.8368C71.8552 23.6129 72.3834 23.333 72.8837 23.0811L72.2444 22.1855ZM71.6051 21.2339C71.1325 21.5138 70.5488 21.8776 70.1596 22.1015L70.6878 22.8572C71.1325 22.6053 71.6884 22.3254 72.161 22.0455L71.6051 21.2339ZM71.6051 21.2339C71.1325 21.5138 70.5488 21.8776 70.1596 22.1015L70.6878 22.8572C71.1325 22.6053 71.6884 22.3254 72.161 22.0455L71.6051 21.2339ZM72.2444 22.1855C71.7718 22.4654 71.2437 22.7732 70.7711 23.0251L71.3549 23.8368C71.8552 23.6129 72.3834 23.333 72.8837 23.0811L72.2444 22.1855ZM73.5231 24.0047L72.9671 23.1931L71.4383 23.9767L71.9942 24.7884C72.4946 24.5365 73.0505 24.2566 73.5231 24.0047ZM73.5786 24.0887L72.0776 24.8724L72.6335 25.684C73.1061 25.4321 73.6342 25.1523 74.1068 24.9284C73.8844 24.5645 73.6898 24.2566 73.5786 24.0887ZM73.5786 24.0887L72.0776 24.8724L72.6335 25.684C73.1061 25.4321 73.6342 25.1523 74.1068 24.9284C73.8844 24.5645 73.6898 24.2566 73.5786 24.0887ZM73.5231 24.0047L72.9671 23.1931L71.4383 23.9767L71.9942 24.7884C72.4946 24.5365 73.0505 24.2566 73.5231 24.0047ZM72.2444 22.1855C71.7718 22.4654 71.2437 22.7732 70.7711 23.0251L71.3549 23.8368C71.8552 23.6129 72.3834 23.333 72.8837 23.0811L72.2444 22.1855ZM71.6051 21.2339C71.1325 21.5138 70.5488 21.8776 70.1596 22.1015L70.6878 22.8572C71.1325 22.6053 71.6884 22.3254 72.161 22.0455L71.6051 21.2339ZM71.6051 21.2339C71.1325 21.5138 70.5488 21.8776 70.1596 22.1015L70.6878 22.8572C71.1325 22.6053 71.6884 22.3254 72.161 22.0455L71.6051 21.2339ZM72.2444 22.1855C71.7718 22.4654 71.2437 22.7732 70.7711 23.0251L71.3549 23.8368C71.8552 23.6129 72.3834 23.333 72.8837 23.0811L72.2444 22.1855ZM73.5231 24.0047L72.9671 23.1931L71.4383 23.9767L71.9942 24.7884C72.4946 24.5365 73.0505 24.2566 73.5231 24.0047ZM73.5786 24.0887L72.0776 24.8724L72.6335 25.684C73.1061 25.4321 73.6342 25.1523 74.1068 24.9284C73.8844 24.5645 73.6898 24.2566 73.5786 24.0887ZM73.5786 24.0887L72.0776 24.8724L72.6335 25.684C73.1061 25.4321 73.6342 25.1523 74.1068 24.9284C73.8844 24.5645 73.6898 24.2566 73.5786 24.0887ZM73.5231 24.0047L72.9671 23.1931L71.4383 23.9767L71.9942 24.7884C72.4946 24.5365 73.0505 24.2566 73.5231 24.0047ZM72.2444 22.1855C71.7718 22.4654 71.2437 22.7732 70.7711 23.0251L71.3549 23.8368C71.8552 23.6129 72.3834 23.333 72.8837 23.0811L72.2444 22.1855ZM71.6051 21.2339C71.1325 21.5138 70.5488 21.8776 70.1596 22.1015L70.6878 22.8572C71.1325 22.6053 71.6884 22.3254 72.161 22.0455L71.6051 21.2339ZM71.6051 21.2339C71.1325 21.5138 70.5488 21.8776 70.1596 22.1015L70.6878 22.8572C71.1325 22.6053 71.6884 22.3254 72.161 22.0455L71.6051 21.2339ZM72.2444 22.1855C71.7718 22.4654 71.2437 22.7732 70.7711 23.0251L71.3549 23.8368C71.8552 23.6129 72.3834 23.333 72.8837 23.0811L72.2444 22.1855ZM73.5231 24.0047L72.9671 23.1931L71.4383 23.9767L71.9942 24.7884C72.4946 24.5365 73.0505 24.2566 73.5231 24.0047ZM73.5786 24.0887L72.0776 24.8724L72.6335 25.684C73.1061 25.4321 73.6342 25.1523 74.1068 24.9284C73.8844 24.5645 73.6898 24.2566 73.5786 24.0887ZM73.5786 24.0887L72.0776 24.8724L72.6335 25.684C73.1061 25.4321 73.6342 25.1523 74.1068 24.9284C73.8844 24.5645 73.6898 24.2566 73.5786 24.0887ZM73.5231 24.0047L72.9671 23.1931L71.4383 23.9767L71.9942 24.7884C72.4946 24.5365 73.0505 24.2566 73.5231 24.0047ZM72.2444 22.1855C71.7718 22.4654 71.2437 22.7732 70.7711 23.0251L71.3549 23.8368C71.8552 23.6129 72.3834 23.333 72.8837 23.0811L72.2444 22.1855ZM71.6051 21.2339C71.1325 21.5138 70.5488 21.8776 70.1596 22.1015L70.6878 22.8572C71.1325 22.6053 71.6884 22.3254 72.161 22.0455L71.6051 21.2339ZM71.6051 21.2339C71.1325 21.5138 70.5488 21.8776 70.1596 22.1015L70.6878 22.8572C71.1325 22.6053 71.6884 22.3254 72.161 22.0455L71.6051 21.2339ZM72.2444 22.1855C71.7718 22.4654 71.2437 22.7732 70.7711 23.0251L71.3549 23.8368C71.8552 23.6129 72.3834 23.333 72.8837 23.0811L72.2444 22.1855ZM73.5231 24.0047L72.9671 23.1931L71.4383 23.9767L71.9942 24.7884C72.4946 24.5365 73.0505 24.2566 73.5231 24.0047ZM73.5786 24.0887L72.0776 24.8724L72.6335 25.684C73.1061 25.4321 73.6342 25.1523 74.1068 24.9284C73.8844 24.5645 73.6898 24.2566 73.5786 24.0887ZM73.5786 24.0887L72.0776 24.8724L72.6335 25.684C73.1061 25.4321 73.6342 25.1523 74.1068 24.9284C73.8844 24.5645 73.6898 24.2566 73.5786 24.0887ZM73.5231 24.0047L72.9671 23.1931L71.4383 23.9767L71.9942 24.7884C72.4946 24.5365 73.0505 24.2566 73.5231 24.0047ZM72.2444 22.1855C71.7718 22.4654 71.2437 22.7732 70.7711 23.0251L71.3549 23.8368C71.8552 23.6129 72.3834 23.333 72.8837 23.0811L72.2444 22.1855ZM71.6051 21.2339C71.1325 21.5138 70.5488 21.8776 70.1596 22.1015L70.6878 22.8572C71.1325 22.6053 71.6884 22.3254 72.161 22.0455L71.6051 21.2339ZM71.6051 21.2339C71.1325 21.5138 70.5488 21.8776 70.1596 22.1015L70.6878 22.8572C71.1325 22.6053 71.6884 22.3254 72.161 22.0455L71.6051 21.2339ZM72.2444 22.1855C71.7718 22.4654 71.2437 22.7732 70.7711 23.0251L71.3549 23.8368C71.8552 23.6129 72.3834 23.333 72.8837 23.0811L72.2444 22.1855ZM73.5231 24.0047L72.9671 23.1931L71.4383 23.9767L71.9942 24.7884C72.4946 24.5365 73.0505 24.2566 73.5231 24.0047ZM73.5786 24.0887L72.0776 24.8724L72.6335 25.684C73.1061 25.4321 73.6342 25.1523 74.1068 24.9284C73.8844 24.5645 73.6898 24.2566 73.5786 24.0887ZM73.5231 24.0047L72.9671 23.1931L71.4383 23.9767L71.9942 24.7884C72.4946 24.5365 73.0505 24.2566 73.5231 24.0047ZM72.2444 22.1855C71.7718 22.4654 71.2437 22.7732 70.7711 23.0251L71.3549 23.8368C71.8552 23.6129 72.3834 23.333 72.8837 23.0811L72.2444 22.1855ZM71.6051 21.2339C71.1325 21.5138 70.5488 21.8776 70.1596 22.1015L70.6878 22.8572C71.1325 22.6053 71.6884 22.3254 72.161 22.0455L71.6051 21.2339ZM71.6051 21.2339C71.1325 21.5138 70.5488 21.8776 70.1596 22.1015L70.6878 22.8572C71.1325 22.6053 71.6884 22.3254 72.161 22.0455L71.6051 21.2339ZM72.2444 22.1855C71.7718 22.4654 71.2437 22.7732 70.7711 23.0251L71.3549 23.8368C71.8552 23.6129 72.3834 23.333 72.8837 23.0811L72.2444 22.1855ZM73.5231 24.0047L72.9671 23.1931L71.4383 23.9767L71.9942 24.7884C72.4946 24.5365 73.0505 24.2566 73.5231 24.0047ZM73.5786 24.0887L72.0776 24.8724L72.6335 25.684C73.1061 25.4321 73.6342 25.1523 74.1068 24.9284C73.8844 24.5645 73.6898 24.2566 73.5786 24.0887ZM73.5231 24.0047L72.9671 23.1931L71.4383 23.9767L71.9942 24.7884C72.4946 24.5365 73.0505 24.2566 73.5231 24.0047ZM72.2444 22.1855C71.7718 22.4654 71.2437 22.7732 70.7711 23.0251L71.3549 23.8368C71.8552 23.6129 72.3834 23.333 72.8837 23.0811L72.2444 22.1855ZM71.6051 21.2339C71.1325 21.5138 70.5488 21.8776 70.1596 22.1015L70.6878 22.8572C71.1325 22.6053 71.6884 22.3254 72.161 22.0455L71.6051 21.2339ZM71.6051 21.2339C71.1325 21.5138 70.5488 21.8776 70.1596 22.1015L70.6878 22.8572C71.1325 22.6053 71.6884 22.3254 72.161 22.0455L71.6051 21.2339ZM72.2444 22.1855C71.7718 22.4654 71.2437 22.7732 70.7711 23.0251L71.3549 23.8368C71.8552 23.6129 72.3834 23.333 72.8837 23.0811L72.2444 22.1855ZM73.5231 24.0047L72.9671 23.1931L71.4383 23.9767L71.9942 24.7884C72.4946 24.5365 73.0505 24.2566 73.5231 24.0047ZM73.5786 24.0887L72.0776 24.8724L72.6335 25.684C73.1061 25.4321 73.6342 25.1523 74.1068 24.9284C73.8844 24.5645 73.6898 24.2566 73.5786 24.0887ZM73.5231 24.0047L72.9671 23.1931L71.4383 23.9767L71.9942 24.7884C72.4946 24.5365 73.0505 24.2566 73.5231 24.0047ZM72.2444 22.1855C71.7718 22.4654 71.2437 22.7732 70.7711 23.0251L71.3549 23.8368C71.8552 23.6129 72.3834 23.333 72.8837 23.0811L72.2444 22.1855ZM71.6051 21.2339C71.1325 21.5138 70.5488 21.8776 70.1596 22.1015L70.6878 22.8572C71.1325 22.6053 71.6884 22.3254 72.161 22.0455L71.6051 21.2339ZM71.6051 21.2339C71.1325 21.5138 70.5488 21.8776 70.1596 22.1015L70.6878 22.8572C71.1325 22.6053 71.6884 22.3254 72.161 22.0455L71.6051 21.2339ZM72.2444 22.1855C71.7718 22.4654 71.2437 22.7732 70.7711 23.0251L71.3549 23.8368C71.8552 23.6129 72.3834 23.333 72.8837 23.0811L72.2444 22.1855ZM73.5231 24.0047L72.9671 23.1931L71.4383 23.9767L71.9942 24.7884C72.4946 24.5365 73.0505 24.2566 73.5231 24.0047ZM73.5786 24.0887L72.0776 24.8724L72.6335 25.684C73.1061 25.4321 73.6342 25.1523 74.1068 24.9284C73.8844 24.5645 73.6898 24.2566 73.5786 24.0887ZM72.2444 22.1855C71.7718 22.4654 71.2437 22.7732 70.7711 23.0251L71.3549 23.8368C71.8552 23.6129 72.3834 23.333 72.8837 23.0811L72.2444 22.1855ZM71.6051 21.2339C71.1325 21.5138 70.5488 21.8776 70.1596 22.1015L70.6878 22.8572C71.1325 22.6053 71.6884 22.3254 72.161 22.0455L71.6051 21.2339ZM71.6051 21.2339C71.1325 21.5138 70.5488 21.8776 70.1596 22.1015L70.6878 22.8572C71.1325 22.6053 71.6884 22.3254 72.161 22.0455L71.6051 21.2339ZM72.2444 22.1855C71.7718 22.4654 71.2437 22.7732 70.7711 23.0251L71.3549 23.8368C71.8552 23.6129 72.3834 23.333 72.8837 23.0811L72.2444 22.1855ZM73.5231 24.0047L72.9671 23.1931L71.4383 23.9767L71.9942 24.7884C72.4946 24.5365 73.0505 24.2566 73.5231 24.0047ZM72.2444 22.1855C71.7718 22.4654 71.2437 22.7732 70.7711 23.0251L71.3549 23.8368C71.8552 23.6129 72.3834 23.333 72.8837 23.0811L72.2444 22.1855ZM71.6051 21.2339C71.1325 21.5138 70.5488 21.8776 70.1596 22.1015L70.6878 22.8572C71.1325 22.6053 71.6884 22.3254 72.161 22.0455L71.6051 21.2339ZM71.6051 21.2339C71.1325 21.5138 70.5488 21.8776 70.1596 22.1015L70.6878 22.8572C71.1325 22.6053 71.6884 22.3254 72.161 22.0455L71.6051 21.2339ZM72.2444 22.1855C71.7718 22.4654 71.2437 22.7732 70.7711 23.0251L71.3549 23.8368C71.8552 23.6129 72.3834 23.333 72.8837 23.0811L72.2444 22.1855ZM73.5231 24.0047L72.9671 23.1931L71.4383 23.9767L71.9942 24.7884C72.4946 24.5365 73.0505 24.2566 73.5231 24.0047ZM72.2444 22.1855C71.7718 22.4654 71.2437 22.7732 70.7711 23.0251L71.3549 23.8368C71.8552 23.6129 72.3834 23.333 72.8837 23.0811L72.2444 22.1855ZM71.6051 21.2339C71.1325 21.5138 70.5488 21.8776 70.1596 22.1015L70.6878 22.8572C71.1325 22.6053 71.6884 22.3254 72.161 22.0455L71.6051 21.2339ZM71.6051 21.2339C71.1325 21.5138 70.5488 21.8776 70.1596 22.1015L70.6878 22.8572C71.1325 22.6053 71.6884 22.3254 72.161 22.0455L71.6051 21.2339ZM72.2444 22.1855C71.7718 22.4654 71.2437 22.7732 70.7711 23.0251L71.3549 23.8368C71.8552 23.6129 72.3834 23.333 72.8837 23.0811L72.2444 22.1855ZM73.5231 24.0047L72.9671 23.1931L71.4383 23.9767L71.9942 24.7884C72.4946 24.5365 73.0505 24.2566 73.5231 24.0047ZM72.2444 22.1855C71.7718 22.4654 71.2437 22.7732 70.7711 23.0251L71.3549 23.8368C71.8552 23.6129 72.3834 23.333 72.8837 23.0811L72.2444 22.1855ZM71.6051 21.2339C71.1325 21.5138 70.5488 21.8776 70.1596 22.1015L70.6878 22.8572C71.1325 22.6053 71.6884 22.3254 72.161 22.0455L71.6051 21.2339ZM71.6051 21.2339C71.1325 21.5138 70.5488 21.8776 70.1596 22.1015L70.6878 22.8572C71.1325 22.6053 71.6884 22.3254 72.161 22.0455L71.6051 21.2339ZM72.2444 22.1855C71.7718 22.4654 71.2437 22.7732 70.7711 23.0251L71.3549 23.8368C71.8552 23.6129 72.3834 23.333 72.8837 23.0811L72.2444 22.1855ZM72.2444 22.1855C71.7718 22.4654 71.2437 22.7732 70.7711 23.0251L71.3549 23.8368C71.8552 23.6129 72.3834 23.333 72.8837 23.0811L72.2444 22.1855ZM71.6051 21.2339C71.1325 21.5138 70.5488 21.8776 70.1596 22.1015L70.6878 22.8572C71.1325 22.6053 71.6884 22.3254 72.161 22.0455L71.6051 21.2339ZM71.6051 21.2339C71.1325 21.5138 70.5488 21.8776 70.1596 22.1015L70.6878 22.8572C71.1325 22.6053 71.6884 22.3254 72.161 22.0455L71.6051 21.2339ZM72.2444 22.1855C71.7718 22.4654 71.2437 22.7732 70.7711 23.0251L71.3549 23.8368C71.8552 23.6129 72.3834 23.333 72.8837 23.0811L72.2444 22.1855ZM72.2444 22.1855C71.7718 22.4654 71.2437 22.7732 70.7711 23.0251L71.3549 23.8368C71.8552 23.6129 72.3834 23.333 72.8837 23.0811L72.2444 22.1855ZM71.6051 21.2339C71.1325 21.5138 70.5488 21.8776 70.1596 22.1015L70.6878 22.8572C71.1325 22.6053 71.6884 22.3254 72.161 22.0455L71.6051 21.2339ZM71.6051 21.2339C71.1325 21.5138 70.5488 21.8776 70.1596 22.1015L70.6878 22.8572C71.1325 22.6053 71.6884 22.3254 72.161 22.0455L71.6051 21.2339ZM72.2444 22.1855C71.7718 22.4654 71.2437 22.7732 70.7711 23.0251L71.3549 23.8368C71.8552 23.6129 72.3834 23.333 72.8837 23.0811L72.2444 22.1855ZM71.6051 21.2339C71.1325 21.5138 70.5488 21.8776 70.1596 22.1015L70.6878 22.8572C71.1325 22.6053 71.6884 22.3254 72.161 22.0455L71.6051 21.2339ZM71.6051 21.2339C71.1325 21.5138 70.5488 21.8776 70.1596 22.1015L70.6878 22.8572C71.1325 22.6053 71.6884 22.3254 72.161 22.0455L71.6051 21.2339ZM72.2444 22.1855C71.7718 22.4654 71.2437 22.7732 70.7711 23.0251L71.3549 23.8368C71.8552 23.6129 72.3834 23.333 72.8837 23.0811L72.2444 22.1855ZM71.6051 21.2339C71.1325 21.5138 70.5488 21.8776 70.1596 22.1015L70.6878 22.8572C71.1325 22.6053 71.6884 22.3254 72.161 22.0455L71.6051 21.2339ZM71.6051 21.2339C71.1325 21.5138 70.5488 21.8776 70.1596 22.1015L70.6878 22.8572C71.1325 22.6053 71.6884 22.3254 72.161 22.0455L71.6051 21.2339ZM71.6051 21.2339C71.1325 21.5138 70.5488 21.8776 70.1596 22.1015L70.6878 22.8572C71.1325 22.6053 71.6884 22.3254 72.161 22.0455L71.6051 21.2339ZM71.6051 21.2339C71.1325 21.5138 70.5488 21.8776 70.1596 22.1015L70.6878 22.8572C71.1325 22.6053 71.6884 22.3254 72.161 22.0455L71.6051 21.2339ZM71.6051 21.2339C71.1325 21.5138 70.5488 21.8776 70.1596 22.1015L70.6878 22.8572C71.1325 22.6053 71.6884 22.3254 72.161 22.0455L71.6051 21.2339Z" fill="white"/>
<path d="M77.0815 20.3662L75.4971 21.5697C75.4415 21.5977 75.3581 21.5977 75.3303 21.5417C75.3025 21.4857 75.3025 21.4017 75.3581 21.3737L76.9425 20.1702C76.9981 20.1423 77.0815 20.1423 77.1093 20.1982C77.1371 20.2542 77.1371 20.3382 77.0815 20.3662Z" fill="white"/>
<path d="M69.5205 26.1599L67.936 27.3634C67.8804 27.3914 67.797 27.3914 67.7692 27.3354C67.7414 27.2794 67.7414 27.1954 67.797 27.1674L69.3815 25.9639C69.4371 25.936 69.5205 25.936 69.5482 25.9919C69.6038 26.0479 69.576 26.1039 69.5205 26.1599Z" fill="white"/>
<path d="M78.1098 22.1015L76.5254 23.305C76.4698 23.333 76.3864 23.333 76.3586 23.277C76.3308 23.2211 76.3308 23.1371 76.3864 23.1091L77.9708 21.9056C78.0264 21.8776 78.1098 21.8776 78.1376 21.9336C78.1654 21.9896 78.1654 22.0735 78.1098 22.1015Z" fill="white"/>
<path d="M71.1048 27.4753L69.437 28.7628C69.3814 28.7907 69.298 28.7907 69.2702 28.7348C69.2424 28.6788 69.2424 28.5948 69.298 28.5668L70.9658 27.2794C71.0214 27.2514 71.1048 27.2514 71.1326 27.3074C71.1604 27.3633 71.1604 27.4473 71.1048 27.4753Z" fill="white"/>
<path d="M75.7748 18.9947L74.1904 20.1982C74.1348 20.2262 74.0514 20.2262 74.0236 20.1703L73.9958 20.1423C73.968 20.0863 73.968 20.0023 74.0236 19.9743L75.608 18.7708C75.6636 18.7428 75.747 18.7428 75.7748 18.7988L75.8026 18.8268C75.8304 18.8828 75.8304 18.9388 75.7748 18.9947Z" fill="white"/>
<path d="M68.7699 24.3405L67.102 25.628C67.0464 25.656 66.9908 25.656 66.9353 25.6C66.9075 25.544 66.9075 25.4881 66.963 25.4321L68.6309 24.1446C68.6865 24.1166 68.7421 24.1166 68.7977 24.1726C68.8255 24.2286 68.8255 24.3125 68.7699 24.3405Z" fill="white"/>
<path d="M79.0828 24.0327L77.415 25.3201C77.3594 25.3481 77.276 25.3481 77.2482 25.2921C77.2204 25.2362 77.2204 25.1522 77.276 25.1242L78.9439 23.8367C78.9995 23.8088 79.0828 23.8088 79.1106 23.8647C79.1384 23.9207 79.1384 23.9767 79.0828 24.0327Z" fill="white"/>
<path d="M72.8283 28.8187L71.0215 30.2181C70.9659 30.2461 70.8825 30.2461 70.8547 30.1901V30.1622C70.8269 30.1062 70.8269 30.0222 70.8825 29.9942L72.6893 28.5948C72.7449 28.5668 72.8283 28.5668 72.8561 28.6228V28.6508C72.9117 28.7068 72.8839 28.7907 72.8283 28.8187Z" fill="white"/>
<path d="M73.9958 18.4351L72.7727 19.3587C72.7171 19.4147 72.6338 19.3867 72.606 19.3307L72.5782 19.3027C72.5226 19.2467 72.5504 19.1628 72.606 19.1348L73.829 18.2112C73.8846 18.1552 73.968 18.1832 73.9958 18.2392L74.0236 18.2672C74.0792 18.3231 74.0514 18.4071 73.9958 18.4351Z" fill="white"/>
<path d="M68.5476 22.6332L66.8242 23.9486C66.7686 23.9766 66.6852 23.9766 66.6574 23.9206V23.8926C66.6296 23.8367 66.6296 23.7527 66.6852 23.7247L68.4086 22.4093C68.4642 22.3813 68.5476 22.3813 68.5754 22.4372V22.4652C68.6032 22.5212 68.6032 22.6052 68.5476 22.6332Z" fill="white"/>
<path d="M71.7166 18.3231L67.686 21.4298C67.6304 21.4578 67.547 21.4578 67.5192 21.4018V21.3738C67.4914 21.3179 67.4914 21.2339 67.547 21.2059L71.5776 18.0992C71.6332 18.0712 71.7166 18.0712 71.7444 18.1272V18.1552C71.7722 18.1832 71.7722 18.2671 71.7166 18.3231Z" fill="white"/>
<path d="M78.1099 27.1393L74.0793 30.2181C74.0237 30.2741 73.9404 30.2461 73.8848 30.1901L73.857 30.1621C73.8014 30.1061 73.8292 30.0222 73.8848 29.9662L77.9153 26.8874C77.9709 26.8315 78.0543 26.8595 78.1099 26.9154L78.1377 26.9434C78.1933 27.0274 78.1933 27.1114 78.1099 27.1393Z" fill="white"/>
</g>
<defs>
<clipPath id="clip0_646_10763">
<rect width="80" height="31.0112" fill="white" transform="translate(0 0.494385)"/>
</clipPath>
</defs>
</svg>
